<?xml version="1.0" encoding="utf-8"?>
<!DOCTYPE svg PUBLIC "-//W3C//DTD SVG 1.1//EN" "http://www.w3.org/Graphics/SVG/1.1/DTD/svg11.dtd">
<svg xmlns="http://www.w3.org/2000/svg" xmlns:xlink="http://www.w3.org/1999/xlink" version="1.1" baseProfile="full" width="24" height="24" viewBox="0 0 24.00 24.00" enable-background="new 0 0 24.00 24.00" xml:space="preserve">
	<path fill="#000000" fill-opacity="1" stroke-width="0.2" stroke-linejoin="round" d="M 11.5,14C 15.6421,14 19,15.567 19,17.5L 19,20L 4,20L 4,17.5C 4,15.567 7.35786,14 11.5,14 Z M 18,17.5C 18,16.1193 15.0898,15 11.5,15C 7.91015,15 5,16.1193 5,17.5L 5,19L 18,19L 18,17.5 Z M 11.5,5.00001C 13.433,5.00001 15,6.56701 15,8.50001C 15,10.433 13.433,12 11.5,12C 9.567,12 8,10.433 8,8.50001C 8,6.56701 9.567,5.00001 11.5,5.00001 Z M 11.5,6.00001C 10.1193,6.00001 9,7.1193 9,8.50001C 9,9.88072 10.1193,11 11.5,11C 12.8807,11 14,9.88072 14,8.50001C 14,7.1193 12.8807,6.00001 11.5,6.00001 Z "/>
</svg>
