<?xml version="1.0" encoding="utf-8"?>
<!DOCTYPE svg PUBLIC "-//W3C//DTD SVG 1.1//EN" "http://www.w3.org/Graphics/SVG/1.1/DTD/svg11.dtd">
<svg xmlns="http://www.w3.org/2000/svg" xmlns:xlink="http://www.w3.org/1999/xlink" version="1.1" baseProfile="full" width="24" height="24" viewBox="0 0 24.00 24.00" enable-background="new 0 0 24.00 24.00" xml:space="preserve">
	<path fill="#000000" fill-opacity="1" stroke-width="0.2" stroke-linejoin="round" d="M 11,2.50002L 20,7.00001L 20,9.00001L 2,9.00001L 2,7.00001L 11,2.50002 Z M 15,10L 19,10L 19,18L 15,18L 15,10 Z M 2,22L 2,19L 20,19L 20,22L 2,22 Z M 8.99999,10L 13,10L 13,18L 8.99999,18L 8.99999,10 Z M 3,10L 6.99999,10L 6.99999,18L 3,18L 3,10 Z M 3,20L 3,21L 19,21L 19,20L 3,20 Z M 4,11L 4,17L 5.99999,17L 5.99999,11L 4,11 Z M 9.99999,11L 9.99999,17L 12,17L 12,11L 9.99999,11 Z M 16,11L 16,17L 18,17L 18,11L 16,11 Z M 3,8.00001L 19,8.00001L 19,7.60087L 11,3.58135L 3,7.60087L 3,8.00001 Z "/>
</svg>
