<svg xmlns="http://www.w3.org/2000/svg" id="mdil-bell-plus" viewBox="0 0 24 24"><path d="M11.5,3A1.5,1.5 0 0,0 10,4.5V5.21C7.69,5.86 6,8 6,10.5V16L3,19H20L17,16V10.5C17,8 15.31,5.86 13,5.21V4.5A1.5,1.5 0 0,0 11.5,3M11.5,4A0.5,0.5 0 0,1 12,4.5V6.03C14.25,6.28 16,8.18 16,10.5V16.41L17.59,18H5.41L7,16.41V10.5C7,8.18 8.75,6.28 11,6.03V4.5A0.5,0.5 0 0,1 11.5,4M11,10V12H9V13H11V15H12V13H14V12H12V10H11M9.05,20C9.28,21.14 10.29,22 11.5,22C12.71,22 13.72,21.14 13.95,20H12.91C12.71,20.58 12.15,21 11.5,21C10.85,21 10.29,20.58 10.09,20H9.05Z" /></svg>