<svg xmlns="http://www.w3.org/2000/svg" id="mdil-bell-off" viewBox="0 0 24 24"><path d="M2.79,4.46L3.5,3.75L20.25,20.5L19.54,21.21L17.34,19H3L6,16V10.5C6,9.67 6.18,8.88 6.5,8.18L2.79,4.46M12,4.5A0.5,0.5 0 0,0 11.5,4A0.5,0.5 0 0,0 11,4.5V6.03C10,6.14 9.09,6.58 8.4,7.24L7.69,6.53C8.33,5.92 9.12,5.46 10,5.21V4.5A1.5,1.5 0 0,1 11.5,3A1.5,1.5 0 0,1 13,4.5V5.21C15.31,5.86 17,8 17,10.5V15.84L16,14.84V10.5C16,8.18 14.25,6.28 12,6.03V4.5M7,10.5V16.41L5.41,18H16.34L7.28,8.94C7.1,9.43 7,9.95 7,10.5M11.5,22C10.29,22 9.28,21.14 9.05,20H10.09C10.29,20.58 10.85,21 11.5,21C12.15,21 12.71,20.58 12.91,20H13.95C13.72,21.14 12.71,22 11.5,22Z" /></svg>