<?xml version="1.0" encoding="utf-8"?>
<!DOCTYPE svg PUBLIC "-//W3C//DTD SVG 1.1//EN" "http://www.w3.org/Graphics/SVG/1.1/DTD/svg11.dtd">
<svg xmlns="http://www.w3.org/2000/svg" xmlns:xlink="http://www.w3.org/1999/xlink" version="1.1" baseProfile="full" width="24" height="24" viewBox="0 0 24.00 24.00" enable-background="new 0 0 24.00 24.00" xml:space="preserve">
	<path fill="#000000" fill-opacity="1" stroke-width="1.33333" stroke-linejoin="miter" d="M 11.5,3C 10.6716,3 10,3.6716 10,4.5L 10,5.207C 7.69149,5.86 6,7.9825 6,10.5L 6,16L 3,19L 20,19L 17,16L 17,10.5C 17,7.9825 15.3085,5.86 13,5.207L 13,4.5C 13,3.6716 12.3284,3 11.5,3 Z M 11.5,4C 11.7761,4 12,4.2239 12,4.5L 12,6.0273C 14.25,6.2761 16,8.1837 16,10.5L 16,16.4141L 17.5859,18L 5.41406,18L 7,16.4141L 7,10.5C 7,8.1837 8.75002,6.2761 11,6.0273L 11,4.5C 11,4.2239 11.2239,4 11.5,4 Z M 11,10L 11,12L 9,12L 9,13L 11,13L 11,15L 12,15L 12,13L 14,13L 14,12L 12,12L 12,10L 11,10 Z M 9.05078,20C 9.28241,21.1411 10.2905,22 11.5,22C 12.7095,22 13.7176,21.1411 13.9492,20L 12.9141,20C 12.7082,20.5826 12.1531,21 11.5,21C 10.8469,21 10.2918,20.5826 10.0859,20L 9.05078,20 Z "/>
</svg>
