<?xml version="1.0" encoding="utf-8"?>
<!DOCTYPE svg PUBLIC "-//W3C//DTD SVG 1.1//EN" "http://www.w3.org/Graphics/SVG/1.1/DTD/svg11.dtd">
<svg xmlns="http://www.w3.org/2000/svg" xmlns:xlink="http://www.w3.org/1999/xlink" version="1.1" baseProfile="full" width="24" height="24" viewBox="0 0 24.00 24.00" enable-background="new 0 0 24.00 24.00" xml:space="preserve">
	<path fill="#000000" fill-opacity="1" stroke-width="0.2" stroke-linejoin="round" d="M 3.99999,4.00001L 3.99999,12L 4.99999,12L 4.99999,13L 3.99999,13L 3.99999,21L 2.99999,21L 2.99999,4.00001L 3.99999,4.00001 Z M 6.00001,21L 6.00001,20L 8.00001,20L 8.00001,21L 6.00001,21 Z M 10,5.00003L 10,4.00003L 13,4.00003L 13,5.00003L 12,5.00003L 12,6.00004L 11,6.00004L 11,5.00003L 10,5.00003 Z M 6.00001,5.00003L 6.00001,4.00003L 8,4.00003L 8,5.00003L 6.00001,5.00003 Z M 11,13L 11,12L 12,12L 12,13L 11,13 Z M 19,4.00003L 20,4.00003L 20,5.00003L 19,5.00003L 19,4.00003 Z M 17,4.00003L 17,5.00003L 15,5.00003L 15,4.00003L 17,4.00003 Z M 19,16L 20,16L 20,18L 19,18L 19,16 Z M 19,7.00002L 20,7.00002L 20,9.00002L 19,9.00002L 19,7.00002 Z M 19,11L 20,11L 20,14L 19,14L 19,13L 18,13L 18,12L 19,12L 19,11 Z M 10,20L 11,20L 11,19L 12,19L 12,20L 13,20L 13,21L 10,21L 10,20 Z M 15,21L 15,20L 17,20L 17,21L 15,21 Z M 19,20L 20,20L 20,21L 19,21L 19,20 Z M 11,15L 12,15L 12,17L 11,17L 11,15 Z M 6.99999,13L 6.99999,12L 8.99999,12L 8.99999,13L 6.99999,13 Z M 14,13L 14,12L 16,12L 16,13L 14,13 Z M 11,8.00001L 12,8.00001L 12,10L 11,10L 11,8.00001 Z "/>
</svg>
