<svg xmlns="http://www.w3.org/2000/svg" id="mdil-bullhorn" viewBox="0 0 24 24"><path d="M14,4L11,7H3A3,3 0 0,0 0,10V13A3,3 0 0,0 3,16V19A2,2 0 0,0 5,21H6A2,2 0 0,0 8,19V16H11L14,19H16V4H14M14.41,5H15V18H14.41L11.41,15H3A2,2 0 0,1 1,13V10A2,2 0 0,1 3,8H11.41L14.41,5M18,7V8C19.7,8.25 21,9.71 21,11.47C21,13.24 19.7,14.69 18,14.94V15.95C20.25,15.7 22,13.79 22,11.47C22,9.16 20.25,7.25 18,7M18,10.06V12.89C18.58,12.68 19,12.13 19,11.47C19,10.82 18.58,10.26 18,10.06M4,16H7V19A1,1 0 0,1 6,20H5A1,1 0 0,1 4,19V16Z" /></svg>