<?xml version="1.0" encoding="utf-8"?>
<!DOCTYPE svg PUBLIC "-//W3C//DTD SVG 1.1//EN" "http://www.w3.org/Graphics/SVG/1.1/DTD/svg11.dtd">
<svg xmlns="http://www.w3.org/2000/svg" xmlns:xlink="http://www.w3.org/1999/xlink" version="1.1" baseProfile="full" width="24" height="24" viewBox="0 0 24.00 24.00" enable-background="new 0 0 24.00 24.00" xml:space="preserve">
	<path fill="#000000" fill-opacity="1" stroke-width="0.2" stroke-linejoin="round" d="M 5,7.00001L 14,7.00001C 15.1046,7.00001 16,7.89544 16,9.00001L 16,11.5L 20,7.50002L 20,17.5L 16,13.5L 16,16C 16,17.1046 15.1046,18 14,18L 5,18C 3.89543,18 3,17.1046 3,16L 3,9.00001C 3,7.89544 3.89543,7.00001 5,7.00001 Z M 5,8.00002C 4.44771,8.00002 4,8.44773 4,9.00002L 4,16C 4,16.5523 4.44771,17 5,17L 14,17C 14.5523,17 15,16.5523 15,16L 15,9.00002C 15,8.44774 14.5523,8.00002 14,8.00002L 5,8.00002 Z M 19,9.91422L 16.4142,12.5L 19,15.0858L 19,9.91422 Z "/>
</svg>
