<?xml version="1.0" encoding="utf-8"?>
<!DOCTYPE svg PUBLIC "-//W3C//DTD SVG 1.1//EN" "http://www.w3.org/Graphics/SVG/1.1/DTD/svg11.dtd">
<svg xmlns="http://www.w3.org/2000/svg" xmlns:xlink="http://www.w3.org/1999/xlink" version="1.1" baseProfile="full" width="24" height="24" viewBox="0 0 24.00 24.00" enable-background="new 0 0 24.00 24.00" xml:space="preserve">
	<path fill="#000000" fill-opacity="1" stroke-width="0.2" stroke-linejoin="round" d="M 16,18C 17.1046,18 18,18.8954 18,20C 18,21.1046 17.1046,22 16,22C 14.8954,22 14,21.1046 14,20C 14,18.8954 14.8954,18 16,18 Z M 16,19C 15.4477,19 15,19.4477 15,20C 15,20.5523 15.4477,21 16,21C 16.5523,21 17,20.5523 17,20C 17,19.4477 16.5523,19 16,19 Z M 7,18C 8.10457,18 9,18.8954 9,20C 9,21.1046 8.10457,22 7,22C 5.89543,22 5,21.1046 5,20C 5,18.8954 5.89543,18 7,18 Z M 7,19C 6.44771,19 6,19.4477 6,20C 6,20.5523 6.44771,21 7,21C 7.55228,21 8,20.5523 8,20C 8,19.4477 7.55228,19 7,19 Z M 18,6L 4.27342,6L 6.82026,12L 15,12C 15.3279,12 15.619,11.8422 15.8004,11.5976L 18.8003,7.59758L 18.8013,7.59834C 18.9261,7.43149 19,7.22438 19,7.00001C 19,6.44772 18.5523,6 18,6 Z M 15,13L 6.8655,13L 6.10138,14.5608L 6,15C 6,15.5523 6.44771,16 7,16L 18,16L 18,17L 7,17C 5.89543,17 5,16.1046 5,15C 5,14.6482 5.09086,14.3175 5.25038,14.0303L 5.9697,12.5555L 2.33811,4L 1,4L 1,3L 2.99999,3.00001L 3.84894,5L 18,5C 19.1046,5.00001 20,5.89544 20,7.00001C 20,7.47749 19.8327,7.91589 19.5535,8.25977L 16.6392,12.1462C 16.2776,12.6624 15.6782,13 15,13 Z "/>
</svg>
