<svg xmlns="http://www.w3.org/2000/svg" id="mdil-cart" viewBox="0 0 24 24"><path d="M16,18A2,2 0 0,1 18,20A2,2 0 0,1 16,22A2,2 0 0,1 14,20A2,2 0 0,1 16,18M16,19A1,1 0 0,0 15,20A1,1 0 0,0 16,21A1,1 0 0,0 17,20A1,1 0 0,0 16,19M7,18A2,2 0 0,1 9,20A2,2 0 0,1 7,22A2,2 0 0,1 5,20A2,2 0 0,1 7,18M7,19A1,1 0 0,0 6,20A1,1 0 0,0 7,21A1,1 0 0,0 8,20A1,1 0 0,0 7,19M18,6H4.27L6.82,12H15C15.33,12 15.62,11.84 15.8,11.6L18.8,7.6V7.6C18.93,7.43 19,7.22 19,7A1,1 0 0,0 18,6M15,13H6.87L6.1,14.56L6,15A1,1 0 0,0 7,16H18V17H7A2,2 0 0,1 5,15C5,14.65 5.09,14.32 5.25,14.03L5.97,12.56L2.34,4H1V3H3L3.85,5H18A2,2 0 0,1 20,7C20,7.5 19.83,7.92 19.55,8.26L16.64,12.15C16.28,12.66 15.68,13 15,13Z" /></svg>