<svg xmlns="http://www.w3.org/2000/svg" id="mdil-closed-caption" viewBox="0 0 24 24"><path d="M4,5H19A3,3 0 0,1 22,8V17A3,3 0 0,1 19,20H4A3,3 0 0,1 1,17V8A3,3 0 0,1 4,5M4,6A2,2 0 0,0 2,8V17A2,2 0 0,0 4,19H19A2,2 0 0,0 21,17V8A2,2 0 0,0 19,6H4M8.5,8C9.5,8 10.4,8.32 11.15,8.86L10.56,9.67C10,9.25 9.27,9 8.5,9A3.5,3.5 0 0,0 5,12.5A3.5,3.5 0 0,0 8.5,16C9.27,16 10,15.75 10.56,15.33L11.15,16.14C10.4,16.68 9.5,17 8.5,17C6,17 4,15 4,12.5C4,10 6,8 8.5,8M16.35,8C17.34,8 18.26,8.32 19,8.86L18.41,9.67C17.83,9.25 17.12,9 16.35,9C14.42,9 12.85,10.57 12.85,12.5C12.85,14.43 14.42,16 16.35,16C17.12,16 17.83,15.75 18.41,15.33L19,16.14C18.26,16.68 17.34,17 16.35,17C13.87,17 11.85,15 11.85,12.5C11.85,10 13.87,8 16.35,8Z" /></svg>