<svg xmlns="http://www.w3.org/2000/svg" id="mdil-cloud-upload" viewBox="0 0 24 24"><path d="M5.5,20A5.5,5.5 0 0,1 0,14.5A5.5,5.5 0 0,1 5.5,9C6.5,6.65 8.8,5 11.5,5C14.93,5 17.74,7.66 18,11.03L18.5,11C21,11 23,13 23,15.5C23,18 21,20 18.5,20H5.5M5.5,10C3,10 1,12 1,14.5C1,17 3,19 5.5,19H18.5A3.5,3.5 0 0,0 22,15.5A3.5,3.5 0 0,0 18.5,12C17.94,12 17.4,12.13 16.93,12.37L17,11.5A5.5,5.5 0 0,0 11.5,6C8.96,6 6.83,7.72 6.19,10.05L5.5,10M12,17V11.75L14.25,14L15,13.34L11.5,9.84L8,13.34L8.75,14L11,11.75V17H12Z" /></svg>