<?xml version="1.0" encoding="utf-8"?>
<!DOCTYPE svg PUBLIC "-//W3C//DTD SVG 1.1//EN" "http://www.w3.org/Graphics/SVG/1.1/DTD/svg11.dtd">
<svg xmlns="http://www.w3.org/2000/svg" xmlns:xlink="http://www.w3.org/1999/xlink" version="1.1" baseProfile="full" width="24" height="24" viewBox="0 0 24.00 24.00" enable-background="new 0 0 24.00 24.00" xml:space="preserve">
	<path fill="#000000" fill-opacity="1" stroke-width="0.2" stroke-linejoin="round" d="M 5,4L 18,4C 19.6569,4 21,5.34315 21,7L 21,18C 21,19.6569 19.6569,21 18,21L 5,21C 3.34315,21 2,19.6569 2,18L 2,7C 2,5.34315 3.34315,4 5,4 Z M 5,5.00001C 3.89543,5.00001 3,5.89544 3,7.00001L 20,7.00001C 20,5.89544 19.1046,5.00001 18,5.00001L 5,5.00001 Z M 3,18C 3,19.1046 3.89543,20 5,20L 18,20C 19.1046,20 20,19.1046 20,18L 20,8.00001L 3,8.00001L 3,18 Z M 17,18L 12,18L 12,17L 17,17L 17,18 Z M 6,10.5L 6.7071,9.7929L 10.9142,14L 6.7071,18.2071L 6,17.5L 9.5,14L 6,10.5 Z "/>
</svg>
