<?xml version="1.0" encoding="utf-8"?>
<!DOCTYPE svg PUBLIC "-//W3C//DTD SVG 1.1//EN" "http://www.w3.org/Graphics/SVG/1.1/DTD/svg11.dtd">
<svg xmlns="http://www.w3.org/2000/svg" xmlns:xlink="http://www.w3.org/1999/xlink" version="1.1" baseProfile="full" width="24" height="24" viewBox="0 0 24.00 24.00" enable-background="new 0 0 24.00 24.00" xml:space="preserve">
	<path fill="#000000" fill-opacity="1" stroke-width="0.2" stroke-linejoin="round" d="M 9,6.5C 9,7.28617 8.7408,8.0118 8.30319,8.59609L 20,20.2929L 20,21L 19.2929,21L 11.5,13.2071L 8.30319,16.4039C 8.7408,16.9882 9,17.7138 9,18.5C 9,20.433 7.433,22 5.5,22C 3.567,22 2,20.433 2,18.5C 2,16.567 3.56701,15 5.5,15C 6.28617,15 7.0118,15.2592 7.59609,15.6968L 10.7929,12.5L 7.59609,9.30319C 7.0118,9.7408 6.28617,10 5.5,10C 3.56701,10 2,8.433 2,6.5C 2,4.567 3.56701,3 5.5,3C 7.433,3 9,4.56701 9,6.5 Z M 8,6.5C 8,5.11929 6.88071,4 5.5,4C 4.11929,4 3,5.11929 3,6.5C 3,7.88071 4.11929,9 5.5,9C 6.88071,9 8,7.88071 8,6.5 Z M 19.2929,4L 20,4L 20,4.70712L 12.8536,11.8536L 12.1464,11.1465L 19.2929,4 Z M 5.5,16C 4.11929,16 3,17.1193 3,18.5C 3,19.8807 4.11929,21 5.5,21C 6.88071,21 8,19.8807 8,18.5C 8,17.1193 6.88071,16 5.5,16 Z "/>
</svg>
