<?xml version="1.0" encoding="utf-8"?>
<!DOCTYPE svg PUBLIC "-//W3C//DTD SVG 1.1//EN" "http://www.w3.org/Graphics/SVG/1.1/DTD/svg11.dtd">
<svg xmlns="http://www.w3.org/2000/svg" xmlns:xlink="http://www.w3.org/1999/xlink" version="1.1" baseProfile="full" width="24" height="24" viewBox="0 0 24.00 24.00" enable-background="new 0 0 24.00 24.00" xml:space="preserve">
	<path fill="#000000" fill-opacity="1" stroke-width="0.2" stroke-linejoin="round" d="M 6,3L 16.5858,3L 20,6.41422L 20,17C 20,18.6569 18.6569,20 17,20L 6,20C 4.34315,20 3,18.6569 3,17L 3,6C 3,4.34315 4.34315,3 6,3 Z M 6,4.00001C 4.89543,4.00001 4,4.89544 4,6.00001L 4,17C 4,18.1046 4.89543,19 6,19L 17,19C 18.1046,19 19,18.1046 19,17L 19,6.91421L 16.0858,4.00001L 15,4L 15,8L 15,9L 6,9L 6,8.00001L 6,4.00001 Z M 7,4.00001L 7,8.00001L 14,8L 14,4L 7,4.00001 Z M 12,11C 13.6568,11 15,12.3432 15,14C 15,15.6569 13.6568,17 12,17C 10.3431,17 8.99999,15.6569 8.99999,14C 8.99999,12.3432 10.3431,11 12,11 Z M 12,12C 10.8954,12 9.99999,12.8954 9.99999,14C 9.99999,15.1046 10.8954,16 12,16C 13.1046,16 14,15.1046 14,14C 14,12.8954 13.1046,12 12,12 Z M 6,22C 3.23858,22 1,19.7614 1,17L 0.999991,7.00001L 2,7.00001L 2.00002,17C 2.00002,19.2091 3.79088,21 6.00002,21L 16,21L 16,22L 6,22 Z "/>
</svg>
