<svg xmlns="http://www.w3.org/2000/svg" id="mdil-content-cut" viewBox="0 0 24 24"><path d="M9,6.5C9,7.29 8.74,8 8.3,8.6L20,20.29V21H19.29L11.5,13.21L8.3,16.4C8.74,17 9,17.71 9,18.5A3.5,3.5 0 0,1 5.5,22A3.5,3.5 0 0,1 2,18.5A3.5,3.5 0 0,1 5.5,15C6.29,15 7,15.26 7.6,15.7L10.79,12.5L7.6,9.3C7,9.74 6.29,10 5.5,10A3.5,3.5 0 0,1 2,6.5A3.5,3.5 0 0,1 5.5,3A3.5,3.5 0 0,1 9,6.5M8,6.5A2.5,2.5 0 0,0 5.5,4A2.5,2.5 0 0,0 3,6.5A2.5,2.5 0 0,0 5.5,9A2.5,2.5 0 0,0 8,6.5M19.29,4H20V4.71L12.85,11.85L12.15,11.15L19.29,4M5.5,16A2.5,2.5 0 0,0 3,18.5A2.5,2.5 0 0,0 5.5,21A2.5,2.5 0 0,0 8,18.5A2.5,2.5 0 0,0 5.5,16Z" /></svg>