<?xml version="1.0" encoding="utf-8"?>
<!DOCTYPE svg PUBLIC "-//W3C//DTD SVG 1.1//EN" "http://www.w3.org/Graphics/SVG/1.1/DTD/svg11.dtd">
<svg xmlns="http://www.w3.org/2000/svg" xmlns:xlink="http://www.w3.org/1999/xlink" version="1.1" baseProfile="full" width="24" height="24" viewBox="0 0 24.00 24.00" enable-background="new 0 0 24.00 24.00" xml:space="preserve">
	<path fill="#000000" fill-opacity="1" stroke-width="0.2" stroke-linejoin="round" d="M 5,5L 18,5C 19.6569,5 21,6.34315 21,8L 21,17C 21,18.6569 19.6568,20 18,20L 5,20C 3.34314,20 2,18.6569 2,17L 2,8C 2,6.34315 3.34315,5 5,5 Z M 5,6.00001C 3.89543,6.00001 3,6.89544 3,8.00001L 3,9.00001L 20,9.00001L 20,8.00001C 20,6.89544 19.1046,6.00001 18,6.00001L 5,6.00001 Z M 2.99999,17C 2.99999,18.1046 3.89543,19 4.99999,19L 18,19C 19.1045,19 20,18.1046 20,17L 20,12L 3,12L 2.99999,17 Z M 5,16L 9,16L 9,17L 5,17L 5,16 Z M 11,16L 14,16L 14,17L 11,17L 11,16 Z M 3,10L 3,11L 20,11L 20,10L 3,10 Z "/>
</svg>
