<?xml version="1.0" encoding="utf-8"?>
<!DOCTYPE svg PUBLIC "-//W3C//DTD SVG 1.1//EN" "http://www.w3.org/Graphics/SVG/1.1/DTD/svg11.dtd">
<svg xmlns="http://www.w3.org/2000/svg" xmlns:xlink="http://www.w3.org/1999/xlink" version="1.1" baseProfile="full" width="24" height="24" viewBox="0 0 24.00 24.00" enable-background="new 0 0 24.00 24.00" xml:space="preserve">
	<path fill="#000000" fill-opacity="1" stroke-width="0.2" stroke-linejoin="round" d="M 8,6L 15,6C 16.6569,6 18,7.34315 18,9L 18,16L 17,16L 17,9C 17,7.89543 16.1046,7 15,7L 8,7L 8,6 Z M 8,19C 6.34314,19 5,17.6569 5,16L 5,7L 1,7L 1,6L 5,6L 5,2L 6,2L 6,16C 6,17.1046 6.89543,18 8,18L 21,18L 21,19L 18,19L 18,23L 17,23L 17,19L 8,19 Z "/>
</svg>
