<?xml version="1.0" encoding="utf-8"?>
<!DOCTYPE svg PUBLIC "-//W3C//DTD SVG 1.1//EN" "http://www.w3.org/Graphics/SVG/1.1/DTD/svg11.dtd">
<svg xmlns="http://www.w3.org/2000/svg" xmlns:xlink="http://www.w3.org/1999/xlink" version="1.1" baseProfile="full" width="24" height="24" viewBox="0 0 24.00 24.00" enable-background="new 0 0 24.00 24.00" xml:space="preserve">
	<path fill="#000000" fill-opacity="1" stroke-width="1.33333" stroke-linejoin="miter" d="M 7,13L 7,12L 9.82264,12C 9.7471,11.5257 9.65689,11.0997 9.57161,10.6967C 9.38481,9.81641 9.20878,8.98499 9.25118,7.97913C 9.32597,6.17765 9.92322,4.92838 11.0253,4.26628C 12.7112,3.25488 15.0531,3.98093 16.0233,4.36011L 15.8547,5.37197C 15.2061,5.09996 12.9588,4.26795 11.5384,5.12508C 10.7434,5.60348 10.3097,6.57739 10.2498,8.02071C 10.2134,8.901 10.3692,9.63668 10.5495,10.4889C 10.6477,10.9515 10.7519,11.4426 10.8353,12L 15,12L 15,13L 10.9507,13C 10.9817,13.3834 11,13.7979 11,14.2513C 11,17.4284 9.52734,18.9844 8.34574,20L 17,20L 17,21L 6.5,21L 6.5,20L 7.30534,19.5677C 8.44267,18.6237 10,17.332 10,14.2513C 10,13.7968 9.97996,13.3826 9.94652,13L 7,13 Z "/>
</svg>
