<?xml version="1.0" encoding="utf-8"?>
<!DOCTYPE svg PUBLIC "-//W3C//DTD SVG 1.1//EN" "http://www.w3.org/Graphics/SVG/1.1/DTD/svg11.dtd">
<svg xmlns="http://www.w3.org/2000/svg" xmlns:xlink="http://www.w3.org/1999/xlink" version="1.1" baseProfile="full" width="24" height="24" viewBox="0 0 24.00 24.00" enable-background="new 0 0 24.00 24.00" xml:space="preserve">
	<path fill="#000000" fill-opacity="1" stroke-width="0.2" stroke-linejoin="round" d="M 2,11L 2.5,10L 5.3736,10C 6.44117,6.52567 9.67563,4 13.5,4C 15.6301,4 17.5772,4.78352 19.0688,6.07808L 18.6724,7.06895C 17.3268,5.78699 15.5053,5 13.5,5C 10.2345,5 7.45636,7.08702 6.42677,10L 17.5,10L 17.1,11L 6.15003,11C 6.05165,11.4847 6,11.9863 6,12.5C 6,13.0137 6.05165,13.5153 6.15003,14L 15.9,14L 15.5,15L 6.42677,15C 7.45636,17.913 10.2345,20 13.5,20C 15.6731,20 17.6303,19.0758 19,17.5991L 19,18.981C 17.5176,20.2403 15.5975,21 13.5,21C 9.67563,21 6.44117,18.4743 5.3736,15L 2,15L 2.5,14L 5.13193,14C 5.04524,13.5131 5,13.0118 5,12.5C 5,11.9882 5.04524,11.4869 5.13193,11L 2,11 Z "/>
</svg>
