<svg xmlns="http://www.w3.org/2000/svg" id="mdil-currency-gbp" viewBox="0 0 24 24"><path d="M7,13V12H9.82C9.75,11.53 9.66,11.1 9.57,10.7C9.38,9.82 9.21,9 9.25,8C9.33,6.18 9.92,4.93 11.03,4.27C12.71,3.25 15.05,4 16,4.36L15.85,5.37C15.21,5.1 12.96,4.27 11.54,5.13C10.74,5.6 10.31,6.58 10.25,8C10.21,8.9 10.37,9.64 10.55,10.5C10.65,10.95 10.75,11.44 10.84,12H15V13H10.95C11,13.38 11,13.8 11,14.25C11,17.43 9.53,19 8.35,20H17V21H6.5V20L7.31,19.57C8.44,18.62 10,17.33 10,14.25C10,13.8 10,13.38 9.95,13H7Z" /></svg>