<svg xmlns="http://www.w3.org/2000/svg" id="mdil-dots-vertical" viewBox="0 0 24 24"><path d="M12,16A2,2 0 0,1 14,18A2,2 0 0,1 12,20A2,2 0 0,1 10,18A2,2 0 0,1 12,16M12,10A2,2 0 0,1 14,12A2,2 0 0,1 12,14A2,2 0 0,1 10,12A2,2 0 0,1 12,10M12,4A2,2 0 0,1 14,6A2,2 0 0,1 12,8A2,2 0 0,1 10,6A2,2 0 0,1 12,4M12,5A1,1 0 0,0 11,6A1,1 0 0,0 12,7A1,1 0 0,0 13,6A1,1 0 0,0 12,5M12,11A1,1 0 0,0 11,12A1,1 0 0,0 12,13A1,1 0 0,0 13,12A1,1 0 0,0 12,11M12,17A1,1 0 0,0 11,18A1,1 0 0,0 12,19A1,1 0 0,0 13,18A1,1 0 0,0 12,17Z" /></svg>