<?xml version="1.0" encoding="utf-8"?>
<!DOCTYPE svg PUBLIC "-//W3C//DTD SVG 1.1//EN" "http://www.w3.org/Graphics/SVG/1.1/DTD/svg11.dtd">
<svg xmlns="http://www.w3.org/2000/svg" xmlns:xlink="http://www.w3.org/1999/xlink" version="1.1" baseProfile="full" width="24" height="24" viewBox="0 0 24.00 24.00" enable-background="new 0 0 24.00 24.00" xml:space="preserve">
	<path fill="#000000" fill-opacity="1" stroke-width="0.2" stroke-linejoin="round" d="M 16,12C 16,10.8954 16.8954,10 18,10C 19.1046,10 20,10.8954 20,12C 20,13.1046 19.1046,14 18,14C 16.8954,14 16,13.1046 16,12 Z M 10,12C 10,10.8954 10.8954,10 12,10C 13.1046,10 14,10.8954 14,12C 14,13.1046 13.1046,14 12,14C 10.8954,14 10,13.1046 10,12 Z M 4,12C 4,10.8954 4.89543,10 6,10C 7.10457,10 8,10.8954 8,12C 8,13.1046 7.10457,14 6,14C 4.89543,14 4,13.1046 4,12 Z M 6,11C 5.44771,11 5,11.4477 5,12C 5,12.5523 5.44771,13 6,13C 6.55228,13 7,12.5523 7,12C 7,11.4477 6.55228,11 6,11 Z M 12,11C 11.4477,11 11,11.4477 11,12C 11,12.5523 11.4477,13 12,13C 12.5523,13 13,12.5523 13,12C 13,11.4477 12.5523,11 12,11 Z M 18,11C 17.4477,11 17,11.4477 17,12C 17,12.5523 17.4477,13 18,13C 18.5523,13 19,12.5523 19,12C 19,11.4477 18.5523,11 18,11 Z "/>
</svg>
