<svg xmlns="http://www.w3.org/2000/svg" id="mdil-dots-horizontal" viewBox="0 0 24 24"><path d="M16,12A2,2 0 0,1 18,10A2,2 0 0,1 20,12A2,2 0 0,1 18,14A2,2 0 0,1 16,12M10,12A2,2 0 0,1 12,10A2,2 0 0,1 14,12A2,2 0 0,1 12,14A2,2 0 0,1 10,12M4,12A2,2 0 0,1 6,10A2,2 0 0,1 8,12A2,2 0 0,1 6,14A2,2 0 0,1 4,12M6,11A1,1 0 0,0 5,12A1,1 0 0,0 6,13A1,1 0 0,0 7,12A1,1 0 0,0 6,11M12,11A1,1 0 0,0 11,12A1,1 0 0,0 12,13A1,1 0 0,0 13,12A1,1 0 0,0 12,11M18,11A1,1 0 0,0 17,12A1,1 0 0,0 18,13A1,1 0 0,0 19,12A1,1 0 0,0 18,11Z" /></svg>