<svg xmlns="http://www.w3.org/2000/svg" id="mdil-face-mask" viewBox="0 0 24 24"><path d="M19.5 6C18.12 6 17 7.12 17 8.5V8.68L12.09 7.09C11.9 7.03 11.7 7 11.5 7S11.1 7.03 10.91 7.09L6 8.68V8.5C6 7.12 4.88 6 3.5 6S1 7.12 1 8.5V13C1 14.1 1.9 15 3 15H5.5C6.5 17.35 8.8 19 11.5 19S16.5 17.35 17.5 15H20C21.1 15 22 14.1 22 13V8.5C22 7.12 20.88 6 19.5 6M5 14H3C2.45 14 2 13.55 2 13V8.5C2 7.67 2.67 7 3.5 7S5 7.67 5 8.5V14M11.5 18C8.47 18 6 15.53 6 12.5V9.73L11.21 8.05C11.3 8 11.4 8 11.5 8S11.7 8 11.78 8.04L17 9.73V12.5C17 15.53 14.53 18 11.5 18M21 13C21 13.55 20.55 14 20 14H18V8.5C18 7.67 18.67 7 19.5 7S21 7.67 21 8.5V13M12.23 10.11L14 10.68V11.73L11.94 11.07C11.65 11 11.35 11 11.06 11.07L9 11.73V10.68L10.76 10.11C11.25 9.96 11.75 9.96 12.23 10.11Z" /></svg>