<?xml version="1.0" encoding="utf-8"?>
<!DOCTYPE svg PUBLIC "-//W3C//DTD SVG 1.1//EN" "http://www.w3.org/Graphics/SVG/1.1/DTD/svg11.dtd">
<svg xmlns="http://www.w3.org/2000/svg" xmlns:xlink="http://www.w3.org/1999/xlink" version="1.1" baseProfile="full" width="24" height="24" viewBox="0 0 24.00 24.00" enable-background="new 0 0 24.00 24.00" xml:space="preserve">
	<path fill="#000000" fill-opacity="1" stroke-width="0.2" stroke-linejoin="round" d="M 2,8L 9,12.0415L 9,8L 16,12L 16,3.00001L 21,3.00001L 21.0018,12L 21,12L 21,22L 2,22L 2,8 Z M 17,14L 10,9.73206L 10,13.7735L 3,9.73206L 3,21L 20,21L 20,12L 20.0018,12L 20,4.00001L 17,4.00001L 17,14 Z M 5,15L 8,15L 8,16L 5,16L 5,15 Z M 5,18L 10,18L 10,19L 5,19L 5,18 Z M 12,15L 15,15L 15,16L 12,16L 12,15 Z M 12,18L 18,18L 18,19L 12,19L 12,18 Z "/>
</svg>
