<svg xmlns="http://www.w3.org/2000/svg" id="mdil-flask" viewBox="0 0 24 24"><path d="M13,6H14V5A1,1 0 0,0 13,4H10A1,1 0 0,0 9,5V6H10V8.07L4.29,17.97C4.1,18.27 4,18.62 4,19A2,2 0 0,0 6,21H17A2,2 0 0,0 19,19C19,18.62 18.9,18.27 18.71,17.97L13,8.07V6M6,22A3,3 0 0,1 3,19C3,18.4 3.18,17.84 3.5,17.37L9,7.81V7A1,1 0 0,1 8,6V5A2,2 0 0,1 10,3H13A2,2 0 0,1 15,5V6A1,1 0 0,1 14,7V7.81L19.5,17.37C19.82,17.84 20,18.4 20,19A3,3 0 0,1 17,22H6M12.29,15.29L13.92,13.67L17,19H6L9.66,12.66L12.29,15.29M12.29,16.71L9.88,14.29L7.73,18H15.27L13.71,15.29L12.29,16.71M12,10A1,1 0 0,1 13,11A1,1 0 0,1 12,12A1,1 0 0,1 11,11A1,1 0 0,1 12,10Z" /></svg>