<?xml version="1.0" encoding="utf-8"?>
<!DOCTYPE svg PUBLIC "-//W3C//DTD SVG 1.1//EN" "http://www.w3.org/Graphics/SVG/1.1/DTD/svg11.dtd">
<svg xmlns="http://www.w3.org/2000/svg" xmlns:xlink="http://www.w3.org/1999/xlink" version="1.1" baseProfile="full" width="24" height="24" viewBox="0 0 24.00 24.00" enable-background="new 0 0 24.00 24.00" xml:space="preserve">
	<path fill="#000000" fill-opacity="1" stroke-width="0.2" stroke-linejoin="round" d="M 3,4L 20,4L 20,5L 3,5L 3,4 Z M 12,13L 12,12L 20,12L 20,13L 12,13 Z M 3,7.00001L 10,7.00001L 10,14L 3,14L 3,7.00001 Z M 4,8L 4,13L 9,13L 9,8L 4,8 Z M 3,16L 16,16L 16,17L 3,17L 3,16 Z M 3,20L 20,20L 20,21L 3,21L 3,20 Z "/>
</svg>
