<?xml version="1.0" encoding="utf-8"?>
<!DOCTYPE svg PUBLIC "-//W3C//DTD SVG 1.1//EN" "http://www.w3.org/Graphics/SVG/1.1/DTD/svg11.dtd">
<svg xmlns="http://www.w3.org/2000/svg" xmlns:xlink="http://www.w3.org/1999/xlink" version="1.1" baseProfile="full" width="24" height="24" viewBox="0 0 24.00 24.00" enable-background="new 0 0 24.00 24.00" xml:space="preserve">
	<path fill="#000000" fill-opacity="1" stroke-width="0.2" stroke-linejoin="round" d="M 2.00001,16.5858L 5.58579,13L 15,13C 16.1046,13 17,12.1046 17,11L 17,6C 17,4.89543 16.1046,4 15,4L 4.00001,3.99999C 2.89544,3.99999 2.00001,4.89542 2.00001,5.99999L 2.00001,16.5858 Z M 2.00001,18L 1.00001,18L 1.00001,6C 1.00001,4.34315 2.34316,3 4.00001,3L 15,3.00001C 16.6569,3.00001 18,4.34315 18,6.00001L 18,11C 18,12.6569 16.6568,14 15,14L 6,14L 2.00001,18 Z M 21,20.5858L 21,10C 21,8.89542 20.1046,7.99999 19,7.99999L 19,7C 20.6568,7 22,8.34315 22,10L 22,22L 21,22L 17,18L 8.00002,18C 6.76027,18 5.69615,17.248 5.23896,16.1753L 6.03577,15.3784C 6.21265,16.3021 7.02482,17 8.00002,17L 17.4142,17L 21,20.5858 Z "/>
</svg>
