<svg xmlns="http://www.w3.org/2000/svg" id="mdil-gender-transgender" viewBox="0 0 24 24"><path d="M2 3V8H3V4.7L5.2 6.9L3.8 8.3L4.5 9L5.9 7.6L7.3 9C6.5 10 6 11.2 6 12.5C6 15.3 8.2 17.7 11 18V20H9V21H11V23H12V21H14V20H12V18C14.8 17.7 17 15.4 17 12.5C17 11.2 16.5 10 15.7 9L20 4.7V8H21V3H16V4H19.3L15 8.3C14 7.5 12.8 7 11.5 7C10.2 7 9 7.5 8 8.3L6.6 6.9L8 5.5L7.3 4.8L5.9 6.2L3.7 4H7V3H2M11.5 8C12.5 8 13.5 8.4 14.3 9C14.5 9.2 14.8 9.4 15 9.7C15.6 10.5 16 11.5 16 12.5C16 15 14 17 11.5 17S7 15 7 12.5C7 11.5 7.4 10.5 8 9.7C8.2 9.4 8.4 9.2 8.7 9C9.5 8.3 10.5 8 11.5 8Z" /></svg>