<?xml version="1.0" encoding="utf-8"?>
<!DOCTYPE svg PUBLIC "-//W3C//DTD SVG 1.1//EN" "http://www.w3.org/Graphics/SVG/1.1/DTD/svg11.dtd">
<svg xmlns="http://www.w3.org/2000/svg" xmlns:xlink="http://www.w3.org/1999/xlink" version="1.1" baseProfile="full" width="24" height="24" viewBox="0 0 24.00 24.00" enable-background="new 0 0 24.00 24.00" xml:space="preserve">
	<path fill="#000000" fill-opacity="1" stroke-width="0.2" stroke-linejoin="round" d="M 4,13L 4,21L 11,21L 11,13L 4,13 Z M 12,13L 12,21L 19,21L 19,13L 12,13 Z M 20,13L 20,22L 3,22L 3,13L 2,13L 2,7L 5.03544,7L 5,6.5C 5,4.56701 6.567,3.00001 8.5,3.00001C 9.77316,3.00001 10.8875,3.6798 11.5,4.69621C 12.1124,3.67979 13.2268,3 14.5,3C 16.433,3 18,4.567 18,6.5L 17.9646,7L 21,7L 21,13L 20,13 Z M 3,8L 3,12L 11,12L 11,8L 3,8 Z M 20,12L 20,8L 12,8L 12,12L 20,12 Z M 16.95,7L 17,6.5C 17,5.11929 15.8807,4.00001 14.5,4.00001C 13.1193,4.00001 12,5.1193 12,6.50001L 12,7L 16.95,7 Z M 11,7L 11,6.50001C 11,5.1193 9.88071,4.00001 8.5,4.00001C 7.11929,4.00001 6,5.1193 6,6.50001L 6.05,7L 11,7 Z "/>
</svg>
