<?xml version="1.0" encoding="utf-8"?>
<!DOCTYPE svg PUBLIC "-//W3C//DTD SVG 1.1//EN" "http://www.w3.org/Graphics/SVG/1.1/DTD/svg11.dtd">
<svg xmlns="http://www.w3.org/2000/svg" xmlns:xlink="http://www.w3.org/1999/xlink" version="1.1" baseProfile="full" width="24" height="24" viewBox="0 0 24.00 24.00" enable-background="new 0 0 24.00 24.00" xml:space="preserve">
	<path fill="#000000" fill-opacity="1" stroke-width="0.2" stroke-linejoin="round" d="M 0.792892,2.45713L 1.5,1.75004L 22.25,22.5L 21.5429,23.2071L 19.7632,21.4274C 19.2683,21.7876 18.6589,22 18,22L 5,22C 3.34314,22 2,20.6569 2,19L 2,6C 2,5.34107 2.21244,4.73175 2.57257,4.23681L 0.792892,2.45713 Z M 5,3L 18,3C 19.6569,3 21,4.34315 21,6L 21,19L 20.9073,19.7431L 20,18.8358L 20,16L 17.1642,16L 16.1642,15L 20,15L 20,10L 15,10L 15,13.8358L 14,12.8358L 14,10L 11.1642,10L 10.1642,9.00001L 14,9.00001L 14,4.00001L 9,4.00001L 9,7.83578L 7.99999,6.83578L 7.99999,4.00001L 5.16422,4L 4.25695,3.09274L 5,3 Z M 3,6.00001L 3,9.00001L 7.33577,9.00001L 3.29301,4.95725C 3.10714,5.26087 3,5.61793 3,6.00001 Z M 8.99999,15L 13.3358,15L 8.99999,10.6642L 8.99999,15 Z M 15,21L 18,21C 18.3821,21 18.7391,20.8929 19.0428,20.707L 15,16.6642L 15,21 Z M 3,19C 3,20.1046 3.89543,21 5,21L 7.99999,21L 7.99999,16L 3,16L 3,19 Z M 7.99999,10L 3,10L 3,15L 7.99999,15L 7.99999,10 Z M 20,6.00001C 20,4.89544 19.1046,4 18,4L 15,4.00001L 15,9.00001L 20,9.00001L 20,6.00001 Z M 8.99999,21L 14,21L 14,16L 8.99999,16L 8.99999,21 Z "/>
</svg>
