<svg xmlns="http://www.w3.org/2000/svg" id="mdil-grid-off" viewBox="0 0 24 24"><path d="M0.79,2.46L1.5,1.75L22.25,22.5L21.54,23.21L19.76,21.43C19.27,21.79 18.66,22 18,22H5A3,3 0 0,1 2,19V6C2,5.34 2.21,4.73 2.57,4.24L0.79,2.46M5,3H18A3,3 0 0,1 21,6V19L20.91,19.74L20,18.84V16H17.16L16.16,15H20V10H15V13.84L14,12.84V10H11.16L10.16,9H14V4H9V7.84L8,6.84V4H5.16L4.26,3.09L5,3M3,6V9H7.34L3.29,4.96C3.11,5.26 3,5.62 3,6M9,15H13.34L9,10.66V15M15,21H18C18.38,21 18.74,20.89 19.04,20.71L15,16.66V21M3,19A2,2 0 0,0 5,21H8V16H3V19M8,10H3V15H8V10M20,6A2,2 0 0,0 18,4H15V9H20V6M9,21H14V16H9V21Z" /></svg>