<svg xmlns="http://www.w3.org/2000/svg" id="mdil-hamburger" viewBox="0 0 24 24"><path d="M7,4H16A5,5 0 0,1 21,9H2A5,5 0 0,1 7,4M16,5H7C5.14,5 3.57,6.27 3.13,8H19.87C19.43,6.27 17.86,5 16,5M21,16A5,5 0 0,1 16,21H7A5,5 0 0,1 2,16H21M7,20H16C17.86,20 19.43,18.73 19.87,17H3.13C3.57,18.73 5.14,20 7,20M12.5,10L14.5,12L16.5,10H19A2,2 0 0,1 21,12V13A2,2 0 0,1 19,15H4A2,2 0 0,1 2,13V12A2,2 0 0,1 4,10H12.5M14.5,13.41L12.09,11H4A1,1 0 0,0 3,12V13A1,1 0 0,0 4,14H19A1,1 0 0,0 20,13V12A1,1 0 0,0 19,11H16.91L14.5,13.41Z" /></svg>