<?xml version="1.0" encoding="utf-8"?>
<!DOCTYPE svg PUBLIC "-//W3C//DTD SVG 1.1//EN" "http://www.w3.org/Graphics/SVG/1.1/DTD/svg11.dtd">
<svg xmlns="http://www.w3.org/2000/svg" xmlns:xlink="http://www.w3.org/1999/xlink" version="1.1" baseProfile="full" width="24" height="24" viewBox="0 0 24.00 24.00" enable-background="new 0 0 24.00 24.00" xml:space="preserve">
	<path fill="#000000" fill-opacity="1" fill-rule="evenodd" stroke-width="0.2" stroke-linejoin="round" d="M 6.99999,3.99999L 16,3.99999C 18.7614,3.99999 21,6.23857 21,8.99999L 2,8.99999C 2,6.23857 4.23857,3.99999 6.99999,3.99999 Z M 16,5.00001L 7,5.00001C 5.13616,5.00001 3.57006,6.27478 3.12602,8L 19.874,8C 19.4299,6.27478 17.8638,5.00001 16,5.00001 Z M 21,16C 21,18.7614 18.7614,21 16,21L 6.99999,21C 4.23857,21 1.99999,18.7614 1.99999,16L 21,16 Z M 7,20L 16,20C 17.8638,20 19.4299,18.7252 19.874,17L 3.12602,17C 3.57006,18.7252 5.13616,20 7,20 Z M 12.5,10L 14.5,12L 16.5,10L 19,10C 20.1046,10 21,10.8954 21,12L 21,13C 21,14.1046 20.1046,15 19,15L 4,15C 2.89543,15 2,14.1046 2,13L 2,12C 2,10.8954 2.89543,10 4,10L 12.5,10 Z M 14.5,13.4142L 12.0858,11L 4,11C 3.44771,11 3,11.4477 3,12L 3,13C 3,13.5523 3.44771,14 4,14L 19,14C 19.5523,14 20,13.5523 20,13L 20,12C 20,11.4477 19.5523,11 19,11L 16.9142,11L 14.5,13.4142 Z "/>
</svg>
