<?xml version="1.0" encoding="utf-8"?>
<!DOCTYPE svg PUBLIC "-//W3C//DTD SVG 1.1//EN" "http://www.w3.org/Graphics/SVG/1.1/DTD/svg11.dtd">
<svg xmlns="http://www.w3.org/2000/svg" xmlns:xlink="http://www.w3.org/1999/xlink" version="1.1" baseProfile="full" width="24" height="24" viewBox="0 0 24.00 24.00" enable-background="new 0 0 24.00 24.00" xml:space="preserve">
	<path fill="#000000" fill-opacity="1" stroke-width="0.2" stroke-linejoin="round" d="M 4.2439,12.2525C 3.47495,11.4845 3,10.4227 3,9.25001C 3,6.9028 4.90279,5.00001 7.25,5.00001C 8.82976,5.00001 10.2082,5.86193 10.9407,7.14116L 12.0593,7.14116C 12.7918,5.86193 14.1702,5.00001 15.75,5.00001C 18.0972,5.00001 20,6.9028 20,9.25001C 20,10.4227 19.525,11.4845 18.7561,12.2525L 11.5,19.5086L 4.2439,12.2525 Z M 19.4623,12.9623C 20.4124,12.0122 21,10.6997 21,9.25C 21,6.35051 18.6495,4 15.75,4C 14.0024,4 12.4543,4.85386 11.5,6.16716C 10.5457,4.85386 8.99758,4 7.25,4C 4.3505,4 2,6.35051 2,9.25C 2,10.6997 2.58763,12.0122 3.53769,12.9623L 11.5,20.9233L 19.4623,12.9623 Z "/>
</svg>
