<svg xmlns="http://www.w3.org/2000/svg" id="mdil-heart-off" viewBox="0 0 24 24"><path d="M1.79,3.46L2.5,2.75L19.25,19.5L18.54,20.21L15.38,17.04L11.5,20.92L3.54,12.96C2.59,12 2,10.7 2,9.25C2,7.71 2.66,6.33 3.71,5.37L1.79,3.46M4.24,12.25L11.5,19.5L14.67,16.34L4.42,6.08C3.55,6.86 3,8 3,9.25C3,10.42 3.47,11.5 4.24,12.25M18.76,12.25C19.5,11.5 20,10.42 20,9.25A4.25,4.25 0 0,0 15.75,5C14.17,5 12.79,5.86 12.06,7.14H10.94C10.21,5.86 8.83,5 7.25,5L6.28,5.11L5.47,4.31C6.03,4.11 6.63,4 7.25,4C9,4 10.55,4.85 11.5,6.17C12.45,4.85 14,4 15.75,4A5.25,5.25 0 0,1 21,9.25C21,10.7 20.41,12 19.46,12.96L16.79,15.63L16.09,14.92L18.76,12.25Z" /></svg>