<?xml version="1.0" encoding="utf-8"?>
<!DOCTYPE svg PUBLIC "-//W3C//DTD SVG 1.1//EN" "http://www.w3.org/Graphics/SVG/1.1/DTD/svg11.dtd">
<svg xmlns="http://www.w3.org/2000/svg" xmlns:xlink="http://www.w3.org/1999/xlink" version="1.1" baseProfile="full" width="24" height="24" viewBox="0 0 24.00 24.00" enable-background="new 0 0 24.00 24.00" xml:space="preserve">
	<path fill="#000000" fill-opacity="1" stroke-linejoin="round" d="M 11.5,4C 6.806,4 3,7.806 3,12.5C 3,17.194 6.806,21 11.5,21C 16.194,21 20,17.194 20,12.5C 20,7.806 16.194,4 11.5,4 Z M 11.5,3C 16.747,3 21,7.253 21,12.5C 21,17.747 16.747,22 11.5,22C 6.253,22 2,17.747 2,12.5C 2,7.253 6.253,3 11.5,3 Z M 11,17L 12,17L 12,19L 11,19L 11,17 Z M 11.5,6C 13.433,6 15,7.567 15,9.5C 15,10.397 14.301,11.019 13.561,11.676L 12.626,12.579C 12.038,13.253 11.974,14.534 11.999,14.971L 11.999,15L 11,15C 10.996,14.948 10.898,13.036 11.874,11.921L 12.896,10.929C 13.488,10.403 14,9.948 14,9.5C 14,8.119 12.881,7 11.5,7C 10.119,7 9,8.119 9,9.5L 8,9.5C 8,7.567 9.567,6 11.5,6 Z "/>
</svg>
