<svg xmlns="http://www.w3.org/2000/svg" id="mdil-help-circle" viewBox="0 0 24 24"><path d="M11.5,4A8.5,8.5 0 0,0 3,12.5A8.5,8.5 0 0,0 11.5,21A8.5,8.5 0 0,0 20,12.5A8.5,8.5 0 0,0 11.5,4M11.5,3A9.5,9.5 0 0,1 21,12.5A9.5,9.5 0 0,1 11.5,22A9.5,9.5 0 0,1 2,12.5A9.5,9.5 0 0,1 11.5,3M11,17H12V19H11V17M11.5,6A3.5,3.5 0 0,1 15,9.5C15,10.4 14.3,11 13.56,11.68L12.63,12.58C12.04,13.25 11.97,14.53 12,14.97V15H11C11,14.95 10.9,13.04 11.87,11.92L12.9,10.93C13.5,10.4 14,9.95 14,9.5A2.5,2.5 0 0,0 11.5,7A2.5,2.5 0 0,0 9,9.5H8A3.5,3.5 0 0,1 11.5,6Z" /></svg>