<svg xmlns="http://www.w3.org/2000/svg" id="mdil-image" viewBox="0 0 24 24"><path d="M5,3H18A3,3 0 0,1 21,6V19A3,3 0 0,1 18,22H5A3,3 0 0,1 2,19V6A3,3 0 0,1 5,3M5,4A2,2 0 0,0 3,6V17.59L7.29,13.29L9.79,15.79L14.79,10.79L20,16V6A2,2 0 0,0 18,4H5M9.79,17.21L7.29,14.71L3,19A2,2 0 0,0 5,21H18A2,2 0 0,0 20,19V17.41L14.79,12.21L9.79,17.21M7.5,6A2.5,2.5 0 0,1 10,8.5A2.5,2.5 0 0,1 7.5,11A2.5,2.5 0 0,1 5,8.5A2.5,2.5 0 0,1 7.5,6M7.5,7A1.5,1.5 0 0,0 6,8.5A1.5,1.5 0 0,0 7.5,10A1.5,1.5 0 0,0 9,8.5A1.5,1.5 0 0,0 7.5,7Z" /></svg>