<?xml version="1.0" encoding="utf-8"?>
<!DOCTYPE svg PUBLIC "-//W3C//DTD SVG 1.1//EN" "http://www.w3.org/Graphics/SVG/1.1/DTD/svg11.dtd">
<svg xmlns="http://www.w3.org/2000/svg" xmlns:xlink="http://www.w3.org/1999/xlink" version="1.1" baseProfile="full" width="24" height="24" viewBox="0 0 24.00 24.00" enable-background="new 0 0 24.00 24.00" xml:space="preserve">
	<path fill="#000000" fill-opacity="1" stroke-width="0.2" stroke-linejoin="round" d="M 14,20C 14,21.1046 13.1046,22 12,22L 11,22C 9.89543,22 9,21.1046 9,20L 10,20C 10,20.5523 10.4477,21 11,21L 12,21C 12.5523,21 13,20.5523 13,20L 14,20 Z M 15,17C 15,18.1046 14.1046,19 13,19L 10,19C 8.89543,19 7.99999,18.1046 7.99999,17L 7.99999,14.9782C 6.19584,13.8231 5,11.8012 5,9.5C 5,5.91015 7.91015,3.00001 11.5,3.00001C 15.0898,3.00001 18,5.91016 18,9.5C 18,11.8012 16.8041,13.8231 15,14.9782L 15,17 Z M 8.99999,17C 8.99999,17.5523 9.44771,18 9.99999,18L 13,18C 13.5523,18 14,17.5523 14,17L 14,14.4003C 15.7808,13.4899 17,11.6373 17,9.50001C 17,6.46244 14.5376,4.00001 11.5,4.00001C 8.46243,4.00001 6,6.46244 6,9.50001C 6,11.6374 7.21916,13.4899 9,14.4003L 8.99999,17 Z M 8.12867,10.1213L 10.5,7.75001L 12.5,9.75L 14.25,8L 14.9571,8.70711L 12.5,11.1642L 10.5,9.16422L 8.83578,10.8284L 8.12867,10.1213 Z "/>
</svg>
