<svg xmlns="http://www.w3.org/2000/svg" id="mdil-link-variant" viewBox="0 0 24 24"><path d="M10.73,14.97C11,15.08 11.09,15.38 10.97,15.63C10.85,15.88 10.56,16 10.31,15.87H10.3C9.84,15.66 9.41,15.36 9.03,14.97C7.27,13.22 7.27,10.37 9.03,8.61L12.56,5.08C14.32,3.32 17.17,3.32 18.92,5.08C20.68,6.83 20.68,9.68 18.92,11.44L17.29,13.07L17.14,11.81L18.22,10.73C19.58,9.37 19.58,7.15 18.22,5.78C16.85,4.42 14.63,4.42 13.27,5.78L9.73,9.32C8.37,10.68 8.37,12.9 9.73,14.27C10.03,14.57 10.37,14.8 10.73,14.97V14.97M4.08,19.92C2.32,18.17 2.32,15.32 4.08,13.56L5.71,11.93L5.86,13.19L4.78,14.27C3.42,15.63 3.42,17.85 4.78,19.22C6.15,20.58 8.37,20.58 9.73,19.22L13.27,15.68C14.63,14.32 14.63,12.1 13.27,10.73C12.97,10.43 12.63,10.2 12.27,10.03V10.04C12,9.92 11.91,9.62 12.03,9.37C12.15,9.12 12.44,9 12.69,9.13H12.7C13.16,9.34 13.59,9.64 13.97,10.03C15.73,11.78 15.73,14.63 13.97,16.39L10.44,19.92C8.68,21.68 5.83,21.68 4.08,19.92Z" /></svg>