<?xml version="1.0" encoding="utf-8"?>
<!DOCTYPE svg PUBLIC "-//W3C//DTD SVG 1.1//EN" "http://www.w3.org/Graphics/SVG/1.1/DTD/svg11.dtd">
<svg xmlns="http://www.w3.org/2000/svg" xmlns:xlink="http://www.w3.org/1999/xlink" version="1.1" baseProfile="full" width="24" height="24" viewBox="0 0 24.00 24.00" enable-background="new 0 0 24.00 24.00" xml:space="preserve">
	<path fill="#000000" fill-opacity="1" stroke-width="0.2" stroke-linejoin="round" d="M 7.99999,13L 7.99999,12L 15,12L 15,13L 7.99999,13 Z M 15.5,7C 18.5376,7 21,9.46244 21,12.5C 21,15.5376 18.5376,18 15.5,18L 13,18L 13,17L 15.5,17C 17.9853,17 20,14.9853 20,12.5C 20,10.0147 17.9853,8 15.5,8L 13,8.00001L 13,7.00001L 15.5,7 Z M 7.5,18C 4.46243,18 2,15.5376 2,12.5C 2,9.46244 4.46243,7.00001 7.5,7.00001L 9.99999,7.00001L 9.99999,8.00001L 7.5,8.00001C 5.01472,8.00001 3,10.0147 3,12.5C 3,14.9853 5.01472,17 7.5,17L 9.99999,17L 9.99999,18L 7.5,18 Z "/>
</svg>
