<svg xmlns="http://www.w3.org/2000/svg" id="mdil-lock-open" viewBox="0 0 24 24"><path d="M16,8A3,3 0 0,1 19,11V19A3,3 0 0,1 16,22H7A3,3 0 0,1 4,19V11A3,3 0 0,1 7,8H15V6.5A3.5,3.5 0 0,0 11.5,3C9.74,3 8.28,4.3 8.04,6H7.03C7.28,3.75 9.18,2 11.5,2C14,2 16,4 16,6.5V8M7,9A2,2 0 0,0 5,11V19A2,2 0 0,0 7,21H16A2,2 0 0,0 18,19V11A2,2 0 0,0 16,9H7M11.5,14A1.5,1.5 0 0,0 10,15.5A1.5,1.5 0 0,0 11.5,17A1.5,1.5 0 0,0 13,15.5A1.5,1.5 0 0,0 11.5,14M11.5,13A2.5,2.5 0 0,1 14,15.5A2.5,2.5 0 0,1 11.5,18A2.5,2.5 0 0,1 9,15.5A2.5,2.5 0 0,1 11.5,13Z" /></svg>