<svg xmlns="http://www.w3.org/2000/svg" id="mdil-map-marker" viewBox="0 0 24 24"><path d="M11.5,7A2.5,2.5 0 0,1 14,9.5A2.5,2.5 0 0,1 11.5,12A2.5,2.5 0 0,1 9,9.5A2.5,2.5 0 0,1 11.5,7M11.5,8A1.5,1.5 0 0,0 10,9.5A1.5,1.5 0 0,0 11.5,11A1.5,1.5 0 0,0 13,9.5A1.5,1.5 0 0,0 11.5,8M6.8,12.36L11.5,20.09L16.2,12.36V12.36C16.71,11.5 17,10.55 17,9.5A5.5,5.5 0 0,0 11.5,4A5.5,5.5 0 0,0 6,9.5C6,10.55 6.29,11.5 6.8,12.36V12.36M17.05,12.88L11.5,22L5.95,12.88V12.88C5.35,11.89 5,10.74 5,9.5A6.5,6.5 0 0,1 11.5,3A6.5,6.5 0 0,1 18,9.5C18,10.74 17.65,11.89 17.05,12.88V12.88Z" /></svg>