<svg xmlns="http://www.w3.org/2000/svg" id="mdil-message-processing" viewBox="0 0 24 24"><path d="M3,20.59L6.59,17H18A2,2 0 0,0 20,15V6A2,2 0 0,0 18,4H5A2,2 0 0,0 3,6V20.59M3,22H2V6A3,3 0 0,1 5,3H18A3,3 0 0,1 21,6V15A3,3 0 0,1 18,18H7L3,22M6.5,9A1.5,1.5 0 0,1 8,10.5A1.5,1.5 0 0,1 6.5,12A1.5,1.5 0 0,1 5,10.5A1.5,1.5 0 0,1 6.5,9M6.5,10A0.5,0.5 0 0,0 6,10.5A0.5,0.5 0 0,0 6.5,11A0.5,0.5 0 0,0 7,10.5A0.5,0.5 0 0,0 6.5,10M11.5,9A1.5,1.5 0 0,1 13,10.5A1.5,1.5 0 0,1 11.5,12A1.5,1.5 0 0,1 10,10.5A1.5,1.5 0 0,1 11.5,9M11.5,10A0.5,0.5 0 0,0 11,10.5A0.5,0.5 0 0,0 11.5,11A0.5,0.5 0 0,0 12,10.5A0.5,0.5 0 0,0 11.5,10M16.5,9A1.5,1.5 0 0,1 18,10.5A1.5,1.5 0 0,1 16.5,12A1.5,1.5 0 0,1 15,10.5A1.5,1.5 0 0,1 16.5,9M16.5,10A0.5,0.5 0 0,0 16,10.5A0.5,0.5 0 0,0 16.5,11A0.5,0.5 0 0,0 17,10.5A0.5,0.5 0 0,0 16.5,10Z" /></svg>