<?xml version="1.0" encoding="utf-8"?>
<!DOCTYPE svg PUBLIC "-//W3C//DTD SVG 1.1//EN" "http://www.w3.org/Graphics/SVG/1.1/DTD/svg11.dtd">
<svg xmlns="http://www.w3.org/2000/svg" xmlns:xlink="http://www.w3.org/1999/xlink" version="1.1" baseProfile="full" width="24" height="24" viewBox="0 0 24.00 24.00" enable-background="new 0 0 24.00 24.00" xml:space="preserve">
	<path fill="#000000" fill-opacity="1" stroke-width="0.2" stroke-linejoin="round" d="M 3,20.5858L 6.58578,17L 18,17C 19.1046,17 20,16.1046 20,15L 20,6C 20,4.89543 19.1046,4 18,4L 5,4C 3.89543,4 3,4.89543 3,6L 3,20.5858 Z M 3,22L 2,22L 2,6.00001C 2,4.34315 3.34314,3.00001 5,3.00001L 18,3.00001C 19.6568,3.00001 21,4.34315 21,6.00001L 21,15C 21,16.6569 19.6568,18 18,18L 7,18L 3,22 Z M 6.5,9C 7.32842,9 8,9.67158 8,10.5C 8,11.3284 7.32842,12 6.5,12C 5.67157,12 5,11.3284 5,10.5C 5,9.67158 5.67157,9 6.5,9 Z M 6.5,10C 6.22385,10 6,10.2239 6,10.5C 6,10.7761 6.22385,11 6.5,11C 6.77614,11 7,10.7761 7,10.5C 7,10.2239 6.77614,10 6.5,10 Z M 11.5,9C 12.3284,9 13,9.67158 13,10.5C 13,11.3284 12.3284,12 11.5,12C 10.6716,12 10,11.3284 10,10.5C 10,9.67158 10.6716,9 11.5,9 Z M 11.5,10C 11.2239,10 11,10.2239 11,10.5C 11,10.7761 11.2239,11 11.5,11C 11.7761,11 12,10.7761 12,10.5C 12,10.2239 11.7761,10 11.5,10 Z M 16.5,9C 17.3284,9 18,9.67157 18,10.5C 18,11.3284 17.3284,12 16.5,12C 15.6716,12 15,11.3284 15,10.5C 15,9.67157 15.6716,9 16.5,9 Z M 16.5,10C 16.2239,10 16,10.2239 16,10.5C 16,10.7761 16.2239,11 16.5,11C 16.7761,11 17,10.7761 17,10.5C 17,10.2239 16.7761,10 16.5,10 Z "/>
</svg>
