<svg xmlns="http://www.w3.org/2000/svg" id="mdil-microphone-off" viewBox="0 0 24 24"><path d="M2.79,4.46L3.5,3.75L15.26,15.5L15.97,16.22L20.25,20.5L19.54,21.21L15.19,16.85C14.27,17.5 13.18,17.89 12,18V21H11V18C7.64,17.73 5,14.92 5,11.5V11H6V11.5A5.5,5.5 0 0,0 11.5,17C12.59,17 13.61,16.68 14.47,16.13L12.23,13.89C12,13.96 11.75,14 11.5,14A2.5,2.5 0 0,1 9,11.5V10.66L2.79,4.46M17,11.5V11H18V11.5C18,13 17.5,14.38 16.64,15.5L15.93,14.76C16.6,13.85 17,12.72 17,11.5M11.5,3A2.5,2.5 0 0,1 14,5.5V11.5C14,11.89 13.91,12.26 13.75,12.59L12.97,11.8L13,11.5V5.5A1.5,1.5 0 0,0 11.5,4A1.5,1.5 0 0,0 10,5.5V8.84L9,7.84V5.5A2.5,2.5 0 0,1 11.5,3M10,11.67C10.09,12.36 10.64,12.91 11.33,13L10,11.67Z" /></svg>