<?xml version="1.0" encoding="utf-8"?>
<!DOCTYPE svg PUBLIC "-//W3C//DTD SVG 1.1//EN" "http://www.w3.org/Graphics/SVG/1.1/DTD/svg11.dtd">
<svg xmlns="http://www.w3.org/2000/svg" xmlns:xlink="http://www.w3.org/1999/xlink" version="1.1" baseProfile="full" width="24" height="24" viewBox="0 0 24.00 24.00" enable-background="new 0 0 24.00 24.00" xml:space="preserve">
	<path fill="#000000" fill-opacity="1" stroke-width="0.2" stroke-linejoin="round" d="M 7.99999,6.10434L 19,4.98701L 19,16C 19,17.6568 17.6569,19 16,19C 14.3431,19 13,17.6568 13,16C 13,14.3431 14.3431,13 16,13C 16.7684,13 17.4692,13.2888 18,13.7639L 18,9.04362L 9,10.0372L 9,17C 9,18.6569 7.65685,20 6,20C 4.34315,20 3,18.6569 3,17C 3,15.3431 4.34315,14 6,14C 6.76835,14 7.46924,14.2889 8,14.7639L 7.99999,6.10434 Z M 9,7.00791L 9,9.03115L 18,8.03754L 18,6.09373L 9,7.00791 Z M 8,17C 8,15.8954 7.10457,15 6,15C 4.89543,15 4,15.8954 4,17C 4,18.1046 4.89543,19 6,19C 7.10457,19 8,18.1046 8,17 Z M 18,16C 18,14.8954 17.1046,14 16,14C 14.8954,14 14,14.8954 14,16C 14,17.1046 14.8954,18 16,18C 17.1046,18 18,17.1046 18,16 Z "/>
</svg>
