<svg xmlns="http://www.w3.org/2000/svg" id="mdil-music-off" viewBox="0 0 24 24"><path d="M2.79,4.46L3.5,3.75L20.25,20.5L19.54,21.21L17.12,18.78C16.77,18.92 16.4,19 16,19A3,3 0 0,1 13,16C13,15.6 13.08,15.23 13.22,14.88L9,10.66V17A3,3 0 0,1 6,20A3,3 0 0,1 3,17A3,3 0 0,1 6,14C6.77,14 7.47,14.29 8,14.76V9.66L2.79,4.46M8,6.1L19,5V16C19,16.53 18.86,17.03 18.62,17.46L17.87,16.71C17.95,16.5 18,16.25 18,16A2,2 0 0,0 16,14C15.75,14 15.5,14.05 15.29,14.13L14.54,13.38C14.97,13.14 15.47,13 16,13C16.77,13 17.47,13.29 18,13.76V9.04L11,9.82L10.08,8.91L18,8.04V6.09L9,7V7.84L8,6.84V6.1M14,16A2,2 0 0,0 16,18C16.11,18 16.21,18 16.31,18L14,15.69C14,15.79 14,15.89 14,16M8,17A2,2 0 0,0 6,15A2,2 0 0,0 4,17A2,2 0 0,0 6,19A2,2 0 0,0 8,17Z" /></svg>