<svg xmlns="http://www.w3.org/2000/svg" id="mdil-phone" viewBox="0 0 24 24"><path d="M19.5,22A1.5,1.5 0 0,0 21,20.5V17A1.5,1.5 0 0,0 19.5,15.5C18.33,15.5 17.18,15.32 16.08,14.95C15.55,14.78 14.97,14.92 14.56,15.32L13.12,16.76C10.64,15.41 8.57,13.34 7.23,10.87L8.66,9.44C9.07,9.05 9.22,8.47 9.04,7.91C8.68,6.82 8.5,5.67 8.5,4.5A1.5,1.5 0 0,0 7,3H3.5A1.5,1.5 0 0,0 2,4.5C2,14.15 9.85,22 19.5,22M3.5,4H7A0.5,0.5 0 0,1 7.5,4.5C7.5,5.78 7.7,7.03 8.09,8.22C8.14,8.36 8.13,8.56 7.97,8.72L6,10.68C7.65,13.91 10.07,16.33 13.31,18L15.26,16.03C15.4,15.89 15.59,15.85 15.77,15.9C16.97,16.3 18.22,16.5 19.5,16.5A0.5,0.5 0 0,1 20,17V20.5A0.5,0.5 0 0,1 19.5,21C10.4,21 3,13.6 3,4.5A0.5,0.5 0 0,1 3.5,4Z" /></svg>