<?xml version="1.0" encoding="utf-8"?>
<!DOCTYPE svg PUBLIC "-//W3C//DTD SVG 1.1//EN" "http://www.w3.org/Graphics/SVG/1.1/DTD/svg11.dtd">
<svg xmlns="http://www.w3.org/2000/svg" xmlns:xlink="http://www.w3.org/1999/xlink" version="1.1" baseProfile="full" width="24" height="24" viewBox="0 0 24.00 24.00" enable-background="new 0 0 24.00 24.00" xml:space="preserve">
	<path fill="#000000" fill-opacity="1" stroke-width="0.2" stroke-linejoin="round" d="M 2,4L 10,4C 10,3.44772 10.4477,3 11,3L 12,3C 12.5523,3 13,3.44772 13,4L 21,4L 21,5L 20,5L 20,16L 14.2679,16L 15.8756,22L 14.8404,22L 13.2327,16L 9.76733,16L 8.15963,22L 7.12436,22L 8.73205,16L 3,16L 3,5L 2,5L 2,4 Z M 19,15L 19,5.00001L 4,5.00001L 4,15L 19,15 Z M 10,7L 11,7L 14,10L 11,13L 10,13L 10,7 Z M 11,8.41422L 11,11.5858L 12.5858,10L 11,8.41422 Z "/>
</svg>
