<svg xmlns="http://www.w3.org/2000/svg" id="mdil-share-variant" viewBox="0 0 24 24"><path d="M15.7 6.92L8.81 10.94C8.93 11.27 9 11.63 9 12S8.93 12.73 8.81 13.06L15.7 17.08C16.25 16.42 17.08 16 18 16C19.66 16 21 17.34 21 19S19.66 22 18 22 15 20.66 15 19C15 18.63 15.07 18.27 15.19 17.94L8.3 13.92C7.75 14.58 6.93 15 6 15C4.34 15 3 13.66 3 12S4.34 9 6 9C6.93 9 7.75 9.42 8.3 10.08L15.19 6.06C15.07 5.73 15 5.37 15 5C15 3.34 16.34 2 18 2S21 3.34 21 5 19.66 8 18 8C17.08 8 16.25 7.58 15.7 6.92M18 21C19.11 21 20 20.11 20 19S19.11 17 18 17 16 17.9 16 19 16.9 21 18 21M6 14C7.11 14 8 13.11 8 12S7.11 10 6 10 4 10.9 4 12 4.89 14 6 14M18 7C19.11 7 20 6.11 20 5S19.11 3 18 3 16 3.9 16 5 16.9 7 18 7Z" /></svg>