<svg xmlns="http://www.w3.org/2000/svg" id="mdil-tag" viewBox="0 0 24 24"><path d="M15.62,21.12C14.45,22.29 12.55,22.29 11.38,21.12L3.05,13C2.45,12.45 2,11.63 2,10.75V6A3,3 0 0,1 5,3H9.75C10.63,3 11.45,3.45 12,4.05L20.07,12.43C21.24,13.6 21.24,15.5 20.07,16.67L15.62,21.12M14.91,20.41L19.36,15.96C20.14,15.18 20.14,13.91 19.36,13.13L11.11,4.58C10.78,4.2 10.3,4 9.75,4L4.97,3.97C3.87,3.97 3,4.9 3,6V10.75C3,11.3 3.2,11.78 3.58,12.11L12.08,20.41C12.86,21.19 14.13,21.19 14.91,20.41M6.5,5A2.5,2.5 0 0,1 9,7.5A2.5,2.5 0 0,1 6.5,10A2.5,2.5 0 0,1 4,7.5A2.5,2.5 0 0,1 6.5,5M6.5,6A1.5,1.5 0 0,0 5,7.5A1.5,1.5 0 0,0 6.5,9A1.5,1.5 0 0,0 8,7.5A1.5,1.5 0 0,0 6.5,6Z" /></svg>