<?xml version="1.0" encoding="utf-8"?>
<!DOCTYPE svg PUBLIC "-//W3C//DTD SVG 1.1//EN" "http://www.w3.org/Graphics/SVG/1.1/DTD/svg11.dtd">
<svg xmlns="http://www.w3.org/2000/svg" xmlns:xlink="http://www.w3.org/1999/xlink" version="1.1" baseProfile="full" width="24" height="24" viewBox="0 0 24.00 24.00" enable-background="new 0 0 24.00 24.00" xml:space="preserve">
	<path fill="#000000" fill-opacity="1" stroke-linejoin="round" d="M 8,21L 8,20L 9,20L 9,19L 4,19C 2.34315,19 1,17.6569 1,16L 1,7C 1,5.34315 2.34315,4 4,4L 19,4C 20.6569,4 22,5.34315 22,7L 22,16C 22,17.6569 20.6569,19 19,19L 14,19L 14,20L 15,20L 15,21L 8,21 Z M 10,19L 10,20L 13,20L 13,19L 10,19 Z M 4,5.00001C 2.89543,5.00001 2,5.89544 2,7.00001L 2,16C 2,17.1046 2.89543,18 4,18L 19,18C 20.1046,18 21,17.1046 21,16L 21,7.00001C 21,5.89544 20.1046,5.00001 19,5.00001L 4,5.00001 Z "/>
</svg>
