<svg xmlns="http://www.w3.org/2000/svg" id="mdil-thumbs-up-down" viewBox="0 0 24 24"><path d="M10.9,8.43L11,8A1,1 0 0,0 10,7H4.93L5.85,3.56V3.54C5.94,3.21 5.86,2.84 5.59,2.58L1.59,6.59V6.59C1.22,6.95 1,7.45 1,8V12A2,2 0 0,0 3,14H7C7.8,14 8.5,13.53 8.81,12.86H8.8L10.9,8.43M7,15H3A3,3 0 0,1 0,12V8C0,7.17 0.34,6.42 0.88,5.88L5.59,1.16L6.3,1.87C6.83,2.4 7,3.16 6.81,3.84L6.23,6H10A2,2 0 0,1 12,8C12,8.34 11.92,8.66 11.77,8.94L9.76,13.17C9.31,14.24 8.24,15 7,15M12.1,16.57L12,17A1,1 0 0,0 13,18H18.07L17.15,21.44V21.46C17.06,21.79 17.14,22.16 17.41,22.42L21.42,18.41H21.41C21.78,18.05 22,17.55 22,17V13A2,2 0 0,0 20,11H16C15.2,11 14.5,11.47 14.19,12.14H14.2L12.1,16.57M16,10H20A3,3 0 0,1 23,13V17C23,17.83 22.67,18.58 22.12,19.12L17.41,23.84L16.7,23.13C16.17,22.6 16,21.84 16.19,21.16L16.77,19H13A2,2 0 0,1 11,17C11,16.66 11.09,16.34 11.23,16.06L13.24,11.83C13.69,10.76 14.76,10 16,10Z" /></svg>