<svg xmlns="http://www.w3.org/2000/svg" id="mdil-thumb-down" viewBox="0 0 24 24"><path d="M21,15H18A1,1 0 0,1 17,14V5A1,1 0 0,1 18,4H21A1,1 0 0,1 22,5V14A1,1 0 0,1 21,15M21,14V5H18V14H21M5.28,5.97L2.28,10.97C2.1,11.27 2,11.63 2,12V13A2,2 0 0,0 4,15H9.61L8.15,20.44V20.46C8.06,20.79 8.14,21.16 8.41,21.42L14.42,15.42L14.41,15.41C14.78,15.05 15,14.55 15,14V7A2,2 0 0,0 13,5H7C6.27,5 5.63,5.39 5.28,5.97M1,12C1,11.41 1.17,10.85 1.47,10.39L4.38,5.55C4.89,4.62 5.87,4 7,4H13A3,3 0 0,1 16,7V14C16,14.83 15.67,15.58 15.12,16.12L8.41,22.84L7.7,22.13C7.17,21.6 7,20.84 7.19,20.16L8.31,16H4A3,3 0 0,1 1,13V12Z" /></svg>