<svg xmlns="http://www.w3.org/2000/svg" id="mdil-thumb-up" viewBox="0 0 24 24"><path d="M2,10H5A1,1 0 0,1 6,11V20A1,1 0 0,1 5,21H2A1,1 0 0,1 1,20V11A1,1 0 0,1 2,10M2,11V20H5V11H2M17.72,19.03L20.72,14.03C20.9,13.73 21,13.37 21,13V12A2,2 0 0,0 19,10H13.39L14.85,4.56V4.54C14.94,4.21 14.86,3.84 14.59,3.58L8.59,9.59V9.59C8.22,9.95 8,10.45 8,11V18A2,2 0 0,0 10,20H16C16.73,20 17.37,19.61 17.72,19.03M22,13C22,13.59 21.83,14.15 21.53,14.61L18.62,19.45C18.11,20.38 17.13,21 16,21H10A3,3 0 0,1 7,18V11C7,10.17 7.34,9.42 7.88,8.88L14.59,2.16L15.3,2.87C15.83,3.4 16,4.16 15.81,4.84L14.69,9H19A3,3 0 0,1 22,12V13Z" /></svg>