<?xml version="1.0" encoding="utf-8"?>
<!DOCTYPE svg PUBLIC "-//W3C//DTD SVG 1.1//EN" "http://www.w3.org/Graphics/SVG/1.1/DTD/svg11.dtd">
<svg xmlns="http://www.w3.org/2000/svg" xmlns:xlink="http://www.w3.org/1999/xlink" version="1.1" baseProfile="full" width="24" height="24" viewBox="0 0 24.00 24.00" enable-background="new 0 0 24.00 24.00" xml:space="preserve">
	<path fill="#000000" fill-opacity="1" stroke-width="0.2" stroke-linejoin="round" d="M 5.5,14C 6.70948,14 7.71836,14.8589 7.94999,16L 15,16L 15,6.00001L 4,6.00001C 2.89543,6.00001 2,6.89544 2,8.00001L 2,16L 3.05001,16C 3.28164,14.8589 4.29052,14 5.5,14 Z M 5.5,19C 4.29052,19 3.28165,18.1411 3.05001,17L 0.999999,17L 0.999999,8.00002C 0.999999,6.34316 2.34314,5.00002 4,5.00002L 15,5C 15.5523,5 16,5.44772 16,6L 16,8.00002L 19,8.00002L 22,11.9812L 22,12L 22,17L 19.95,17C 19.7183,18.1411 18.7095,19 17.5,19C 16.2905,19 15.2816,18.1411 15.05,17L 7.94999,17C 7.71835,18.1411 6.70948,19 5.5,19 Z M 5.5,15C 4.67157,15 4,15.6716 4,16.5C 4,17.3284 4.67157,18 5.5,18C 6.32842,18 7,17.3284 7,16.5C 7,15.6716 6.32842,15 5.5,15 Z M 17.5,14C 18.7095,14 19.7184,14.8589 19.95,16L 21,16L 21,12.3158L 20.7621,12L 16,12L 16,14.4998C 16.4178,14.186 16.9372,14 17.5,14 Z M 17.5,15C 16.6716,15 16,15.6716 16,16.5C 16,17.3284 16.6716,18 17.5,18C 18.3284,18 19,17.3284 19,16.5C 19,15.6716 18.3284,15 17.5,15 Z M 16,9.00003L 16,11L 20.0085,11L 18.5014,9.00003L 16,9.00003 Z "/>
</svg>
