<svg xmlns="http://www.w3.org/2000/svg" id="mdil-truck" viewBox="0 0 24 24"><path d="M5.5,14C6.71,14 7.72,14.86 7.95,16H15V6H4A2,2 0 0,0 2,8V16H3.05C3.28,14.86 4.29,14 5.5,14M5.5,19C4.29,19 3.28,18.14 3.05,17H1V8A3,3 0 0,1 4,5H15A1,1 0 0,1 16,6V8H19L22,12V12L22,17H19.95C19.72,18.14 18.71,19 17.5,19C16.29,19 15.28,18.14 15.05,17H7.95C7.72,18.14 6.71,19 5.5,19M5.5,15A1.5,1.5 0 0,0 4,16.5A1.5,1.5 0 0,0 5.5,18A1.5,1.5 0 0,0 7,16.5A1.5,1.5 0 0,0 5.5,15M17.5,14C18.71,14 19.72,14.86 19.95,16H21V12.32L20.76,12H16V14.5C16.42,14.19 16.94,14 17.5,14M17.5,15A1.5,1.5 0 0,0 16,16.5A1.5,1.5 0 0,0 17.5,18A1.5,1.5 0 0,0 19,16.5A1.5,1.5 0 0,0 17.5,15M16,9V11H20L18.5,9H16Z" /></svg>