<svg xmlns="http://www.w3.org/2000/svg" id="mdil-vector-intersection" viewBox="0 0 24 24"><path d="M4,2H5V3H4A2,2 0 0,0 2,5V6H1V5A3,3 0 0,1 4,2M9,2V3H7V2H9M12,2A3,3 0 0,1 15,5V6H14V5A2,2 0 0,0 12,3H11V2H12M15,8V13A3,3 0 0,1 12,16H7V11A3,3 0 0,1 10,8H15M2,10H1V8H2V10M2,13A2,2 0 0,0 4,15H5V16H4A3,3 0 0,1 1,13V12H2V13M8,19A2,2 0 0,0 10,21H11V22H10A3,3 0 0,1 7,19V18H8V19M18,21A2,2 0 0,0 20,19V18H21V19A3,3 0 0,1 18,22H17V21H18M20,11A2,2 0 0,0 18,9H17V8H18A3,3 0 0,1 21,11V12H20V11M21,16H20V14H21V16M13,22V21H15V22H13M12,15A2,2 0 0,0 14,13V9H10A2,2 0 0,0 8,11V15H12Z" /></svg>