<svg xmlns="http://www.w3.org/2000/svg" id="mdil-volume-off" viewBox="0 0 24 24"><path d="M2.79,4.46L3.5,3.75L20.25,20.5L19.54,21.21L17.3,18.97C16.32,19.54 15.2,19.9 14,20V19C14.92,18.91 15.79,18.65 16.57,18.23L15.06,16.72C14.72,16.85 14.37,16.93 14,16.97V15.96C14.09,15.95 14.17,15.94 14.25,15.92L12,13.66V20H10L6,16H2V9H6L6.67,8.33L2.79,4.46M21,12.5C21,14.53 20.19,16.37 18.88,17.72L18.18,17C19.31,15.84 20,14.25 20,12.5C20,9.08 17.36,6.27 14,6V5C17.91,5.27 21,8.53 21,12.5M18,12.5C18,13.7 17.53,14.79 16.76,15.6L16.06,14.89C16.64,14.27 17,13.42 17,12.5C17,10.74 15.7,9.28 14,9.04V8.03C16.25,8.28 18,10.18 18,12.5M15,12.5C15,12.87 14.86,13.21 14.64,13.5L14,12.84V11.09C14.58,11.29 15,11.85 15,12.5M6.41,10H3V15H6.41L10.41,19H11V12.66L7.38,9.04L6.41,10M10,5H12V10.84L11,9.84V6H10.41L8.79,7.63L8.08,6.92L10,5Z" /></svg>