<svg xmlns="http://www.w3.org/2000/svg" id="mdil-wallet" viewBox="0 0 24 24"><path d="M4,3A3,3 0 0,0 1,6V19A3,3 0 0,0 4,22H17A3,3 0 0,0 20,19V17.23C20.63,16.66 21,15.85 21,15V10C21,9.15 20.63,8.34 20,7.77V6A3,3 0 0,0 17,3H4M4,4H17A2,2 0 0,1 19,6V7.17C18.68,7.06 18.34,7 18,7H12A3,3 0 0,0 9,10V15A3,3 0 0,0 12,18H18C18.34,18 18.68,17.94 19,17.83V19A2,2 0 0,1 17,21H4A2,2 0 0,1 2,19V6A2,2 0 0,1 4,4M12,8H18A2,2 0 0,1 20,10V15A2,2 0 0,1 18,17H12A2,2 0 0,1 10,15V10A2,2 0 0,1 12,8M14.5,10A2.5,2.5 0 0,0 12,12.5A2.5,2.5 0 0,0 14.5,15A2.5,2.5 0 0,0 17,12.5A2.5,2.5 0 0,0 14.5,10M14.5,11A1.5,1.5 0 0,1 16,12.5A1.5,1.5 0 0,1 14.5,14A1.5,1.5 0 0,1 13,12.5A1.5,1.5 0 0,1 14.5,11Z" /></svg>