<?xml version="1.0" encoding="utf-8"?>
<!DOCTYPE svg PUBLIC "-//W3C//DTD SVG 1.1//EN" "http://www.w3.org/Graphics/SVG/1.1/DTD/svg11.dtd">
<svg xmlns="http://www.w3.org/2000/svg" xmlns:xlink="http://www.w3.org/1999/xlink" version="1.1" baseProfile="full" width="24" height="24" viewBox="0 0 24.00 24.00" enable-background="new 0 0 24.00 24.00" xml:space="preserve">
	<path fill="#000000" fill-opacity="1" stroke-width="0.2" stroke-linejoin="round" d="M 17,13L 8.74999,13L 12,16.2501L 11.3358,17L 6.83579,12.5L 11.3358,8.00003L 12,8.75003L 8.75001,12L 17,12L 17,13 Z M 2,12.5C 2,7.25329 6.25329,3 11.5,3C 16.7467,3 21,7.2533 21,12.5C 21,17.7467 16.7467,22 11.5,22C 6.25329,22 2,17.7467 2,12.5 Z M 3,12.5C 3,17.1944 6.80558,21 11.5,21C 16.1944,21 20,17.1944 20,12.5C 20,7.80558 16.1944,4 11.5,4C 6.80558,4 3,7.80558 3,12.5 Z "/>
</svg>
