<?xml version="1.0" encoding="utf-8"?>
<!DOCTYPE svg PUBLIC "-//W3C//DTD SVG 1.1//EN" "http://www.w3.org/Graphics/SVG/1.1/DTD/svg11.dtd">
<svg xmlns="http://www.w3.org/2000/svg" xmlns:xlink="http://www.w3.org/1999/xlink" version="1.1" baseProfile="full" width="24" height="24" viewBox="0 0 24.00 24.00" enable-background="new 0 0 24.00 24.00" xml:space="preserve">
	<path fill="#000000" fill-opacity="1" stroke-width="0.2" stroke-linejoin="round" d="M 11,18L 11,9.74999L 7.74993,13L 6.99999,12.3358L 11.5,7.83579L 16,12.3358L 15.25,13L 12,9.75001L 12,18L 11,18 Z M 11.5,3C 16.7467,3 21,7.2533 21,12.5C 21,17.7467 16.7467,22 11.5,22C 6.2533,22 2,17.7467 2,12.5C 2,7.2533 6.25329,3 11.5,3 Z M 11.5,4.00001C 6.80557,4.00001 3,7.80559 3,12.5C 3,17.1944 6.80558,21 11.5,21C 16.1944,21 20,17.1944 20,12.5C 20,7.80559 16.1944,4.00001 11.5,4.00001 Z "/>
</svg>
