<?xml version="1.0" encoding="utf-8"?>
<!DOCTYPE svg PUBLIC "-//W3C//DTD SVG 1.1//EN" "http://www.w3.org/Graphics/SVG/1.1/DTD/svg11.dtd">
<svg xmlns="http://www.w3.org/2000/svg" xmlns:xlink="http://www.w3.org/1999/xlink" version="1.1" baseProfile="full" width="24" height="24" viewBox="0 0 24.00 24.00" enable-background="new 0 0 24.00 24.00" xml:space="preserve">
	<path fill="#000000" fill-opacity="1" stroke-width="0.2" stroke-linejoin="round" d="M 12.0031,6.99999L 12.0031,15.25L 15.2531,12L 16.0031,12.6642L 11.5031,17.1642L 7.00307,12.6642L 7.75308,12L 11.0031,15.25L 11.0031,6.99999L 12.0031,6.99999 Z M 11.503,22C 6.25634,22 2.00305,17.7467 2.00305,12.5C 2.00305,7.25329 6.25634,2.99999 11.503,2.99999C 16.7497,2.99999 21.003,7.25329 21.003,12.5C 21.003,17.7467 16.7498,22 11.503,22 Z M 11.5031,21C 16.1975,21 20.003,17.1944 20.003,12.5C 20.003,7.80557 16.1975,3.99999 11.5031,3.99999C 6.80863,3.99999 3.00305,7.80557 3.00305,12.5C 3.00305,17.1944 6.80863,21 11.5031,21 Z "/>
</svg>
