<?xml version="1.0" encoding="utf-8"?>
<!DOCTYPE svg PUBLIC "-//W3C//DTD SVG 1.1//EN" "http://www.w3.org/Graphics/SVG/1.1/DTD/svg11.dtd">
<svg xmlns="http://www.w3.org/2000/svg" xmlns:xlink="http://www.w3.org/1999/xlink" version="1.1" baseProfile="full" width="24" height="24" viewBox="0 0 24.00 24.00" enable-background="new 0 0 24.00 24.00" xml:space="preserve">
	<path fill="#000000" fill-opacity="1" stroke-width="0.2" stroke-linejoin="round" d="M 2.79289,4.45711L 3.5,3.75L 20.25,20.5L 19.5429,21.2071L 17.3358,19L 3,19L 6,16L 5.99999,10.5C 5.99999,9.66999 6.18385,8.88291 6.51307,8.17728L 2.79289,4.45711 Z M 12,4.50001C 12,4.22386 11.7761,4.00001 11.5,4.00001C 11.2239,4.00001 11,4.22386 11,4.5L 11,6.02748C 9.99766,6.13828 9.09455,6.57828 8.40118,7.23697L 7.69388,6.52967C 8.33409,5.91579 9.12247,5.45524 10,5.20704L 10,4.50002C 10,3.6716 10.6716,3.00003 11.5,3.00002C 12.3284,3.00003 13,3.6716 13,4.50002L 13,5.20704C 15.3085,5.85997 17,7.98246 17,10.5L 17,15.8358L 16,14.8358L 16,10.5C 16,8.18372 14.25,6.2762 12,6.02748L 12,4.50001 Z M 6.99999,10.5L 6.99999,16.4142L 5.41421,18L 16.3358,18L 7.27721,8.94143C 7.09791,9.42705 6.99999,9.95209 6.99999,10.5 Z M 11.5,22C 10.2905,22 9.28164,21.1411 9.05001,20L 10.0853,20C 10.2913,20.5826 10.8469,21 11.5,21C 12.1531,21 12.7087,20.5826 12.9146,20L 13.95,20C 13.7183,21.1411 12.7095,22 11.5,22 Z "/>
</svg>
