<?xml version="1.0" encoding="utf-8"?>
<!DOCTYPE svg PUBLIC "-//W3C//DTD SVG 1.1//EN" "http://www.w3.org/Graphics/SVG/1.1/DTD/svg11.dtd">
<svg xmlns="http://www.w3.org/2000/svg" xmlns:xlink="http://www.w3.org/1999/xlink" version="1.1" baseProfile="full" width="24" height="24" viewBox="0 0 24.00 24.00" enable-background="new 0 0 24.00 24.00" xml:space="preserve">
	<path fill="#000000" fill-opacity="1" stroke-width="0.2" stroke-linejoin="round" d="M 7,3L 16,3C 17.6569,3 19,4.34315 19,6L 19,19C 19,20.6569 17.6569,22 16,22L 7,22C 5.34314,22 4,20.6569 4,19L 4,6C 4,4.34315 5.34314,3 7,3 Z M 7,4.00001C 5.89543,4.00001 5,4.89544 5,6.00001L 5,19C 5,20.1046 5.89543,21 7,21L 16,21C 17.1046,21 18,20.1046 18,19L 18,6.00001C 18,4.89544 17.1046,4.00001 16,4.00001L 13,4.00001L 13,10.7002L 9.99999,8.59959L 6.99999,10.7002L 7,4.00001 Z M 12,4.00001L 8,4.00001L 7.99999,8.77923L 10,7.37882L 12,8.77923L 12,4.00001 Z M 9.00001,19L 9.00001,17L 7.00002,17L 7.00002,16L 9.00001,16L 9.00001,14L 10,14L 10,16L 12,16L 12,17L 10,17L 10,19L 9.00001,19 Z "/>
</svg>
