<?xml version="1.0" encoding="utf-8"?>
<!DOCTYPE svg PUBLIC "-//W3C//DTD SVG 1.1//EN" "http://www.w3.org/Graphics/SVG/1.1/DTD/svg11.dtd">
<svg xmlns="http://www.w3.org/2000/svg" xmlns:xlink="http://www.w3.org/1999/xlink" version="1.1" baseProfile="full" width="24" height="24" viewBox="0 0 24.00 24.00" enable-background="new 0 0 24.00 24.00" xml:space="preserve">
	<path fill="#000000" fill-opacity="1" stroke-width="0.2" stroke-linejoin="round" d="M 19,21L 19,13L 18,13L 18,12L 19,12L 19,4L 20,4L 20,21L 19,21 Z M 17,4.00005L 17,5.00005L 15,5.00005L 15,4.00005L 17,4.00005 Z M 13,20L 13,21L 10,21L 10,20L 11,20L 11,19L 12,19L 12,20L 13,20 Z M 17,20L 17,21L 15,21L 15,20L 17,20 Z M 12,12L 12,13L 11,13L 11,12L 12,12 Z M 4,21L 3,21L 3,20L 4,20L 4,21 Z M 6,21L 6,20L 8,20L 8,21L 6,21 Z M 4,9.00003L 3,9.00003L 3,7.00003L 4,7.00003L 4,9.00003 Z M 4,18L 3,18L 3,16L 4,16L 4,18 Z M 4,14L 3,14L 3,11L 4,11L 4,12L 4.99999,12L 4.99999,13L 4,13L 4,14 Z M 13,5.00002L 12,5.00002L 12,6.00002L 11,6.00002L 11,5.00002L 9.99999,5.00002L 9.99999,4.00002L 13,4.00002L 13,5.00002 Z M 8,4.00002L 8,5.00002L 6,5.00002L 6,4.00002L 8,4.00002 Z M 4,5.00002L 3,5.00002L 3,4.00002L 4,4.00002L 4,5.00002 Z M 12,10L 11,10L 11,8.00001L 12,8.00001L 12,10 Z M 16,12L 16,13L 14,13L 14,12L 16,12 Z M 8.99999,12L 8.99999,13L 6.99999,13L 6.99999,12L 8.99999,12 Z M 12,17L 11,17L 11,15L 12,15L 12,17 Z "/>
</svg>
