<?xml version="1.0" encoding="utf-8"?>
<!DOCTYPE svg PUBLIC "-//W3C//DTD SVG 1.1//EN" "http://www.w3.org/Graphics/SVG/1.1/DTD/svg11.dtd">
<svg xmlns="http://www.w3.org/2000/svg" xmlns:xlink="http://www.w3.org/1999/xlink" version="1.1" baseProfile="full" width="24" height="24" viewBox="0 0 24.00 24.00" enable-background="new 0 0 24.00 24.00" xml:space="preserve">
	<path fill="#000000" fill-opacity="1" stroke-width="0.2" stroke-linejoin="round" d="M 17,4.00002L 17,5.00002L 15,5.00002L 15,4.00002L 17,4.00002 Z M 13,20L 13,21L 10,21L 10,20L 11,20L 11,13L 4,13L 4,14L 3,14L 3,11L 4,11L 4,12L 11,12L 11,5.00003L 9.99999,5.00003L 9.99999,4.00003L 13,4.00003L 13,5.00003L 12,5.00003L 12,12L 19,12L 19,11L 20,11L 20,14L 19,14L 19,13L 12,13L 12,20L 13,20 Z M 17,20L 17,21L 15,21L 15,20L 17,20 Z M 4,21L 3,21L 3,20L 4,20L 4,21 Z M 6,21L 6,20L 7.99999,20L 7.99999,21L 6,21 Z M 4,9.00003L 3,9.00003L 3,7.00003L 4,7.00003L 4,9.00003 Z M 4,18L 3,18L 3,16L 4,16L 4,18 Z M 7.99999,4.00002L 7.99999,5.00002L 5.99999,5.00002L 5.99999,4.00002L 7.99999,4.00002 Z M 3.99999,5.00002L 2.99999,5.00002L 2.99999,4.00002L 3.99999,4.00002L 3.99999,5.00002 Z M 19,21L 19,20L 20,20L 20,21L 19,21 Z M 19,9.00002L 19,7.00002L 20,7.00002L 20,9.00002L 19,9.00002 Z M 19,18L 19,16L 20,16L 20,18L 19,18 Z M 19,5.00001L 19,4.00001L 20,4.00001L 20,5.00001L 19,5.00001 Z "/>
</svg>
