<?xml version="1.0" encoding="utf-8"?>
<!DOCTYPE svg PUBLIC "-//W3C//DTD SVG 1.1//EN" "http://www.w3.org/Graphics/SVG/1.1/DTD/svg11.dtd">
<svg xmlns="http://www.w3.org/2000/svg" xmlns:xlink="http://www.w3.org/1999/xlink" version="1.1" baseProfile="full" width="24" height="24" viewBox="0 0 24.00 24.00" enable-background="new 0 0 24.00 24.00" xml:space="preserve">
	<path fill="#000000" fill-opacity="1" stroke-width="0.2" stroke-linejoin="round" d="M 11.5,8C 13.9853,8 16,10.0147 16,12.5C 16,14.9853 13.9853,17 11.5,17C 9.01472,17 7,14.9853 7,12.5C 7,10.0147 9.01472,8 11.5,8 Z M 11.5,9.00001C 9.567,9.00001 8,10.567 8,12.5C 8,14.433 9.567,16 11.5,16C 13.433,16 15,14.433 15,12.5C 15,10.567 13.433,9.00001 11.5,9.00001 Z M 5,5.00001L 6.99999,5.00001L 9,3.00001L 14,3.00001L 16,5.00001L 18,5.00001C 19.6568,5.00001 21,6.34315 21,8.00001L 21,17C 21,18.6569 19.6568,20 18,20L 5,20C 3.34314,20 2,18.6569 2,17L 2,8.00001C 2,6.34315 3.34314,5.00001 5,5.00001 Z M 9.4142,4.00001L 7.4142,6.00001L 5,6.00001C 3.89543,6.00001 3,6.89544 3,8.00001L 3,17C 3,18.1046 3.89543,19 5,19L 18,19C 19.1046,19 20,18.1046 20,17L 20,8.00001C 20,6.89544 19.1046,6.00001 18,6.00001L 15.5858,6.00001L 13.5858,4.00001L 9.4142,4.00001 Z "/>
</svg>
