<?xml version="1.0" encoding="utf-8"?>
<!DOCTYPE svg PUBLIC "-//W3C//DTD SVG 1.1//EN" "http://www.w3.org/Graphics/SVG/1.1/DTD/svg11.dtd">
<svg xmlns="http://www.w3.org/2000/svg" xmlns:xlink="http://www.w3.org/1999/xlink" version="1.1" baseProfile="full" width="24" height="24" viewBox="0 0 24.00 24.00" enable-background="new 0 0 24.00 24.00" xml:space="preserve">
	<path fill="#000000" fill-opacity="1" stroke-width="0.2" stroke-linejoin="round" d="M 3,4L 4,4L 4,13L 7,13L 7,7L 8,7L 12,7L 12,11L 16,11L 16,15L 20,15L 20,21L 3,21L 3,4 Z M 16,16L 16,20L 19,20L 19,16L 16,16 Z M 12,12L 12,20L 15,20L 15,12L 12,12 Z M 8,8.00001L 8,20L 11,20L 11,8.00001L 8,8.00001 Z M 4,14L 4,20L 6.99999,20L 6.99999,14L 4,14 Z "/>
</svg>
