<?xml version="1.0" encoding="utf-8"?>
<!DOCTYPE svg PUBLIC "-//W3C//DTD SVG 1.1//EN" "http://www.w3.org/Graphics/SVG/1.1/DTD/svg11.dtd">
<svg xmlns="http://www.w3.org/2000/svg" xmlns:xlink="http://www.w3.org/1999/xlink" version="1.1" baseProfile="full" width="24" height="24" viewBox="0 0 24.00 24.00" enable-background="new 0 0 24.00 24.00" xml:space="preserve">
	<path fill="#000000" fill-opacity="1" stroke-width="0.2" stroke-linejoin="round" d="M 5,3.00002L 18,3.00003C 19.6568,3.00003 21,4.34316 21,6.00002L 21,15C 21,16.6569 19.6568,18 18,18L 13.4142,18L 9.7071,21.7071C 9.52614,21.8881 9.27614,22 9,22C 8.44771,22 8,21.5523 8,21L 8,18L 5,18C 3.34315,18 2,16.6569 2,15L 2,6.00001C 2,4.34316 3.34314,3.00002 5,3.00002 Z M 18,4.00003L 4.99999,4.00002C 3.89542,4.00002 2.99999,4.89546 2.99999,6.00002L 3,15C 3,16.1046 3.89543,17 5,17L 9,17L 9,21L 13,17L 18,17C 19.1045,17 20,16.1046 20,15L 20,6.00003C 20,4.89546 19.1045,4.00003 18,4.00003 Z M 5,7.00001L 18,7.00001L 18,8.00001L 5,8.00001L 5,7.00001 Z M 5,10L 17,10L 17,11L 5,11L 5,10 Z M 5,13L 13,13L 13,14L 5,14L 5,13 Z "/>
</svg>
