<?xml version="1.0" encoding="utf-8"?>
<!DOCTYPE svg PUBLIC "-//W3C//DTD SVG 1.1//EN" "http://www.w3.org/Graphics/SVG/1.1/DTD/svg11.dtd">
<svg xmlns="http://www.w3.org/2000/svg" xmlns:xlink="http://www.w3.org/1999/xlink" version="1.1" baseProfile="full" width="24" height="24" viewBox="0 0 24.00 24.00" enable-background="new 0 0 24.00 24.00" xml:space="preserve">
	<path fill="#000000" fill-opacity="1" stroke-width="0.2" stroke-linejoin="round" d="M 11.5,1C 12.7095,1 13.7184,1.85888 13.95,3L 17,3C 18.6569,3 20,4.34315 20,6L 20,19C 20,20.6569 18.6569,22 17,22L 6,22C 4.34315,22 3,20.6569 3,19L 3,6C 3,4.34315 4.34315,3 6,3L 9.05001,3C 9.28165,1.85888 10.2905,1 11.5,1 Z M 12.9146,3.00001C 12.7087,2.41742 12.1531,2.00002 11.5,2.00002C 10.8469,2.00002 10.2913,2.41742 10.0854,3.00001L 12.9146,3.00001 Z M 6,4.00001C 4.89543,4.00001 4,4.89544 4,6.00001L 4,19C 4,20.1046 4.89543,21 6,21L 17,21C 18.1046,21 19,20.1046 19,19L 19,6.00001C 19,4.89544 18.1046,4.00001 17,4.00001L 16,4L 16,7L 7,7.00001L 7,4.00001L 6,4.00001 Z M 8,4.00001L 8,6L 15,6L 15,4L 8,4.00001 Z "/>
</svg>
