<?xml version="1.0" encoding="utf-8"?>
<!DOCTYPE svg PUBLIC "-//W3C//DTD SVG 1.1//EN" "http://www.w3.org/Graphics/SVG/1.1/DTD/svg11.dtd">
<svg xmlns="http://www.w3.org/2000/svg" xmlns:xlink="http://www.w3.org/1999/xlink" version="1.1" baseProfile="full" width="24" height="24" viewBox="0 0 24.00 24.00" enable-background="new 0 0 24.00 24.00" xml:space="preserve">
	<path fill="#000000" fill-opacity="1" stroke-width="0.2" stroke-linejoin="round" d="M 9,6.00006L 17,6.00002C 18.6569,6.00002 20,7.34316 20,9.00001L 20,20C 20,21.6568 18.6569,23 17,23L 9,23C 7.34315,23 6,21.6569 6,20L 6,19L 7,19L 7,20C 7,21.1046 7.89543,22 9,22L 17,22C 18.1046,22 19,21.1046 19,20L 19,9.00001C 19,7.89544 18.1046,7.00001 17,7.00001L 9,7.00006C 7.89543,7.00006 7,7.89548 7,9.00003L 7,14L 6,14L 6,9.00003C 6,7.3432 7.34314,6.00006 9,6.00006 Z M 5,2.00001L 15,2.00001L 15,3L 5,3C 3.89543,3 3,3.89543 3,5L 3,14C 3,15.1046 3.89543,16 5,16L 12.25,16L 9.99997,13.75L 10.6642,13L 14.1642,16.5L 10.6642,20L 9.99997,19.25L 12.25,17L 5,17C 3.34314,17 2,15.6569 2,14L 2,5.00001C 2,3.34315 3.34314,2.00001 5,2.00001 Z "/>
</svg>
