<?xml version="1.0" encoding="utf-8"?>
<!DOCTYPE svg PUBLIC "-//W3C//DTD SVG 1.1//EN" "http://www.w3.org/Graphics/SVG/1.1/DTD/svg11.dtd">
<svg xmlns="http://www.w3.org/2000/svg" xmlns:xlink="http://www.w3.org/1999/xlink" version="1.1" baseProfile="full" width="24" height="24" viewBox="0 0 24.00 24.00" enable-background="new 0 0 24.00 24.00" xml:space="preserve">
	<path fill="#000000" fill-opacity="1" stroke-width="0.2" stroke-linejoin="round" d="M 6.00001,4L 16.5858,4L 20,7.41422L 20,18C 20,19.6569 18.6569,21 17,21L 6.00001,21C 4.34315,21 3.00001,19.6569 3.00001,18L 3.00001,7C 3.00001,5.34315 4.34315,4 6.00001,4 Z M 6,5.00001C 4.89543,5.00001 4,5.89544 4,7.00001L 4,18C 4,19.1046 4.89543,20 6,20L 17,20C 18.1046,20 19,19.1046 19,18L 19,7.91421L 16.0858,5.00001L 15,5L 15,9L 15,10L 6,10L 6,9.00001L 6,5.00001 Z M 7,5.00001L 7,9.00001L 14,9L 14,5L 7,5.00001 Z M 12,12C 13.6568,12 15,13.3432 15,15C 15,16.6569 13.6568,18 12,18C 10.3431,18 8.99999,16.6569 8.99999,15C 8.99999,13.3432 10.3431,12 12,12 Z M 12,13C 10.8954,13 9.99999,13.8954 9.99999,15C 9.99999,16.1046 10.8954,17 12,17C 13.1046,17 14,16.1046 14,15C 14,13.8954 13.1046,13 12,13 Z "/>
</svg>
