<?xml version="1.0" encoding="utf-8"?>
<!DOCTYPE svg PUBLIC "-//W3C//DTD SVG 1.1//EN" "http://www.w3.org/Graphics/SVG/1.1/DTD/svg11.dtd">
<svg xmlns="http://www.w3.org/2000/svg" xmlns:xlink="http://www.w3.org/1999/xlink" version="1.1" baseProfile="full" width="24" height="24" viewBox="0 0 24.00 24.00" enable-background="new 0 0 24.00 24.00" xml:space="preserve">
	<path fill="#000000" fill-opacity="1" stroke-width="0.2" stroke-linejoin="round" d="M 6,4L 8,4L 8,5.00001L 6,5.00001C 4.89543,5.00001 4,5.89544 4,7.00001L 4,9L 3,9L 3,7C 3,5.34315 4.34315,4 6,4 Z M 4,18C 4,19.1046 4.89543,20 6,20L 8,20L 8,21L 6,21C 4.34314,21 3,19.6569 3,18L 3,16L 4,16L 4,18 Z M 17,4C 18.6569,4 20,5.34315 20,7L 20,9L 19,9L 19,7.00001C 19,5.89544 18.1046,5.00001 17,5.00001L 15,5.00002L 15,4.00001L 17,4 Z M 20,18C 20,19.6569 18.6569,21 17,21L 15,21L 15,20L 17,20C 18.1046,20 19,19.1046 19,18L 19,16L 20,16L 20,18 Z "/>
</svg>
