<?xml version="1.0" encoding="utf-8"?>
<!DOCTYPE svg PUBLIC "-//W3C//DTD SVG 1.1//EN" "http://www.w3.org/Graphics/SVG/1.1/DTD/svg11.dtd">
<svg xmlns="http://www.w3.org/2000/svg" xmlns:xlink="http://www.w3.org/1999/xlink" version="1.1" baseProfile="full" width="24" height="24" viewBox="0 0 24.00 24.00" enable-background="new 0 0 24.00 24.00" xml:space="preserve">
	<path fill="#000000" fill-opacity="1" stroke-linejoin="round" d="M 6,3L 17,3L 20.902,8.5726L 11.5,22L 2.09803,8.5726L 6,3 Z M 10.1619,4L 8.46399,8L 14.536,8L 12.8381,4L 10.1619,4 Z M 8.3275,9L 11.5,18.7639L 14.6725,9L 8.3275,9 Z M 3.71974,8L 7.37762,8L 9.07552,4L 6.52057,4L 3.71974,8 Z M 3.61807,9L 10.4431,18.7471L 7.27604,9L 3.61807,9 Z M 19.2803,8L 16.4794,4L 13.9245,4L 15.6224,8L 19.2803,8 Z M 19.3819,9L 15.724,9L 12.5569,18.7471L 19.3819,9 Z "/>
</svg>
