<?xml version="1.0" encoding="utf-8"?>
<!DOCTYPE svg PUBLIC "-//W3C//DTD SVG 1.1//EN" "http://www.w3.org/Graphics/SVG/1.1/DTD/svg11.dtd">
<svg xmlns="http://www.w3.org/2000/svg" xmlns:xlink="http://www.w3.org/1999/xlink" version="1.1" baseProfile="full" width="24" height="24" viewBox="0 0 24.00 24.00" enable-background="new 0 0 24.00 24.00" xml:space="preserve">
	<path fill="#000000" fill-opacity="1" stroke-width="0.2" stroke-linejoin="round" d="M 12,16C 13.1046,16 14,16.8954 14,18C 14,19.1046 13.1046,20 12,20C 10.8954,20 10,19.1046 10,18C 10,16.8954 10.8954,16 12,16 Z M 12,10C 13.1046,10 14,10.8954 14,12C 14,13.1046 13.1046,14 12,14C 10.8954,14 10,13.1046 10,12C 10,10.8954 10.8954,10 12,10 Z M 12,4.00001C 13.1046,4.00001 14,4.89544 14,6.00001C 14,7.10458 13.1046,8.00001 12,8.00001C 10.8954,8.00001 10,7.10458 10,6.00001C 10,4.89544 10.8954,4.00001 12,4.00001 Z M 12,5.00001C 11.4477,5.00001 11,5.44772 11,6.00001C 11,6.55229 11.4477,7.00001 12,7.00001C 12.5523,7.00001 13,6.55229 13,6.00001C 13,5.44772 12.5523,5.00001 12,5.00001 Z M 12,11C 11.4477,11 11,11.4477 11,12C 11,12.5523 11.4477,13 12,13C 12.5523,13 13,12.5523 13,12C 13,11.4477 12.5523,11 12,11 Z M 12,17C 11.4477,17 11,17.4477 11,18C 11,18.5523 11.4477,19 12,19C 12.5523,19 13,18.5523 13,18C 13,17.4477 12.5523,17 12,17 Z "/>
</svg>
