<?xml version="1.0" encoding="utf-8"?>
<!DOCTYPE svg PUBLIC "-//W3C//DTD SVG 1.1//EN" "http://www.w3.org/Graphics/SVG/1.1/DTD/svg11.dtd">
<svg xmlns="http://www.w3.org/2000/svg" xmlns:xlink="http://www.w3.org/1999/xlink" version="1.1" baseProfile="full" width="24" height="24" viewBox="0 0 24.00 24.00" enable-background="new 0 0 24.00 24.00" xml:space="preserve">
	<path fill="#000000" fill-opacity="1" stroke-width="0.2" stroke-linejoin="round" d="M 6.99999,3L 16,3C 17.6569,3 19,4.34315 19,6L 19,19C 19,20.6569 17.6569,22 16,22L 6.99999,22C 5.34314,22 3.99999,20.6569 3.99999,19L 3.99999,6C 3.99999,4.34315 5.34314,3 6.99999,3 Z M 7,4.00001C 5.89543,4.00001 5,4.89544 5,6.00001L 5,19C 5,20.1046 5.89543,21 7,21L 16,21C 17.1046,21 18,20.1046 18,19L 18,6.00001C 18,4.89544 17.1046,4.00001 16,4.00001L 7,4.00001 Z M 6.99999,5.00001L 16,5.00001C 16.5523,5.00001 17,5.44773 17,6.00001L 17,18C 17,18.5523 16.5523,19 16,19L 6.99999,19C 6.44771,19 5.99999,18.5523 5.99999,18L 5.99999,6.00001C 5.99999,5.44773 6.44771,5.00001 6.99999,5.00001 Z M 7,6.00001L 7,18L 16,18L 16,6.00001L 7,6.00001 Z M 9,8L 14,8L 14,9L 9,9L 9,8 Z M 9,11L 14,11L 14,12L 9,12L 9,11 Z M 9,14L 12,14L 12,15L 9,15L 9,14 Z "/>
</svg>
