<?xml version="1.0" encoding="utf-8"?>
<!DOCTYPE svg PUBLIC "-//W3C//DTD SVG 1.1//EN" "http://www.w3.org/Graphics/SVG/1.1/DTD/svg11.dtd">
<svg xmlns="http://www.w3.org/2000/svg" xmlns:xlink="http://www.w3.org/1999/xlink" version="1.1" baseProfile="full" width="24" height="24" viewBox="0 0 24.00 24.00" enable-background="new 0 0 24.00 24.00" xml:space="preserve">
	<path fill="#000000" fill-opacity="1" stroke-width="0.2" stroke-linejoin="round" d="M 2.54289,4.70711L 3.25,4L 20,20.75L 19.2929,21.4571L 15.9452,18.1094C 14.5777,18.683 13.0758,19 11.5,19C 6.94066,19 3.00102,16.3467 1.14091,12.5C 2.10647,10.5032 3.63235,8.82803 5.51437,7.67858L 2.54289,4.70711 Z M 11.5,18C 12.7928,18 14.031,17.7664 15.1748,17.339L 14.0465,16.2107C 13.3223,16.7086 12.4452,17 11.5,17C 9.01472,17 7,14.9853 7,12.5C 7,11.5548 7.29142,10.6777 7.78931,9.95352L 6.24398,8.4082C 4.57001,9.37802 3.18863,10.7969 2.26462,12.5C 4.04188,15.7758 7.5112,18 11.5,18 Z M 20.7354,12.5C 18.9581,9.22419 15.4888,7 11.5,7C 10.3453,7 9.23413,7.18639 8.19494,7.53073L 7.41201,6.7478C 8.68223,6.26459 10.0602,6 11.5,6C 16.0593,6 19.999,8.65328 21.8591,12.5C 20.9465,14.3873 19.5333,15.9873 17.7919,17.1277L 17.068,16.4038C 18.6017,15.4426 19.8694,14.0961 20.7354,12.5 Z M 11.5,8C 13.9853,8 16,10.0147 16,12.5C 16,13.3154 15.7831,14.0801 15.4039,14.7397L 14.6635,13.9993C 14.8793,13.5449 15,13.0365 15,12.5C 15,10.567 13.433,9.00001 11.5,9.00001C 10.9635,9.00001 10.4551,9.12073 10.0007,9.33649L 9.26029,8.59608C 9.91985,8.21688 10.6846,8 11.5,8 Z M 8,12.5C 8,14.433 9.567,16 11.5,16C 12.1682,16 12.7926,15.8128 13.3237,15.4879L 8.51209,10.6763C 8.18723,11.2074 8,11.8318 8,12.5 Z "/>
</svg>
