<?xml version="1.0" encoding="utf-8"?>
<!DOCTYPE svg PUBLIC "-//W3C//DTD SVG 1.1//EN" "http://www.w3.org/Graphics/SVG/1.1/DTD/svg11.dtd">
<svg xmlns="http://www.w3.org/2000/svg" xmlns:xlink="http://www.w3.org/1999/xlink" version="1.1" baseProfile="full" width="24" height="24" viewBox="0 0 24.00 24.00" enable-background="new 0 0 24.00 24.00" xml:space="preserve">
	<path fill="#000000" fill-opacity="1" stroke-width="0.2" stroke-linejoin="round" d="M 14,11C 12.3431,11 11,9.65686 11,8L 11,4.00001L 7,4.00001C 5.89543,4.00001 5,4.89544 5,6.00001L 5,19C 5,20.1046 5.89543,21 7,21L 16,21C 17.1046,21 18,20.1046 18,19L 18,11L 14,11 Z M 12,8C 12,9.10457 12.8954,10 14,10L 17.5858,10L 12,4.41421L 12,8 Z M 7,3L 12,3.00001L 19,10L 19,19C 19,20.6569 17.6569,22 16,22L 7,22C 5.34314,22 4,20.6569 4,19L 4,6C 4,4.34315 5.34314,3 7,3 Z "/>
</svg>
