<?xml version="1.0" encoding="utf-8"?>
<!DOCTYPE svg PUBLIC "-//W3C//DTD SVG 1.1//EN" "http://www.w3.org/Graphics/SVG/1.1/DTD/svg11.dtd">
<svg xmlns="http://www.w3.org/2000/svg" xmlns:xlink="http://www.w3.org/1999/xlink" version="1.1" baseProfile="full" width="24" height="24" viewBox="0 0 24.00 24.00" enable-background="new 0 0 24.00 24.00" xml:space="preserve">
	<path fill="#000000" fill-opacity="1" stroke-width="0.2" stroke-linejoin="round" d="M 13,6.00001L 14,6.00001L 14,5.00001C 14,4.44772 13.5523,4.00001 13,4.00001L 10,4.00001C 9.44771,4.00001 9,4.44772 9,5.00001L 9,6.00001L 10,6.00001L 10,8.07181L 4.28544,17.9697C 4.10423,18.2706 4,18.6231 4,19C 4,20.1046 4.89543,21 6,21L 17,21C 18.1046,21 19,20.1046 19,19C 19,18.6232 18.8958,18.2707 18.7146,17.9698L 13,8.07181L 13,6.00001 Z M 5.99999,22C 4.34314,22 3,20.6569 3,19C 3,18.3969 3.17795,17.8354 3.48423,17.3651L 8.99999,7.81149L 8.99999,7.00003C 8.4477,7.00003 7.99999,6.55232 7.99999,6.00003L 7.99999,5.00003C 7.99999,3.89547 8.89542,3.00005 9.99999,3.00005L 13,3.00005C 14.1045,3.00005 15,3.89546 15,5.00003L 15,6.00002C 15,6.55231 14.5523,7.00003 14,7.00003L 14,7.81149L 19.5157,17.3651C 19.822,17.8354 20,18.3969 20,19C 20,20.6568 18.6568,22 17,22L 5.99999,22 Z M 12.2937,15.2921L 13.9202,13.6656L 17,19L 6,19L 9.66087,12.6592L 12.2937,15.2921 Z M 12.2937,16.7063L 9.87528,14.2878L 7.73205,18L 15.268,18L 13.7058,15.2942L 12.2937,16.7063 Z M 12,10C 12.5523,10 13,10.4477 13,11C 13,11.5523 12.5523,12 12,12C 11.4477,12 11,11.5523 11,11C 11,10.4477 11.4477,10 12,10 Z "/>
</svg>
