<?xml version="1.0" encoding="utf-8"?>
<!DOCTYPE svg PUBLIC "-//W3C//DTD SVG 1.1//EN" "http://www.w3.org/Graphics/SVG/1.1/DTD/svg11.dtd">
<svg xmlns="http://www.w3.org/2000/svg" xmlns:xlink="http://www.w3.org/1999/xlink" version="1.1" baseProfile="full" width="24" height="24" viewBox="0 0 24.00 24.00" enable-background="new 0 0 24.00 24.00" xml:space="preserve">
	<path fill="#000000" fill-opacity="1" stroke-width="0.2" stroke-linejoin="round" d="M 20,18L 20,19L 7,19L 7,18L 20,18 Z M 20,12L 20,13L 7,13L 7,12L 20,12 Z M 20,6.00001L 20,7.00001L 7,7.00001L 7,6.00001L 20,6.00001 Z M 2,5L 5,5L 5,8L 2,8L 2,5 Z M 3,6.00001L 3,7.00001L 4,7.00001L 4,6.00001L 3,6.00001 Z M 2,11L 5,11L 5,14L 2,14L 2,11 Z M 3,12L 3,13L 4,13L 4,12L 3,12 Z M 2,17L 5,17L 5,20L 2,20L 2,17 Z M 3,18L 3,19L 4,19L 4,18L 3,18 Z "/>
</svg>
