<?xml version="1.0" encoding="utf-8"?>
<!DOCTYPE svg PUBLIC "-//W3C//DTD SVG 1.1//EN" "http://www.w3.org/Graphics/SVG/1.1/DTD/svg11.dtd">
<svg xmlns="http://www.w3.org/2000/svg" xmlns:xlink="http://www.w3.org/1999/xlink" version="1.1" baseProfile="full" width="24" height="24" viewBox="0 0 24.00 24.00" enable-background="new 0 0 24.00 24.00" xml:space="preserve">
	<path fill="#000000" fill-opacity="1" stroke-width="0.2" stroke-linejoin="round" d="M 1.99938,10.9983L 1.99938,9.99829L 4.99938,9.99829L 4.99938,10.8983L 3.19938,12.9983L 4.99938,12.9983L 4.99938,13.9983L 1.99938,13.9983L 1.99938,13.0983L 3.79938,10.9983L 1.99938,10.9983 Z M 2.99938,7.99833L 2.99938,4.99833L 1.99938,4.99833L 1.99938,3.99833L 3.99938,3.99833L 3.99938,7.99833L 2.99938,7.99833 Z M 1.99938,16.9983L 1.99938,15.9983L 4.99938,15.9983L 4.99938,19.9983L 1.99938,19.9983L 1.99938,18.9983L 3.99938,18.9983L 3.99938,18.4983L 2.99938,18.4983L 2.99938,17.4983L 3.99938,17.4983L 3.99938,16.9983L 1.99938,16.9983 Z M 20,6L 20,7L 7,7L 7,6L 20,6 Z M 20,12L 20,13L 7,13L 7,12L 20,12 Z M 20,18L 20,19L 7,19L 7,18L 20,18 Z "/>
</svg>
