<?xml version="1.0" encoding="utf-8"?>
<!DOCTYPE svg PUBLIC "-//W3C//DTD SVG 1.1//EN" "http://www.w3.org/Graphics/SVG/1.1/DTD/svg11.dtd">
<svg xmlns="http://www.w3.org/2000/svg" xmlns:xlink="http://www.w3.org/1999/xlink" version="1.1" baseProfile="full" width="24" height="24" viewBox="0 0 24.00 24.00" enable-background="new 0 0 24.00 24.00" xml:space="preserve">
	<path fill="#000000" fill-opacity="1" stroke-width="0.2" stroke-linejoin="round" d="M 3,21L 3,20L 20,20L 20,21L 3,21 Z M 11,17L 11,16L 20,16L 20,17L 11,17 Z M 11,13L 11,12L 20,12L 20,13L 11,13 Z M 11,9L 11,8L 20,8L 20,9L 11,9 Z M 3,5L 3,4L 20,4L 20,5L 3,5 Z M 8.5,12.5L 3,18L 3,7.00001L 8.5,12.5 Z M 7.08578,12.5L 4,9.41423L 4,15.5858L 7.08578,12.5 Z "/>
</svg>
