<?xml version="1.0" encoding="utf-8"?>
<!DOCTYPE svg PUBLIC "-//W3C//DTD SVG 1.1//EN" "http://www.w3.org/Graphics/SVG/1.1/DTD/svg11.dtd">
<svg xmlns="http://www.w3.org/2000/svg" xmlns:xlink="http://www.w3.org/1999/xlink" version="1.1" baseProfile="full" width="24" height="24" viewBox="0 0 24.00 24.00" enable-background="new 0 0 24.00 24.00" xml:space="preserve">
	<path fill="#000000" fill-opacity="1" stroke-width="0.2" stroke-linejoin="round" d="M 21,6L 21,7L 10,7L 10,6L 21,6 Z M 21,12L 21,13L 10,13L 10,12L 21,12 Z M 21,18L 21,19L 10,19L 10,18L 21,18 Z M 5,19.25L 7.25006,17L 8,17.6643L 4.5,21.1642L 1,17.6642L 1.75001,17L 4,19.25L 4,5.75001L 1.75001,8L 1,7.3358L 4.5,3.83579L 8,7.33574L 7.25005,8L 5,5.74999L 5,19.25 Z "/>
</svg>
