<?xml version="1.0" encoding="utf-8"?>
<!DOCTYPE svg PUBLIC "-//W3C//DTD SVG 1.1//EN" "http://www.w3.org/Graphics/SVG/1.1/DTD/svg11.dtd">
<svg xmlns="http://www.w3.org/2000/svg" xmlns:xlink="http://www.w3.org/1999/xlink" version="1.1" baseProfile="full" width="24" height="24" viewBox="0 0 24.00 24.00" enable-background="new 0 0 24.00 24.00" xml:space="preserve">
	<path fill="#000000" fill-opacity="1" stroke-width="0.2" stroke-linejoin="round" d="M 11.5,8L 16,17L 7,17L 11.5,8 Z M 11.5,10.2412L 8.61598,16L 14.384,16L 11.5,10.2412 Z M 3,16L 5,16L 5,17L 3,17L 3,16 Z M 3,12L 5,12L 5,13L 3,13L 3,12 Z M 3,8.00001L 5,8.00001L 5,9.00001L 3,9.00001L 3,8.00001 Z M 18,8.00001L 20,8.00001L 20,9.00001L 18,9.00001L 18,8.00001 Z M 18,12L 20,12L 20,13L 18,13L 18,12 Z M 18,16L 20,16L 20,17L 18,17L 18,16 Z M 20,20L 20,21L 3,21L 3,20L 20,20 Z M 3,4L 20,4L 20,5L 3,5L 3,4 Z "/>
</svg>
