<?xml version="1.0" encoding="utf-8"?>
<!DOCTYPE svg PUBLIC "-//W3C//DTD SVG 1.1//EN" "http://www.w3.org/Graphics/SVG/1.1/DTD/svg11.dtd">
<svg xmlns="http://www.w3.org/2000/svg" xmlns:xlink="http://www.w3.org/1999/xlink" version="1.1" baseProfile="full" width="24" height="24" viewBox="0 0 24.00 24.00" enable-background="new 0 0 24.00 24.00" xml:space="preserve">
	<path fill="#000000" fill-opacity="1" stroke-width="0.2" stroke-linejoin="round" d="M 20,4L 20,5L 3,5L 3,4L 20,4 Z M 11,8.00001L 11,9.00001L 3,9.00001L 3,8.00001L 11,8.00001 Z M 3,12L 8,12L 8,13L 3,13L 3,12 Z M 3,16L 16,16L 16,17L 3,17L 3,16 Z M 3,20L 20,20L 20,21L 3,21L 3,20 Z M 20,7L 20,14L 13,14L 13,7L 20,7 Z M 19,8L 14,8L 14,13L 19,13L 19,8 Z "/>
</svg>
