<?xml version="1.0" encoding="utf-8"?>
<!DOCTYPE svg PUBLIC "-//W3C//DTD SVG 1.1//EN" "http://www.w3.org/Graphics/SVG/1.1/DTD/svg11.dtd">
<svg xmlns="http://www.w3.org/2000/svg" xmlns:xlink="http://www.w3.org/1999/xlink" version="1.1" baseProfile="full" width="24" height="24" viewBox="0 0 24.00 24.00" enable-background="new 0 0 24.00 24.00" xml:space="preserve">
	<path fill="#000000" fill-opacity="1" stroke-width="0.2" stroke-linejoin="round" d="M 1.7929,3.45712L 2.5,2.75001L 19.25,19.5L 18.5429,20.2071L 15.3799,17.0441L 11.5,20.9233L 3.53769,12.9623C 2.58763,12.0122 2,10.6997 2,9.25C 2,7.71483 2.65892,6.33356 3.70936,5.37357L 1.7929,3.45712 Z M 4.2439,12.2525L 11.5,19.5086L 14.6722,16.3364L 4.41736,6.08157C 3.54748,6.85979 3,7.99096 3,9.25001C 3,10.4227 3.47495,11.4845 4.2439,12.2525 Z M 18.7561,12.2525C 19.525,11.4845 20,10.4227 20,9.25001C 20,6.9028 18.0972,5.00001 15.75,5.00001C 14.1702,5.00001 12.7918,5.86193 12.0593,7.14116L 10.9407,7.14116C 10.2082,5.86193 8.82975,5.00001 7.25,5.00001L 6.27629,5.11207L 5.47269,4.30848C 6.02775,4.10881 6.62617,4.00001 7.25,4.00001C 8.99757,4.00001 10.5457,4.85387 11.5,6.16716C 12.4543,4.85387 14.0024,4.00001 15.75,4.00001C 18.6495,4.00001 21,6.35051 21,9.25C 21,10.6997 20.4124,12.0122 19.4623,12.9623L 16.7942,15.63L 16.0864,14.9222L 18.7561,12.2525 Z "/>
</svg>
