<?xml version="1.0" encoding="utf-8"?>
<!DOCTYPE svg PUBLIC "-//W3C//DTD SVG 1.1//EN" "http://www.w3.org/Graphics/SVG/1.1/DTD/svg11.dtd">
<svg xmlns="http://www.w3.org/2000/svg" xmlns:xlink="http://www.w3.org/1999/xlink" version="1.1" baseProfile="full" width="24" height="24" viewBox="0 0 24.00 24.00" enable-background="new 0 0 24.00 24.00" xml:space="preserve">
	<path fill="#000000" fill-opacity="1" stroke-width="0.2" stroke-linejoin="round" d="M 16,8.41421L 11.5,3.91421L 4.41421,11L 6,11L 6,12L 6,19L 9,19L 9,13L 14,13L 14,19L 17,19L 17,11L 18.5858,11L 17,9.41421L 17,6.00001L 16,6.00001L 16,8.41421 Z M 2,12L 11.5,2.50001L 15,6L 15,5L 18,5L 18,9L 21,12L 18,12L 17.9993,19.9983L 12.9993,19.9983L 12.9993,13.9983L 9.99939,13.998L 9.99939,19.998L 4.99939,19.998L 4.99939,12L 2,12 Z "/>
</svg>
