<?xml version="1.0" encoding="utf-8"?>
<!DOCTYPE svg PUBLIC "-//W3C//DTD SVG 1.1//EN" "http://www.w3.org/Graphics/SVG/1.1/DTD/svg11.dtd">
<svg xmlns="http://www.w3.org/2000/svg" xmlns:xlink="http://www.w3.org/1999/xlink" version="1.1" baseProfile="full" width="24" height="24" viewBox="0 0 24.00 24.00" enable-background="new 0 0 24.00 24.00" xml:space="preserve">
	<path fill="#000000" fill-opacity="1" stroke-width="0.2" stroke-linejoin="round" d="M 10.7279,14.965C 10.9782,15.0817 11.0865,15.3792 10.9698,15.6294C 10.8531,15.8797 10.5556,15.988 10.3053,15.8713L 10.3048,15.8724C 9.84155,15.6564 9.40749,15.3572 9.02513,14.9749C 7.26777,13.2175 7.26777,10.3683 9.02513,8.61092L 12.5607,5.07538C 14.318,3.31802 17.1673,3.31802 18.9246,5.07538C 20.682,6.83274 20.682,9.68198 18.9246,11.4393L 17.2915,13.0725L 17.1414,11.8083L 18.2175,10.7322C 19.5843,9.3654 19.5843,7.14932 18.2175,5.78249C 16.8507,4.41565 14.6346,4.41565 13.2678,5.78249L 9.73223,9.31803C 8.3654,10.6849 8.3654,12.9009 9.73223,14.2678C 10.0296,14.5652 10.3672,14.7979 10.7275,14.9658L 10.7279,14.965 Z M 4.07539,19.9246C 2.31803,18.1673 2.31803,15.318 4.07539,13.5607L 5.70851,11.9275L 5.85859,13.1917L 4.78249,14.2678C 3.41566,15.6346 3.41566,17.8507 4.78249,19.2175C 6.14933,20.5843 8.3654,20.5843 9.73224,19.2175L 13.2678,15.682C 14.6346,14.3151 14.6346,12.0991 13.2678,10.7322C 12.9704,10.4348 12.6328,10.2021 12.2725,10.0342L 12.2721,10.035C 12.0218,9.91832 11.9135,9.62084 12.0302,9.37056C 12.1469,9.1203 12.4444,9.01202 12.6947,9.12872L 12.6952,9.12761C 13.1585,9.34359 13.5925,9.64276 13.9749,10.0251C 15.7322,11.7825 15.7322,14.6317 13.9749,16.3891L 10.4393,19.9246C 8.68199,21.682 5.83275,21.682 4.07539,19.9246 Z "/>
</svg>
