<?xml version="1.0" encoding="utf-8"?>
<!DOCTYPE svg PUBLIC "-//W3C//DTD SVG 1.1//EN" "http://www.w3.org/Graphics/SVG/1.1/DTD/svg11.dtd">
<svg xmlns="http://www.w3.org/2000/svg" xmlns:xlink="http://www.w3.org/1999/xlink" version="1.1" baseProfile="full" width="24" height="24" viewBox="0 0 24.00 24.00" enable-background="new 0 0 24.00 24.00" xml:space="preserve">
	<path fill="#000000" fill-opacity="0.886275" stroke-linejoin="round" d="M 16,8.00001C 17.6568,8.00001 19,9.34316 19,11L 19,19C 19,20.6569 17.6568,22 16,22L 7,22C 5.34314,22 4,20.6569 4,19L 4,11C 4,9.34316 5.34314,8.00001 7,8.00001L 7,6.50001C 7,4.01473 9.01471,2.00002 11.5,2.00002C 13.9853,2.00002 16,4.01473 16,6.50001L 16,8.00001 Z M 7,9.00001C 5.89543,9.00001 5,9.89544 5,11L 5,19C 5,20.1046 5.89543,21 7,21L 16,21C 17.1046,21 18,20.1046 18,19L 18,11C 18,9.89544 17.1046,9.00001 16,9.00001L 7,9.00001 Z M 15,8L 15,6.5C 15,4.56701 13.433,3.00001 11.5,3.00001C 9.567,3.00001 8,4.56701 8,6.5L 8,8L 15,8 Z M 11.5,14C 10.6716,14 10,14.6716 10,15.5C 10,16.3284 10.6716,17 11.5,17C 12.3284,17 13,16.3284 13,15.5C 13,14.6716 12.3284,14 11.5,14 Z M 11.5,13C 12.8807,13 14,14.1193 14,15.5C 14,16.8807 12.8807,18 11.5,18C 10.1193,18 9,16.8807 9,15.5C 9,14.1193 10.1193,13 11.5,13 Z "/>
</svg>
