<?xml version="1.0" encoding="utf-8"?>
<!DOCTYPE svg PUBLIC "-//W3C//DTD SVG 1.1//EN" "http://www.w3.org/Graphics/SVG/1.1/DTD/svg11.dtd">
<svg xmlns="http://www.w3.org/2000/svg" xmlns:xlink="http://www.w3.org/1999/xlink" version="1.1" baseProfile="full" width="24" height="24" viewBox="0 0 24.00 24.00" enable-background="new 0 0 24.00 24.00" xml:space="preserve">
	<path fill="#000000" fill-opacity="1" stroke-width="0.2" stroke-linejoin="round" d="M 5,3L 11,3C 12.6569,3 14,4.34315 14,6L 14,10L 13,10L 13,6C 13,4.89543 12.1046,4 11,4L 5,4C 3.89543,4 3,4.89543 3,6L 3,19C 3,20.1046 3.89543,21 5,21L 11,21C 12.1046,21 13,20.1046 13,19L 13,15L 14,15L 14,19C 14,20.6569 12.6569,22 11,22L 5,22C 3.34315,22 2,20.6569 2,19L 2,6C 2,4.34315 3.34315,3 5,3 Z M 8,12L 19.25,12L 16,8.74995L 16.6643,8L 21.1642,12.5L 16.6642,17L 16,16.25L 19.25,13L 8,13L 8,12 Z "/>
</svg>
