<?xml version="1.0" encoding="utf-8"?>
<!DOCTYPE svg PUBLIC "-//W3C//DTD SVG 1.1//EN" "http://www.w3.org/Graphics/SVG/1.1/DTD/svg11.dtd">
<svg xmlns="http://www.w3.org/2000/svg" xmlns:xlink="http://www.w3.org/1999/xlink" version="1.1" baseProfile="full" width="24" height="24" viewBox="0 0 24.00 24.00" enable-background="new 0 0 24.00 24.00" xml:space="preserve">
	<path fill="#000000" fill-opacity="1" stroke-width="0.2" stroke-linejoin="round" d="M 9.5,4C 13.0899,4 16,6.91015 16,10.5C 16,12.1172 15.4094,13.5965 14.4321,14.7339L 20.0764,20.3782L 19.3693,21.0853L 13.7243,15.4403C 12.5882,16.4127 11.1127,17 9.5,17C 5.91015,17 3,14.0899 3,10.5C 3,6.91015 5.91015,4 9.5,4 Z M 9.5,5.00001C 6.46243,5.00001 4,7.46244 4,10.5C 4,13.5376 6.46243,16 9.5,16C 12.5376,16 15,13.5376 15,10.5C 15,7.46244 12.5376,5.00001 9.5,5.00001 Z M 7,10L 12,10L 12,11L 7,11L 7,10 Z "/>
</svg>
