<?xml version="1.0" encoding="utf-8"?>
<!DOCTYPE svg PUBLIC "-//W3C//DTD SVG 1.1//EN" "http://www.w3.org/Graphics/SVG/1.1/DTD/svg11.dtd">
<svg xmlns="http://www.w3.org/2000/svg" xmlns:xlink="http://www.w3.org/1999/xlink" version="1.1" baseProfile="full" width="24" height="24" viewBox="0 0 24.00 24.00" enable-background="new 0 0 24.00 24.00" xml:space="preserve">
	<path fill="#000000" fill-opacity="1" stroke-width="0.2" stroke-linejoin="round" d="M 11.5,7C 12.8807,7 14,8.11929 14,9.5C 14,10.8807 12.8807,12 11.5,12C 10.1193,12 9,10.8807 9,9.5C 9,8.11929 10.1193,7 11.5,7 Z M 11.5,8C 10.6716,8 10,8.67158 10,9.5C 10,10.3284 10.6716,11 11.5,11C 12.3284,11 13,10.3284 13,9.5C 13,8.67158 12.3284,8 11.5,8 Z M 6.80047,12.3574L 11.5,20.0867L 16.1995,12.3574L 16.2002,12.3578C 16.7077,11.5249 17,10.5466 17,9.5C 17,6.46244 14.5376,4 11.5,4C 8.46243,4 6,6.46244 6,9.5C 6,10.5466 6.29233,11.5249 6.7998,12.3578L 6.80047,12.3574 Z M 17.054,12.8769L 11.5,22.0116L 5.94601,12.8769L 5.94522,12.8774C 5.34548,11.8931 5,10.7369 5,9.50001C 5,5.91016 7.91015,3.00001 11.5,3.00001C 15.0898,3.00001 18,5.91016 18,9.50001C 18,10.7369 17.6545,11.8931 17.0548,12.8774L 17.054,12.8769 Z "/>
</svg>
