<?xml version="1.0" encoding="utf-8"?>
<!DOCTYPE svg PUBLIC "-//W3C//DTD SVG 1.1//EN" "http://www.w3.org/Graphics/SVG/1.1/DTD/svg11.dtd">
<svg xmlns="http://www.w3.org/2000/svg" xmlns:xlink="http://www.w3.org/1999/xlink" version="1.1" baseProfile="full" width="24" height="24" viewBox="0 0 24.00 24.00" enable-background="new 0 0 24.00 24.00" xml:space="preserve">
	<path fill="#000000" fill-opacity="1" stroke-width="0.2" stroke-linejoin="round" d="M 8,19C 6.34314,19 5,17.6569 5,16L 5,15L 3,15L 3,14L 5,14L 5,11L 3,11L 3,10L 5,10L 5,9C 5,7.34315 6.34314,6 8,6L 9,6L 9,4L 10,4L 10,6L 13,6L 13,4L 14,4L 14,6L 15,6C 16.6569,6 18,7.34315 18,9L 18,10L 20,10L 20,11L 18,11L 18,14L 20,14L 20,15L 18,15L 18,16C 18,17.6569 16.6569,19 15,19L 14,19L 14,21L 13,21L 13,19L 10,19L 10,21L 9,21L 9,19L 8,19 Z M 7.99999,7.00002C 6.89542,7.00002 5.99999,7.89544 5.99999,9.00002L 5.99999,16C 5.99999,17.1046 6.89542,18 7.99999,18L 15,18C 16.1046,18 17,17.1046 17,16L 17,9.00002C 17,7.89544 16.1046,7.00002 15,7.00002L 7.99999,7.00002 Z M 8.99999,15L 8.99999,10L 14,10L 14,15L 8.99999,15 Z M 9.99999,11L 9.99999,14L 13,14L 13,11L 9.99999,11 Z "/>
</svg>
