<?xml version="1.0" encoding="utf-8"?>
<!DOCTYPE svg PUBLIC "-//W3C//DTD SVG 1.1//EN" "http://www.w3.org/Graphics/SVG/1.1/DTD/svg11.dtd">
<svg xmlns="http://www.w3.org/2000/svg" xmlns:xlink="http://www.w3.org/1999/xlink" version="1.1" baseProfile="full" width="24" height="24" viewBox="0 0 24.00 24.00" enable-background="new 0 0 24.00 24.00" xml:space="preserve">
	<path fill="#000000" fill-opacity="1" stroke-width="0.2" stroke-linejoin="round" d="M 20,20.5858L 16.4142,17L 4.99999,17C 3.89542,17 2.99999,16.1046 2.99999,15L 2.99999,6C 2.99999,4.89543 3.89542,4 4.99999,4L 18,4C 19.1046,4 20,4.89543 20,6L 20,20.5858 Z M 20,22L 21,22L 21,6.00001C 21,4.34315 19.6568,3.00001 18,3.00001L 5,3.00001C 3.34314,3.00001 2,4.34315 2,6.00001L 2,15C 2,16.6569 3.34314,18 5,18L 16,18L 20,22 Z "/>
</svg>
