<?xml version="1.0" encoding="utf-8"?>
<!DOCTYPE svg PUBLIC "-//W3C//DTD SVG 1.1//EN" "http://www.w3.org/Graphics/SVG/1.1/DTD/svg11.dtd">
<svg xmlns="http://www.w3.org/2000/svg" xmlns:xlink="http://www.w3.org/1999/xlink" version="1.1" baseProfile="full" width="24" height="24" viewBox="0 0 24.00 24.00" enable-background="new 0 0 24.00 24.00" xml:space="preserve">
	<path fill="#000000" fill-opacity="1" stroke-width="0.2" stroke-linejoin="round" d="M 3,20.5858L 6.58578,17L 18,17C 19.1046,17 20,16.1046 20,15L 20,14.9142L 14.7929,9.70711L 9.79289,14.7071L 7.29289,12.2071L 3,16.5L 3,20.5858 Z M 20,6C 20,4.89543 19.1046,4 18,4L 5,4C 3.89543,4 3,4.89543 3,6L 3,15.0858L 7.29289,10.7929L 9.79289,13.2929L 14.7929,8.29291L 20,13.5L 20,6 Z M 3,22L 2,22L 2,6.00002C 2,4.34316 3.34314,3.00002 5,3.00002L 18,3.00002C 19.6568,3.00002 21,4.34316 21,6.00002L 21,15C 21,16.6569 19.6568,18 18,18L 6.99999,18L 3,22 Z M 9,6C 10.1046,6 11,6.89543 11,8C 11,9.10457 10.1046,10 9,10C 7.89543,10 7,9.10457 7,8C 7,6.89543 7.89543,6 9,6 Z M 9,7C 8.44771,7 8,7.44772 8,8C 8,8.55229 8.44771,9 9,9C 9.55228,9 10,8.55229 10,8C 10,7.44772 9.55228,7 9,7 Z "/>
</svg>
