<?xml version="1.0" encoding="utf-8"?>
<!DOCTYPE svg PUBLIC "-//W3C//DTD SVG 1.1//EN" "http://www.w3.org/Graphics/SVG/1.1/DTD/svg11.dtd">
<svg xmlns="http://www.w3.org/2000/svg" xmlns:xlink="http://www.w3.org/1999/xlink" version="1.1" baseProfile="full" width="24" height="24" viewBox="0 0 24.00 24.00" enable-background="new 0 0 24.00 24.00" xml:space="preserve">
	<path fill="#000000" fill-opacity="1" stroke-linejoin="round" d="M 3,20.5858L 6.58578,17L 18,17C 19.1046,17 20,16.1046 20,15L 20,6C 20,4.89543 19.1046,4 18,4L 5,4C 3.89543,4 3,4.89543 3,6L 3,20.5858 Z M 3,22L 2,22L 2,6.00001C 2,4.34315 3.34314,3.00001 5,3.00001L 18,3.00001C 19.6568,3.00001 21,4.34315 21,6.00001L 21,15C 21,16.6569 19.6568,18 18,18L 6.99999,18L 3,22 Z M 17,7L 17,14L 16,14L 14,12L 14,14L 6,14L 6,7L 14,7L 14,9L 16,7L 17,7 Z M 14,10.4142L 14,10.5858L 16,12.5858L 16,8.41422L 14,10.4142 Z M 7,8.00001L 7,13L 13,13L 13,8.00001L 7,8.00001 Z "/>
</svg>
