<?xml version="1.0" encoding="utf-8"?>
<!DOCTYPE svg PUBLIC "-//W3C//DTD SVG 1.1//EN" "http://www.w3.org/Graphics/SVG/1.1/DTD/svg11.dtd">
<svg xmlns="http://www.w3.org/2000/svg" xmlns:xlink="http://www.w3.org/1999/xlink" version="1.1" baseProfile="full" width="24" height="24" viewBox="0 0 24.00 24.00" enable-background="new 0 0 24.00 24.00" xml:space="preserve">
	<path fill="#000000" fill-opacity="1" stroke-width="0.2" stroke-linejoin="round" d="M 11,21L 11,17.9811C 7.64377,17.7258 4.99999,14.9216 4.99999,11.5L 4.99999,11L 6,11L 6,11.5C 6,14.5376 8.46243,17 11.5,17C 14.5376,17 17,14.5376 17,11.5L 17,11L 18,11L 18,11.5C 18,14.9216 15.3562,17.7257 12,17.9811L 12,21L 11,21 Z M 11.5,3.00002C 12.8807,3.00002 14,4.1193 14,5.50002L 14,11.5C 14,12.8807 12.8807,14 11.5,14C 10.1193,14 9,12.8807 9,11.5L 8.99999,5.50002C 8.99999,4.1193 10.1193,3.00002 11.5,3.00002 Z M 11.5,4.00002C 10.6716,4.00002 10,4.67159 10,5.50002L 10,11.5C 10,12.3284 10.6716,13 11.5,13C 12.3284,13 13,12.3284 13,11.5L 13,5.50002C 13,4.67159 12.3284,4.00002 11.5,4.00002 Z "/>
</svg>
