<?xml version="1.0" encoding="utf-8"?>
<!DOCTYPE svg PUBLIC "-//W3C//DTD SVG 1.1//EN" "http://www.w3.org/Graphics/SVG/1.1/DTD/svg11.dtd">
<svg xmlns="http://www.w3.org/2000/svg" xmlns:xlink="http://www.w3.org/1999/xlink" version="1.1" baseProfile="full" width="24" height="24" viewBox="0 0 24.00 24.00" enable-background="new 0 0 24.00 24.00" xml:space="preserve">
	<path fill="#000000" fill-opacity="1" stroke-width="0.2" stroke-linejoin="round" d="M 5,3L 18,3C 19.6569,3 21,4.34315 21,6L 21,19C 21,20.6569 19.6569,22 18,22L 5,22C 3.34315,22 2,20.6569 2,19L 2,6C 2,4.34315 3.34315,3 5,3 Z M 5,4C 3.89543,4 3,4.89543 3,6L 3,19C 3,20.1046 3.89543,21 5,21L 18,21C 19.1046,21 20,20.1046 20,19L 20,6C 20,4.89543 19.1046,4 18,4L 5,4 Z M 13,12.5C 13,13.3284 12.3284,14 11.5,14C 10.6716,14 10,13.3284 10,12.5C 10,11.8469 10.4174,11.2913 11,11.0854L 11,8.00001C 11,7.44773 11.4477,7.00001 12,7.00001L 16,7.00002C 16.5523,7.00002 17,7.44773 17,8.00002L 17,17C 17,17.5523 16.5523,18 16,18L 6.99999,18C 6.44771,18 5.99999,17.5523 5.99999,17L 5.99999,8.00002C 5.99999,7.44773 6.44771,7.00002 6.99999,7.00002L 9,7.00002L 9,8.00001L 7,8.00001L 7,17L 16,17L 16,8.00001L 12,8L 12,11.0854C 12.5826,11.2913 13,11.8469 13,12.5 Z M 11.5,12C 11.2239,12 11,12.2239 11,12.5C 11,12.7761 11.2239,13 11.5,13C 11.7761,13 12,12.7761 12,12.5C 12,12.2239 11.7761,12 11.5,12 Z "/>
</svg>
