<?xml version="1.0" encoding="utf-8"?>
<!DOCTYPE svg PUBLIC "-//W3C//DTD SVG 1.1//EN" "http://www.w3.org/Graphics/SVG/1.1/DTD/svg11.dtd">
<svg xmlns="http://www.w3.org/2000/svg" xmlns:xlink="http://www.w3.org/1999/xlink" version="1.1" baseProfile="full" width="24" height="24" viewBox="0 0 24.00 24.00" enable-background="new 0 0 24.00 24.00" xml:space="preserve">
	<path fill="#000000" fill-opacity="1" stroke-width="0.2" stroke-linejoin="round" d="M 17,12C 15.3431,12 14,10.6569 14,9.00002L 14,5.00003L 5.99999,5.00002C 4.89542,5.00002 3.99999,5.89545 3.99999,7.00002L 3.99999,18C 3.99999,19.1046 4.89542,20 5.99999,20L 19,20C 20.1045,20 21,19.1046 21,18L 21,12L 17,12 Z M 15,9.00002C 15,10.1046 15.8954,11 17,11L 20.5858,11L 15,5.41422L 15,9.00002 Z M 5.99999,4.00002L 15,4.00002L 22,11L 22,18C 22,19.6569 20.6568,21 19,21L 5.99999,21C 4.34314,21 3,19.6569 3,18L 3,7.00002C 3,5.34316 4.34314,4.00002 5.99999,4.00002 Z M 6.00001,23C 3.23859,23 1.00001,20.7614 1.00001,18L 1,8L 2.00001,8L 2.00002,18C 2.00002,20.2091 3.79088,22 6.00002,22L 18,22L 18,23L 6.00001,23 Z "/>
</svg>
