<?xml version="1.0" encoding="utf-8"?>
<!DOCTYPE svg PUBLIC "-//W3C//DTD SVG 1.1//EN" "http://www.w3.org/Graphics/SVG/1.1/DTD/svg11.dtd">
<svg xmlns="http://www.w3.org/2000/svg" xmlns:xlink="http://www.w3.org/1999/xlink" version="1.1" baseProfile="full" width="24" height="24" viewBox="0 0 24.00 24.00" enable-background="new 0 0 24.00 24.00" xml:space="preserve">
	<path fill="#000000" fill-opacity="1" stroke-width="1.33333" stroke-linejoin="miter" d="M 19.5,22C 20.3271,22 21,21.3271 21,20.5L 21,17C 21,16.1729 20.3271,15.5 19.5,15.5C 18.3301,15.5 17.1807,15.3164 16.0801,14.9531C 15.5488,14.7822 14.9668,14.9219 14.5566,15.3164L 13.1172,16.7559C 10.6357,15.4121 8.5654,13.3428 7.23191,10.8726L 8.66062,9.43649C 9.07282,9.0542 9.22071,8.47311 9.0449,7.9136C 8.6836,6.81878 8.5,5.67041 8.5,4.5C 8.5,3.67291 7.82709,3 7.00001,3L 3.50001,3C 2.67292,3 2.00001,3.67291 2.00001,4.5C 2.00001,14.1494 9.85059,22 19.5,22 Z M 3.50001,4L 7.00001,4C 7.27592,4 7.50001,4.22409 7.50001,4.5C 7.50001,5.77731 7.7002,7.03131 8.0933,8.22021C 8.1377,8.36178 8.13129,8.5635 7.96631,8.71728L 6.0098,10.6826C 7.64652,13.9111 10.0654,16.3291 13.3076,17.9795L 15.2568,16.0303C 15.3975,15.8945 15.5938,15.8477 15.7725,15.9043C 16.9688,16.2998 18.2227,16.5 19.5,16.5C 19.7754,16.5 20,16.7246 20,17L 20,20.5C 20,20.7754 19.7754,21 19.5,21C 10.4019,21 3.00001,13.5977 3.00001,4.5C 3.00001,4.22409 3.2241,4 3.50001,4 Z "/>
</svg>
