<?xml version="1.0" encoding="utf-8"?>
<!DOCTYPE svg PUBLIC "-//W3C//DTD SVG 1.1//EN" "http://www.w3.org/Graphics/SVG/1.1/DTD/svg11.dtd">
<svg xmlns="http://www.w3.org/2000/svg" xmlns:xlink="http://www.w3.org/1999/xlink" version="1.1" baseProfile="full" width="24" height="24" viewBox="0 0 24.00 24.00" enable-background="new 0 0 24.00 24.00" xml:space="preserve">
	<path fill="#000000" fill-opacity="1" stroke-width="0.2" stroke-linejoin="round" d="M 2.79289,4.45711L 3.5,3.75L 20.25,20.5L 19.5429,21.2071L 14.3349,15.9991L 12,16L 11.9999,20.5L 11.4999,22L 10.9999,20.5L 11,16L 5.99939,15.9981L 5.99939,13.9981L 6.00193,13.9981L 7.9999,12.0001L 7.99965,9.66387L 2.79289,4.45711 Z M 14.0006,12.4148L 14.0001,5L 15,5L 15,4L 8,4L 8,5L 9.00007,5L 9.00026,7.83604L 7.99935,6.83514L 7.99926,5.99811L 7.16232,5.99811L 6.99926,5.83505L 6.99926,2.9981L 15.9989,2.99813L 15.9989,5.99814L 14.9991,5.99814L 14.9998,11.9998L 16.9981,13.9981L 16.9991,13.9981L 16.9991,13.9991L 17,14L 16.9991,14.0009L 16.9991,15.8349L 16,14.8358L 16,14.4142L 14.0006,12.4148 Z M 9.00057,12.4136L 7,14.4142L 7,15L 13.3358,15L 9.00045,10.6647L 9.00057,12.4136 Z "/>
</svg>
