<?xml version="1.0" encoding="utf-8"?>
<!DOCTYPE svg PUBLIC "-//W3C//DTD SVG 1.1//EN" "http://www.w3.org/Graphics/SVG/1.1/DTD/svg11.dtd">
<svg xmlns="http://www.w3.org/2000/svg" xmlns:xlink="http://www.w3.org/1999/xlink" version="1.1" baseProfile="full" width="24" height="24" viewBox="0 0 24.00 24.00" enable-background="new 0 0 24.00 24.00" xml:space="preserve">
	<path fill="#000000" fill-opacity="1" stroke-width="0.2" stroke-linejoin="round" d="M 16.9994,3.99819L 16.9994,8.99818L 17.9994,8.99819C 19.6564,8.99819 20.9994,10.3412 20.9994,11.9982L 20.9994,16.9981L 16.9994,16.9981L 16.9994,20.9981L 5.99939,20.9981L 5.99939,16.9981L 1.99939,16.9981L 1.99939,11.9981C 1.99939,10.3421 3.34339,8.99813 4.99939,8.99813L 5.99939,8.99813L 5.99939,3.99813L 16.9994,3.99819 Z M 17.9994,12.9982C 17.4464,12.9982 16.9994,12.5512 16.9994,11.9982C 16.9994,11.4452 17.4464,10.9982 17.9994,10.9982C 18.5524,10.9982 18.9994,11.4452 18.9994,11.9982C 18.9994,12.5512 18.5524,12.9982 17.9994,12.9982 Z M 3,12L 3,16L 6,16L 6,14L 17,14L 17,16L 20,16L 20,12C 20,10.8954 19.1046,10 18,10L 5,10C 3.89543,10 3,10.8954 3,12 Z M 16,20L 16,15L 7,15L 7,20L 16,20 Z M 7,5L 7,9L 16,9L 16,5L 7,5 Z "/>
</svg>
