<?xml version="1.0" encoding="utf-8"?>
<!DOCTYPE svg PUBLIC "-//W3C//DTD SVG 1.1//EN" "http://www.w3.org/Graphics/SVG/1.1/DTD/svg11.dtd">
<svg xmlns="http://www.w3.org/2000/svg" xmlns:xlink="http://www.w3.org/1999/xlink" version="1.1" baseProfile="full" width="24" height="24" viewBox="0 0 24.00 24.00" enable-background="new 0 0 24.00 24.00" xml:space="preserve">
	<path fill="#000000" fill-opacity="1" stroke-width="0.2" stroke-linejoin="round" d="M 17,20L 17,19L 16,19L 16,20L 17,20 Z M 10,8.00002C 6.6863,8.00002 4.00001,10.6863 4.00001,14C 4.00001,17.3137 6.6863,20 10,20L 14,20L 14,19L 10,19C 7.23858,19 5,16.7614 5,14C 5,11.2386 7.23858,9.00001 10,9.00001L 17.0858,9L 14.0503,12.0355L 14.7574,12.7426L 19,8.5L 14.7574,4.25735L 14.0503,4.96447L 17.0858,8L 10,8.00002 Z "/>
</svg>
