<?xml version="1.0" encoding="utf-8"?>
<!DOCTYPE svg PUBLIC "-//W3C//DTD SVG 1.1//EN" "http://www.w3.org/Graphics/SVG/1.1/DTD/svg11.dtd">
<svg xmlns="http://www.w3.org/2000/svg" xmlns:xlink="http://www.w3.org/1999/xlink" version="1.1" baseProfile="full" width="24" height="24" viewBox="0 0 24.00 24.00" enable-background="new 0 0 24.00 24.00" xml:space="preserve">
	<path fill="#000000" fill-opacity="1" stroke-width="0.2" stroke-linejoin="round" d="M 4.99577,4.99984L 9.99577,4.99984L 9.99577,10.0002L 8.99577,10.0002L 8.99577,6.49284C 6.64941,7.47363 5.00033,9.79069 5.00033,12.4928C 5.00033,16.0827 7.91048,18.9928 11.5003,18.9928C 15.0902,18.9928 18.0003,16.0827 18.0003,12.4928C 18.0003,9.41764 15.8646,6.84131 12.9958,6.16569L 12.9958,5.14193C 16.4212,5.83512 19.0003,8.86279 19.0003,12.4928C 19.0003,16.6349 15.6426,19.9928 11.5003,19.9928C 7.35807,19.9928 4.00033,16.6349 4.00033,12.4928C 4.00033,9.7194 5.50586,7.29753 7.74414,5.99984L 4.99577,5.99984L 4.99577,4.99984 Z "/>
</svg>
