<?xml version="1.0" encoding="utf-8"?>
<!DOCTYPE svg PUBLIC "-//W3C//DTD SVG 1.1//EN" "http://www.w3.org/Graphics/SVG/1.1/DTD/svg11.dtd">
<svg xmlns="http://www.w3.org/2000/svg" xmlns:xlink="http://www.w3.org/1999/xlink" version="1.1" baseProfile="full" width="24" height="24" viewBox="0 0 24.00 24.00" enable-background="new 0 0 24.00 24.00" xml:space="preserve">
	<path fill="#000000" fill-opacity="1" stroke-width="0.2" stroke-linejoin="round" d="M 5,16C 6.65685,16 8,17.3431 8,19C 8,20.6569 6.65685,22 5,22C 3.34315,22 2,20.6569 2,19C 2,17.3431 3.34315,16 5,16 Z M 5,17C 3.89543,17 3,17.8954 3,19C 3,20.1046 3.89543,21 5,21C 6.10456,21 6.99999,20.1046 6.99999,19C 6.99999,17.8954 6.10456,17 5,17 Z M 2,11C 8.07513,11 13,15.9249 13,22L 12,22C 12,16.4772 7.52284,12 2,12L 2,11 Z M 2,7.00001C 10.2843,7.00001 17,13.7157 17,22L 16,22C 16,14.268 9.73198,8.00001 2,8.00001L 2,7.00001 Z M 2,3C 12.4934,3 21,11.5066 21,22L 20,22C 20,12.0589 11.9411,4.00001 2,4.00001L 2,3 Z "/>
</svg>
