<?xml version="1.0" encoding="utf-8"?>
<!DOCTYPE svg PUBLIC "-//W3C//DTD SVG 1.1//EN" "http://www.w3.org/Graphics/SVG/1.1/DTD/svg11.dtd">
<svg xmlns="http://www.w3.org/2000/svg" xmlns:xlink="http://www.w3.org/1999/xlink" version="1.1" baseProfile="full" width="24" height="24" viewBox="0 0 24.00 24.00" enable-background="new 0 0 24.00 24.00" xml:space="preserve">
	<path fill="#000000" fill-opacity="1" stroke-width="0.2" stroke-linejoin="round" d="M 3,19C 3,20.1046 3.89543,21 5,21L 11.7639,21C 11.2889,20.4692 11,19.7684 11,19L 3,19 Z M 14,21C 15.1046,21 16,20.1046 16,19L 16,6C 16,5.23165 16.2889,4.53076 16.7639,4L 7.99999,4.00002C 6.89542,4.00002 5.99999,4.89545 5.99999,6.00002L 6,18L 12,18L 12,19C 12,20.1046 12.8954,21 14,21 Z M 5,6.00001C 5,4.34316 6.34318,3.00002 8.00004,3.00002L 19,3.00004C 20.6569,3.00006 22,4.34319 22,6.00002L 22,8L 17,8L 17,19C 17,20.6569 15.6568,22 14,22L 5,22C 3.34314,22 2,20.6569 2,19L 2,18L 5,18L 5,6.00001 Z M 21,7.00002L 21,6.00002C 21,4.89546 20.1045,4.00002 19,4.00002C 17.8954,4.00003 17,4.89545 17,6.00001L 17,7.00001L 21,7.00002 Z "/>
</svg>
