<?xml version="1.0" encoding="utf-8"?>
<!DOCTYPE svg PUBLIC "-//W3C//DTD SVG 1.1//EN" "http://www.w3.org/Graphics/SVG/1.1/DTD/svg11.dtd">
<svg xmlns="http://www.w3.org/2000/svg" xmlns:xlink="http://www.w3.org/1999/xlink" version="1.1" baseProfile="full" width="24" height="24" viewBox="0 0 24.00 24.00" enable-background="new 0 0 24.00 24.00" xml:space="preserve">
	<path fill="#000000" fill-opacity="1" stroke-width="0.2" stroke-linejoin="round" d="M 2,13L 7,13L 7,14L 3.25953,19L 7,19L 7,20L 2,20L 2,19L 5.75001,14L 2,14L 2,13 Z M 9,9L 14,9L 14,10L 10.2595,15L 14,15L 14,16L 9,16L 9,15L 12.75,10L 9,10L 9,9 Z M 16,5L 21,5L 21,6.00001L 17.2595,11L 21,11L 21,12L 16,12L 16,11L 19.75,6L 16,6L 16,5 Z "/>
</svg>
