<?xml version="1.0" encoding="utf-8"?>
<!DOCTYPE svg PUBLIC "-//W3C//DTD SVG 1.1//EN" "http://www.w3.org/Graphics/SVG/1.1/DTD/svg11.dtd">
<svg xmlns="http://www.w3.org/2000/svg" xmlns:xlink="http://www.w3.org/1999/xlink" version="1.1" baseProfile="full" width="24" height="24" viewBox="0 0 24.00 24.00" enable-background="new 0 0 24.00 24.00" xml:space="preserve">
	<path fill="#000000" fill-opacity="1" stroke-linejoin="round" d="M 3.5,18C 2.11929,18 1,16.8807 1,15.5C 1,11.3579 4.80558,8 9.5,8C 10.1889,8 10.8586,8.07231 11.5,8.20879C 12.1414,8.07231 12.8111,8 13.5,8C 18.1944,8 22,11.3579 22,15.5C 22,16.8807 20.8807,18 19.5,18L 3.5,18 Z M 2,15.5C 2,16.3284 2.67157,17 3.5,17C 4.32843,17 5,16.3284 5,15.5C 5,12.7241 6.70918,10.3004 9.24963,9.00356C 5.2234,9.11801 2,11.9828 2,15.5 Z M 19.5,17C 20.3284,17 21,16.3284 21,15.5C 21,11.9102 17.6421,9 13.5,9C 9.35786,9 6,11.9102 6,15.5C 6,16.0628 5.81402,16.5822 5.50018,17L 19.5,17 Z "/>
</svg>
