<?xml version="1.0" encoding="utf-8"?>
<!DOCTYPE svg PUBLIC "-//W3C//DTD SVG 1.1//EN" "http://www.w3.org/Graphics/SVG/1.1/DTD/svg11.dtd">
<svg xmlns="http://www.w3.org/2000/svg" xmlns:xlink="http://www.w3.org/1999/xlink" version="1.1" baseProfile="full" width="24" height="24" viewBox="0 0 24.00 24.00" enable-background="new 0 0 24.00 24.00" xml:space="preserve">
	<path fill="#000000" fill-opacity="1" stroke-width="0.2" stroke-linejoin="round" d="M 15.6194,21.119C 14.4478,22.2906 12.5483,22.2906 11.3767,21.119L 3.0539,12.9963C 2.4512,12.4476 2,11.6293 2,10.75L 2,6C 2,4.34314 3.34315,3 5,3L 9.75,3C 10.6293,3 11.4476,3.45122 11.9963,4.05391L 20.0691,12.4266C 21.2407,13.5982 21.2407,15.4977 20.0691,16.6692L 15.6194,21.119 Z M 14.9123,20.4119L 19.362,15.9622C 20.1431,15.1811 20.1431,13.9148 19.362,13.1337L 11.1124,4.58426C 10.7756,4.1972 10.3023,4 9.75,4L 4.97333,3.97334C 3.86876,3.97334 3,4.89543 3,6L 3,10.75C 3,11.3023 3.19718,11.7756 3.58423,12.1124L 12.0838,20.4119C 12.8649,21.193 14.1312,21.193 14.9123,20.4119 Z M 6.5,5C 7.88071,5 9,6.11929 9,7.5C 9,8.88071 7.88072,10 6.5,10C 5.11929,10 4,8.88071 4,7.5C 4,6.11929 5.11929,5 6.5,5 Z M 6.5,6.00001C 5.67158,6.00001 5,6.67158 5,7.50001C 5,8.32843 5.67158,9 6.5,9C 7.32843,9 8,8.32843 8,7.50001C 8,6.67158 7.32843,6.00001 6.5,6.00001 Z "/>
</svg>
