<?xml version="1.0" encoding="utf-8"?>
<!DOCTYPE svg PUBLIC "-//W3C//DTD SVG 1.1//EN" "http://www.w3.org/Graphics/SVG/1.1/DTD/svg11.dtd">
<svg xmlns="http://www.w3.org/2000/svg" xmlns:xlink="http://www.w3.org/1999/xlink" version="1.1" baseProfile="full" width="24" height="24" viewBox="0 0 24.00 24.00" enable-background="new 0 0 24.00 24.00" xml:space="preserve">
	<path fill="#000000" fill-opacity="1" stroke-width="0.2" stroke-linejoin="round" d="M 2,3.00001L 5,3.00001L 5,4.00001L 13,4.00001L 13,3.00002L 16,3.00003L 16,6.00001L 15,6.00001L 15,10L 18,10L 18,9L 21,9.00001L 21,12L 20,12L 20,19L 21,19L 21,22L 18,22L 18,21L 11,21L 11,22L 8,22L 7.99999,19L 8.99999,19L 8.99999,16L 5,16L 5,17L 2,17L 2,14L 3,14L 3,6L 2,6L 2,3.00001 Z M 18,12L 18,11L 15,11L 15,14L 16,14L 16,17L 13,17L 13,16L 9.99998,16L 9.99997,19L 11,19L 11,20L 18,20L 18,19L 19,19L 19,12L 18,12 Z M 13,6.00002L 13,5.00003L 4.99999,5.00002L 4.99999,6.00002L 3.99999,6.00003L 3.99999,14L 4.99999,14L 4.99999,15L 8.99999,15L 8.99999,12L 7.99998,12L 7.99998,9.00003L 11,9.00004L 11,10L 14,10L 14,6.00002L 13,6.00002 Z M 11,12L 9.99998,12L 9.99997,15L 13,15L 13,14L 14,14L 14,11L 11,11L 11,12 Z M 3,5.00001L 4,5.00001L 4,4.00001L 3,4.00001L 3,5.00001 Z M 14,5.00001L 15,5.00001L 15,4.00001L 14,4.00001L 14,5.00001 Z M 9,11L 10,11L 10,10L 9,10L 9,11 Z M 19,11L 20,11L 20,10L 19,10L 19,11 Z M 9,21L 10,21L 10,20L 9,20L 9,21 Z M 19,21L 20,21L 20,20L 19,20L 19,21 Z M 3,16L 4,16L 4,15L 3,15L 3,16 Z M 14,16L 15,16L 15,15L 14,15L 14,16 Z "/>
</svg>
