<?xml version="1.0" encoding="utf-8"?>
<!DOCTYPE svg PUBLIC "-//W3C//DTD SVG 1.1//EN" "http://www.w3.org/Graphics/SVG/1.1/DTD/svg11.dtd">
<svg xmlns="http://www.w3.org/2000/svg" xmlns:xlink="http://www.w3.org/1999/xlink" version="1.1" baseProfile="full" width="24" height="24" viewBox="0 0 24.00 24.00" enable-background="new 0 0 24.00 24.00" xml:space="preserve">
	<path fill="#000000" fill-opacity="1" stroke-width="0.2" stroke-linejoin="round" d="M 12,4.00001L 20,4.00001L 20,10L 12,10L 12,4.00001 Z M 12,21L 12,11L 20,11L 20,21L 12,21 Z M 3,21L 3,15L 11,15L 11,21L 3,21 Z M 3,14L 3,4.00001L 11,4.00001L 11,14L 3,14 Z M 4,5.00001L 4,13L 10,13L 10,5.00001L 4,5.00001 Z M 13,5.00001L 13,9.00001L 19,9.00001L 19,5.00001L 13,5.00001 Z M 13,12L 13,20L 19,20L 19,12L 13,12 Z M 4,16L 4,20L 10,20L 10,16L 4,16 Z "/>
</svg>
