<?xml version="1.0" encoding="utf-8"?>
<!DOCTYPE svg PUBLIC "-//W3C//DTD SVG 1.1//EN" "http://www.w3.org/Graphics/SVG/1.1/DTD/svg11.dtd">
<svg xmlns="http://www.w3.org/2000/svg" xmlns:xlink="http://www.w3.org/1999/xlink" version="1.1" baseProfile="full" width="24" height="24" viewBox="0 0 24.00 24.00" enable-background="new 0 0 24.00 24.00" xml:space="preserve">
	<path fill="#000000" fill-opacity="1" stroke-width="0.2" stroke-linejoin="round" d="M 21,12.5C 21,16.4741 17.909,19.7263 14,19.9836L 14,18.9811C 17.3562,18.7257 20,15.9216 20,12.5C 20,9.07839 17.3562,6.27427 14,6.01895L 14,5.0164C 17.909,5.2737 21,8.52588 21,12.5 Z M 18,12.5C 18,14.8163 16.25,16.7238 14,16.9725L 14,15.9646C 15.6961,15.7219 17,14.2632 17,12.5C 17,10.7368 15.6961,9.27807 14,9.03545L 14,8.02747C 16.25,8.27619 18,10.1837 18,12.5 Z M 15,12.5C 15,13.1531 14.5826,13.7087 14,13.9146L 14,11.0854C 14.5826,11.2913 15,11.8469 15,12.5 Z M 2,9L 6,9L 10,5L 12,5L 12,20L 10,20L 6,16L 2,16L 2,9 Z M 3,15L 6.41421,15L 10.4142,19L 11,19L 11,6.00001L 10.4142,6.00001L 6.41421,10L 3,10L 3,15 Z "/>
</svg>
