<?xml version="1.0" encoding="utf-8"?>
<!DOCTYPE svg PUBLIC "-//W3C//DTD SVG 1.1//EN" "http://www.w3.org/Graphics/SVG/1.1/DTD/svg11.dtd">
<svg xmlns="http://www.w3.org/2000/svg" xmlns:xlink="http://www.w3.org/1999/xlink" version="1.1" baseProfile="full" width="24" height="24" viewBox="0 0 24.00 24.00" enable-background="new 0 0 24.00 24.00" xml:space="preserve">
	<path fill="#000000" fill-opacity="1" stroke-width="0.2" stroke-linejoin="round" d="M 11.5,20.5L 6.98612,14.5099C 8.24198,13.5621 9.80535,13 11.5,13C 13.1946,13 14.7579,13.562 16.0138,14.5098L 11.5,20.5 Z M 11.5,18.8384L 14.5674,14.7678C 13.6537,14.2779 12.6093,14 11.5,14C 10.3907,14 9.34631,14.2779 8.43263,14.7678L 11.5,18.8384 Z M 11.5,4.00001C 15.2282,4.00001 18.6675,5.23647 21.4304,7.3217L 20.8286,8.12038C 18.2331,6.16154 15.0022,5 11.5,5C 7.99773,5 4.76677,6.16156 2.17133,8.12045L 1.56948,7.32178C 4.33237,5.23651 7.77179,4.00001 11.5,4.00001 Z M 11.5,10C 13.8724,10 16.0611,10.7868 17.8193,12.1138L 17.2175,12.9125C 15.6267,11.7119 13.6465,11 11.5,11C 9.35345,11 7.37318,11.7119 5.78242,12.9125L 5.18057,12.1139C 6.93878,10.7869 9.12749,10 11.5,10 Z M 11.5,7.00001C 14.5503,7.00001 17.3643,8.01166 19.6249,9.71774L 19.023,10.5164C 16.9299,8.93672 14.3244,8.00001 11.5,8.00001C 8.67559,8.00001 6.06997,8.93675 3.97688,10.5165L 3.37503,9.71782C 5.63557,8.01169 8.44964,7.00001 11.5,7.00001 Z "/>
</svg>
