<?xml version="1.0" encoding="utf-8"?>
<!DOCTYPE svg PUBLIC "-//W3C//DTD SVG 1.1//EN" "http://www.w3.org/Graphics/SVG/1.1/DTD/svg11.dtd">
<svg xmlns="http://www.w3.org/2000/svg" xmlns:xlink="http://www.w3.org/1999/xlink" version="1.1" baseProfile="full" width="24" height="24" viewBox="0 0 24.00 24.00" enable-background="new 0 0 24.00 24.00" xml:space="preserve">
	<path fill="#000000" fill-opacity="1" stroke-width="0.2" stroke-linejoin="round" d="M 11.5,6C 15.6421,6 19,9.35786 19,13.5C 19,17.6421 15.6421,21 11.5,21C 7.35786,21 4,17.6421 4,13.5C 4,9.35786 7.35786,6 11.5,6 Z M 11.5,7.00001C 7.91015,7.00001 5,9.91015 5,13.5C 5,17.0899 7.91015,20 11.5,20C 15.0898,20 18,17.0899 18,13.5C 18,9.91016 15.0898,7.00001 11.5,7.00001 Z M 11,9L 12,9L 12,13.3629L 15.0478,14.7842L 14.6252,15.6905L 11,14L 11,9 Z M 15.25,5.25L 15.8928,4.48395L 19.723,7.69789L 19.0802,8.46393L 15.25,5.25 Z M 7.74999,5.25L 3.91976,8.46394L 3.27698,7.69789L 7.1072,4.48395L 7.74999,5.25 Z "/>
</svg>
