<?xml version="1.0" encoding="utf-8"?>
<!DOCTYPE svg PUBLIC "-//W3C//DTD SVG 1.1//EN" "http://www.w3.org/Graphics/SVG/1.1/DTD/svg11.dtd">
<svg xmlns="http://www.w3.org/2000/svg" xmlns:xlink="http://www.w3.org/1999/xlink" version="1.1" baseProfile="full" width="24" height="24" viewBox="0 0 24.00 24.00" enable-background="new 0 0 24.00 24.00" xml:space="preserve">
	<path fill="#000000" fill-opacity="1" stroke-width="0.2" stroke-linejoin="round" d="M 6.00304,12L 14.2531,12L 11.003,8.74993L 11.6673,7.99999L 16.1672,12.5L 11.6672,17L 11.003,16.25L 14.253,13L 6.00304,13L 6.00304,12 Z M 21.003,12.5C 21.003,17.7467 16.7497,22 11.503,22C 6.25634,22 2.00304,17.7467 2.00304,12.5C 2.00304,7.25329 6.25634,3 11.503,3C 16.7497,3 21.003,7.25329 21.003,12.5 Z M 20.003,12.5C 20.003,7.80557 16.1975,3.99999 11.503,3.99999C 6.80862,3.99999 3.00304,7.80557 3.00304,12.5C 3.00304,17.1944 6.80862,21 11.503,21C 16.1975,21 20.003,17.1944 20.003,12.5 Z "/>
</svg>
