<?xml version="1.0" encoding="utf-8"?>
<!DOCTYPE svg PUBLIC "-//W3C//DTD SVG 1.1//EN" "http://www.w3.org/Graphics/SVG/1.1/DTD/svg11.dtd">
<svg xmlns="http://www.w3.org/2000/svg" xmlns:xlink="http://www.w3.org/1999/xlink" version="1.1" baseProfile="full" width="24" height="24" viewBox="0 0 24.00 24.00" enable-background="new 0 0 24.00 24.00" xml:space="preserve">
	<path fill="#000000" fill-opacity="1" stroke-width="0.2" stroke-linejoin="round" d="M 20,18L 19,18L 19,16L 20,16L 20,18 Z M 4,14L 3,14L 3,11L 4,11L 4,12L 19,12L 19,11L 20,11L 20,14L 19,14L 19,13L 4,13L 4,14 Z M 4,18L 3,18L 3,16L 4,16L 4,18 Z M 3,5.00001L 3,4.00001L 4,4.00001L 4,5.00001L 3,5.00001 Z M 3,7.00001L 4,7.00001L 4,9.00001L 3,9.00001L 3,7.00001 Z M 15,5.00001L 15,4.00001L 17,4.00001L 17,5.00001L 15,5.00001 Z M 5.99999,5.00001L 5.99999,4.00001L 7.99999,4.00001L 7.99999,5.00001L 5.99999,5.00001 Z M 9.99999,5.00001L 9.99999,4.00001L 13,4.00001L 13,5.00001L 12,5.00001L 12,6L 11,6L 11,5.00001L 9.99999,5.00001 Z M 20,9L 19,9L 19,7.00001L 20,7.00001L 20,9 Z M 19,5L 19,4L 20,4L 20,5L 19,5 Z M 12,17L 11,17L 11,15L 12,15L 12,17 Z M 12,10L 11,10L 11,8L 12,8L 12,10 Z M 3,20L 4,20L 4,21L 3,21L 3,20 Z M 15,20L 17,20L 17,21L 15,21L 15,20 Z M 5.99999,20L 7.99999,20L 7.99999,21L 5.99999,21L 5.99999,20 Z M 10,20L 11,20L 11,19L 12,19L 12,20L 13,20L 13,21L 10,21L 10,20 Z M 19,20L 20,20L 20,21L 19,21L 19,20 Z "/>
</svg>
