<?xml version="1.0" encoding="utf-8"?>
<!DOCTYPE svg PUBLIC "-//W3C//DTD SVG 1.1//EN" "http://www.w3.org/Graphics/SVG/1.1/DTD/svg11.dtd">
<svg xmlns="http://www.w3.org/2000/svg" xmlns:xlink="http://www.w3.org/1999/xlink" version="1.1" baseProfile="full" width="24" height="24" viewBox="0 0 24.00 24.00" enable-background="new 0 0 24.00 24.00" xml:space="preserve">
	<path fill="#000000" fill-opacity="1" stroke-width="1.33333" stroke-linejoin="miter" d="M 14,4L 11,7L 3,7C 1.34315,7 1.27157e-006,8.3431 1.27157e-006,10L 1.27157e-006,13C 1.27157e-006,14.6568 1.34315,16 3,16L 3,19C 3,20.1046 3.89543,21 5,21L 6,21C 7.10457,21 8,20.1046 8,19L 8,16L 11,16L 14,19L 16,19L 16,4L 14,4 Z M 14.4141,5L 15,5L 15,18L 14.4141,18L 11.4141,15L 3,15C 1.89543,15 1,14.1046 1,13L 1,10C 1,8.8954 1.89543,8 3,8L 11.4141,8L 14.4141,5 Z M 18,7L 18,8.0078C 19.6961,8.2504 21,9.7095 21,11.4727C 21,13.2359 19.6961,14.6948 18,14.9375L 18,15.9453C 20.25,15.6966 22,13.789 22,11.4727C 22,9.1564 20.25,7.2487 18,7 Z M 18,10.0586L 18,12.8867C 18.5826,12.6808 19,12.1258 19,11.4727C 19,10.8196 18.5826,10.2645 18,10.0586 Z M 4,16L 7,16L 7,19C 7,19.5523 6.55228,20 6,20L 5,20C 4.44772,20 4,19.5523 4,19L 4,16 Z "/>
</svg>
