<?xml version="1.0" encoding="utf-8"?>
<!DOCTYPE svg PUBLIC "-//W3C//DTD SVG 1.1//EN" "http://www.w3.org/Graphics/SVG/1.1/DTD/svg11.dtd">
<svg xmlns="http://www.w3.org/2000/svg" xmlns:xlink="http://www.w3.org/1999/xlink" version="1.1" baseProfile="full" width="24" height="24" viewBox="0 0 24.00 24.00" enable-background="new 0 0 24.00 24.00" xml:space="preserve">
	<path fill="#000000" fill-opacity="1" stroke-width="0.2" stroke-linejoin="round" d="M 7,2.00001L 8,2.00001C 8.55228,2.00001 9,2.44772 9,3.00001L 9,4L 14,4L 14,3C 14,2.44771 14.4477,2 15,2L 16,2C 16.5523,2 17,2.44771 17,3L 17,4C 18.6569,4 20,5.34315 20,7L 20,18C 20,19.6569 18.6569,21 17,21L 6,21C 4.34315,21 3,19.6569 3,18L 3,7C 3,5.34315 4.34314,4 6,4L 6,3.00001C 6,2.44772 6.44771,2.00001 7,2.00001 Z M 15,4L 16,4L 16,2.99999L 15,2.99999L 15,4 Z M 8,4L 8,3L 7,3L 7,4L 8,4 Z M 6,5.00001C 4.89543,5.00001 4,5.89544 4,7.00001L 4,8.00001L 19,8.00001L 19,7.00001C 19,5.89544 18.1046,5.00001 17,5.00001L 6,5.00001 Z M 4,18C 4,19.1046 4.89543,20 6,20L 17,20C 18.1046,20 19,19.1046 19,18L 19,9.00001L 4,9.00001L 4,18 Z M 12,13L 17,13L 17,18L 12,18L 12,13 Z M 13,14L 13,17L 16,17L 16,14L 13,14 Z "/>
</svg>
