<?xml version="1.0" encoding="utf-8"?>
<!DOCTYPE svg PUBLIC "-//W3C//DTD SVG 1.1//EN" "http://www.w3.org/Graphics/SVG/1.1/DTD/svg11.dtd">
<svg xmlns="http://www.w3.org/2000/svg" xmlns:xlink="http://www.w3.org/1999/xlink" version="1.1" baseProfile="full" width="24" height="24" viewBox="0 0 24.00 24.00" enable-background="new 0 0 24.00 24.00" xml:space="preserve">
	<path fill="#000000" fill-opacity="1" stroke-width="0.2" stroke-linejoin="round" d="M 2,4L 3,4L 3,20L 5,20L 5,10L 9,10L 9,20L 11,20L 11,6L 15,6L 15,20L 17,20L 17,14L 21,14L 21,21L 2,21L 2,4 Z M 18,15L 18,20L 20,20L 20,15L 18,15 Z M 12,7.00001L 12,20L 14,20L 14,7.00001L 12,7.00001 Z M 6,11L 6,20L 8,20L 8,11L 6,11 Z "/>
</svg>
