<?xml version="1.0" encoding="utf-8"?>
<!DOCTYPE svg PUBLIC "-//W3C//DTD SVG 1.1//EN" "http://www.w3.org/Graphics/SVG/1.1/DTD/svg11.dtd">
<svg xmlns="http://www.w3.org/2000/svg" xmlns:xlink="http://www.w3.org/1999/xlink" version="1.1" baseProfile="full" width="24" height="24" viewBox="0 0 24.00 24.00" enable-background="new 0 0 24.00 24.00" xml:space="preserve">
	<path fill="#000000" fill-opacity="1" stroke-width="0.2" stroke-linejoin="round" d="M 6,5.00001L 8.5,5.00001C 8.5,3.34316 9.84314,2.00001 11.5,2.00001C 13.1568,2.00001 14.5,3.34316 14.5,5.00001L 17,5.00001C 18.6568,5.00001 20,6.34315 20,8.00001L 20,19C 20,20.6569 18.6568,22 17,22L 6,22C 4.34314,22 3,20.6569 3,19L 3,8.00001C 3,6.34315 4.34314,5.00001 6,5.00001 Z M 5.99999,6.00002C 4.89543,6.00002 3.99999,6.89545 3.99999,8.00002L 3.99999,19C 3.99999,20.1046 4.89543,21 5.99999,21L 17,21C 18.1045,21 19,20.1046 19,19L 19,8.00002C 19,6.89545 18.1045,6.00002 17,6.00002L 16,6.00002L 16,9.00002L 6.99999,9.00002L 6.99999,6.00002L 5.99999,6.00002 Z M 8,8.00001L 15,8.00001L 15,6.00001L 8,6.00001L 8,8.00001 Z M 11.5,3.00001C 10.3954,3.00001 9.5,3.89544 9.5,5.00001L 13.5,5.00001C 13.5,3.89544 12.6046,3.00001 11.5,3.00001 Z M 6,11L 17,11L 17,12L 6,12L 6,11 Z M 6,14L 17,14L 17,15L 6,15L 6,14 Z M 6,17L 15,17L 15,18L 6,18L 6,17 Z "/>
</svg>
