<?xml version="1.0" encoding="utf-8"?>
<!DOCTYPE svg PUBLIC "-//W3C//DTD SVG 1.1//EN" "http://www.w3.org/Graphics/SVG/1.1/DTD/svg11.dtd">
<svg xmlns="http://www.w3.org/2000/svg" xmlns:xlink="http://www.w3.org/1999/xlink" version="1.1" baseProfile="full" width="24" height="24" viewBox="0 0 24.00 24.00" enable-background="new 0 0 24.00 24.00" xml:space="preserve">
	<path fill="#000000" fill-opacity="1" stroke-width="0.2" stroke-linejoin="round" d="M 4,5.00001L 19,5.00001C 20.6568,5.00001 22,6.34315 22,8.00001L 22,17C 22,18.6569 20.6568,20 19,20L 4,20C 2.34314,20 0.999998,18.6569 0.999998,17L 0.999999,8.00001C 0.999999,6.34315 2.34314,5.00001 4,5.00001 Z M 3.99999,6.00002C 2.89543,6.00002 2,6.89545 2,8.00002L 1.99999,17C 1.99999,18.1046 2.89542,19 3.99999,19L 19,19C 20.1045,19 21,18.1046 21,17L 21,8.00002C 21,6.89545 20.1045,6.00002 19,6.00002L 3.99999,6.00002 Z M 8.5,8C 9.48936,8 10.4042,8.31928 11.147,8.86043L 10.5587,9.66923C 9.98101,9.24833 9.2695,9 8.5,9C 6.567,9 5,10.567 5,12.5C 5,14.433 6.567,16 8.5,16C 9.2695,16 9.98101,15.7517 10.5587,15.3308L 11.147,16.1396C 10.4042,16.6807 9.48936,17 8.5,17C 6.01472,17 4,14.9853 4,12.5C 4,10.0147 6.01472,8 8.5,8 Z M 16.353,8C 17.3424,8 18.2572,8.31929 19,8.86043L 18.4118,9.66923C 17.8341,9.24833 17.1225,9 16.353,9C 14.42,9 12.853,10.567 12.853,12.5C 12.853,14.433 14.42,16 16.353,16C 17.1225,16 17.834,15.7517 18.4118,15.3308L 19,16.1396C 18.2572,16.6807 17.3424,17 16.353,17C 13.8678,17 11.853,14.9853 11.853,12.5C 11.853,10.0147 13.8678,8 16.353,8 Z "/>
</svg>
