<?xml version="1.0" encoding="utf-8"?>
<!DOCTYPE svg PUBLIC "-//W3C//DTD SVG 1.1//EN" "http://www.w3.org/Graphics/SVG/1.1/DTD/svg11.dtd">
<svg xmlns="http://www.w3.org/2000/svg" xmlns:xlink="http://www.w3.org/1999/xlink" version="1.1" baseProfile="full" width="24" height="24" viewBox="0 0 24.00 24.00" enable-background="new 0 0 24.00 24.00" xml:space="preserve">
	<path fill="#000000" fill-opacity="1" stroke-width="0.2" stroke-linejoin="round" d="M 5.5,20C 2.46243,20 0,17.5376 0,14.5C 0,11.463 2.46144,9.00099 5.49816,9C 6.47772,6.65105 8.79605,5 11.5,5C 14.9316,5 17.7421,7.6592 17.9832,11.0294L 18.5,11C 20.9853,11 23,13.0147 23,15.5C 23,17.9853 20.9853,20 18.5,20L 5.5,20 Z M 5.5,10C 3.01472,10 0.999999,12.0147 0.999999,14.5C 0.999999,16.9853 3.01472,19 5.5,19L 18.5,19C 20.433,19 22,17.433 22,15.5C 22,13.567 20.433,12 18.5,12C 17.9361,12 17.4033,12.1334 16.9315,12.3703L 17,11.5C 17,8.46244 14.5376,6 11.5,6C 8.96324,6 6.8276,7.7174 6.19234,10.0529L 5.5,10 Z M 12,10L 12,15.25L 14.25,13L 15,13.6643L 11.5,17.1642L 7.99998,13.6642L 8.74999,13L 11,15.25L 11,10L 12,10 Z "/>
</svg>
