<?xml version="1.0" encoding="utf-8"?>
<!DOCTYPE svg PUBLIC "-//W3C//DTD SVG 1.1//EN" "http://www.w3.org/Graphics/SVG/1.1/DTD/svg11.dtd">
<svg xmlns="http://www.w3.org/2000/svg" xmlns:xlink="http://www.w3.org/1999/xlink" version="1.1" baseProfile="full" width="24" height="24" viewBox="0 0 24.00 24.00" enable-background="new 0 0 24.00 24.00" xml:space="preserve">
	<path fill="#000000" fill-opacity="1" stroke-linejoin="round" d="M 19.5885,15.4916L 17.774,14.2015C 18.068,13.1221 18.087,11.9525 17.7686,10.7808L 19.5885,9.5065L 18.1359,6.99258L 16.1115,7.91891C 15.3236,7.12459 14.3202,6.52334 13.1463,6.21321L 12.9527,4L 10.0473,4L 9.85366,6.21321C 8.67978,6.52334 7.67635,7.12459 6.88854,7.91891L 4.86405,6.99258L 3.41152,9.5065L 5.23139,10.7808C 4.91304,11.9525 4.93202,13.1221 5.22601,14.2015L 3.41154,15.4916L 4.86405,17.9928L 6.88854,17.0664C 7.67635,17.8607 8.67978,18.462 9.85366,18.7721L 10.0473,20.9853L 12.9527,20.9853L 13.1463,18.7721C 14.3202,18.462 15.3236,17.8607 16.1115,17.0664L 18.1359,17.9928L 19.5885,15.4916 Z M 13.5051,2.98533C 13.7733,2.98533 13.9922,3.19651 14.0045,3.46167L 14.1826,5.49676C 14.9377,5.78489 15.6237,6.18605 16.226,6.67526L 18.0763,5.81248C 18.3121,5.69061 18.6044,5.77457 18.7385,6.00685L 20.7434,9.47752C 20.8775,9.7098 20.8041,10.005 20.5806,10.1482L 18.9072,11.32C 19.0352,12.118 19.0308,12.9126 18.9083,13.6789L 20.5806,14.8499C 20.8041,14.9931 20.8775,15.2883 20.7434,15.5206L 18.7385,18.9785C 18.6044,19.2108 18.3121,19.2947 18.0763,19.1728L 16.226,18.3101C 15.6237,18.7993 14.9377,19.2004 14.1826,19.4886L 14.0045,21.5237C 13.9922,21.7888 13.7733,22 13.5051,22L 9.49493,22C 9.22672,22 9.00783,21.7888 8.99548,21.5237L 8.81743,19.4886C 8.06233,19.2004 7.37633,18.7993 6.77398,18.3101L 4.92374,19.1728C 4.68794,19.2947 4.3956,19.2108 4.2615,18.9785L 2.2566,15.5206C 2.12249,15.2883 2.19594,14.9931 2.4194,14.8499L 4.0917,13.6789C 3.96921,12.9126 3.96479,12.118 4.09281,11.32L 2.4194,10.1482C 2.19594,10.005 2.12249,9.7098 2.2566,9.47752L 4.2615,6.00685C 4.3956,5.77457 4.68794,5.69061 4.92374,5.81249L 6.77398,6.67526C 7.37633,6.18605 8.06233,5.78489 8.81743,5.49676L 8.99548,3.46167C 9.00783,3.19651 9.22672,2.98533 9.49493,2.98533L 13.5051,2.98533 Z M 11.5,9C 13.433,9 15,10.567 15,12.5C 15,14.433 13.433,16 11.5,16C 9.567,16 8,14.433 8,12.5C 8,10.567 9.567,9 11.5,9 Z M 11.5,10C 10.1193,10 9,11.1193 9,12.5C 9,13.8807 10.1193,15 11.5,15C 12.8807,15 14,13.8807 14,12.5C 14,11.1193 12.8807,10 11.5,10 Z "/>
</svg>
