<?xml version="1.0" encoding="utf-8"?>
<!DOCTYPE svg PUBLIC "-//W3C//DTD SVG 1.1//EN" "http://www.w3.org/Graphics/SVG/1.1/DTD/svg11.dtd">
<svg xmlns="http://www.w3.org/2000/svg" xmlns:xlink="http://www.w3.org/1999/xlink" version="1.1" baseProfile="full" width="24" height="24" viewBox="0 0 24.00 24.00" enable-background="new 0 0 24.00 24.00" xml:space="preserve">
	<path fill="#000000" fill-opacity="1" stroke-width="0.2" stroke-linejoin="round" d="M 7,21L 7,16L 6,16L 6,15L 7,15L 7,12L 6,12L 6,11L 7,11L 7,4L 14,4C 16.2091,4 18,5.79086 18,8C 18,10.2091 16.2091,12 14,12L 8,12L 8,15L 14,15L 14,16L 8,16L 8,21L 7,21 Z M 8,11L 14,11C 15.6568,11 17,9.65684 17,7.99998C 17,6.34313 15.6568,4.99998 14,4.99998L 8,4.99998L 8,11 Z "/>
</svg>
