<?xml version="1.0" encoding="utf-8"?>
<!DOCTYPE svg PUBLIC "-//W3C//DTD SVG 1.1//EN" "http://www.w3.org/Graphics/SVG/1.1/DTD/svg11.dtd">
<svg xmlns="http://www.w3.org/2000/svg" xmlns:xlink="http://www.w3.org/1999/xlink" version="1.1" baseProfile="full" width="24" height="24" viewBox="0 0 24.00 24.00" enable-background="new 0 0 24.00 24.00" xml:space="preserve">
	<path fill="#000000" fill-opacity="1" stroke-width="0.2" stroke-linejoin="round" d="M 18,19C 18,20.6569 16.6568,22 15,22L 7.99999,22C 6.34314,22 5,20.6569 5,19L 4.99999,7.00003L 4,7.00001L 4,4.00002L 8.49999,4.00001L 9.49999,3.00001L 13.5,3.00002L 14.5,4.00002L 19,4.00002L 19,7.00001L 18,7.00003L 18,19 Z M 5.99998,7.00003L 5.99999,19C 5.99999,20.1046 6.89542,21 7.99999,21L 15,21C 16.1046,21 17,20.1046 17,19L 17,7.00003L 5.99998,7.00003 Z M 18,6.00002L 18,5.00002L 14,5.00001L 13,4.00001L 10,4.00001L 8.99999,5.00001L 4.99999,5.00002L 4.99999,6.00002L 18,6.00002 Z M 7.99999,9.00001L 8.99999,9.00001L 8.99999,19L 7.99999,19L 7.99999,9.00001 Z M 14,9.00001L 15,9.00001L 15,19L 14,19L 14,9.00001 Z "/>
</svg>
