<?xml version="1.0" encoding="utf-8"?>
<!DOCTYPE svg PUBLIC "-//W3C//DTD SVG 1.1//EN" "http://www.w3.org/Graphics/SVG/1.1/DTD/svg11.dtd">
<svg xmlns="http://www.w3.org/2000/svg" xmlns:xlink="http://www.w3.org/1999/xlink" version="1.1" baseProfile="full" width="24" height="24" viewBox="0 0 24.00 24.00" enable-background="new 0 0 24.00 24.00" xml:space="preserve">
	<path fill="#000000" fill-opacity="1" stroke-width="0.2" stroke-linejoin="round" d="M 11.5,18C 15.4888,18 18.9581,15.7758 20.7354,12.5C 18.9581,9.22419 15.4888,7 11.5,7C 7.5112,7 4.04188,9.22419 2.26462,12.5C 4.04188,15.7758 7.5112,18 11.5,18 Z M 11.5,6C 16.0593,6 19.999,8.65327 21.8591,12.5C 19.999,16.3467 16.0593,19 11.5,19C 6.94066,19 3.00102,16.3467 1.14091,12.5C 3.00102,8.65328 6.94066,6 11.5,6 Z M 11.5,8C 13.9853,8 16,10.0147 16,12.5C 16,14.9853 13.9853,17 11.5,17C 9.01472,17 7,14.9853 7,12.5C 7,10.0147 9.01472,8 11.5,8 Z M 11.5,9C 9.567,9 8,10.567 8,12.5C 8,14.433 9.567,16 11.5,16C 13.433,16 15,14.433 15,12.5C 15,10.567 13.433,9 11.5,9 Z "/>
</svg>
