<?xml version="1.0" encoding="utf-8"?>
<!DOCTYPE svg PUBLIC "-//W3C//DTD SVG 1.1//EN" "http://www.w3.org/Graphics/SVG/1.1/DTD/svg11.dtd">
<svg xmlns="http://www.w3.org/2000/svg" xmlns:xlink="http://www.w3.org/1999/xlink" version="1.1" baseProfile="full" width="24" height="24" viewBox="0 0 24.00 24.00" enable-background="new 0 0 24.00 24.00" xml:space="preserve">
	<path fill="#000000" fill-opacity="1" stroke-width="1.33333" stroke-linejoin="miter" d="M 7,3C 5.34314,3 4,4.3431 4,6L 4,19C 4,20.6569 5.34314,22 7,22L 16,22C 17.6568,22 19,20.6569 19,19L 19,10L 12,3L 7,3 Z M 7,4L 11,4L 11,8C 11,9.6569 12.3431,11 14,11L 18,11L 18,19C 18,20.1046 17.1046,21 16,21L 7,21C 5.89543,21 5,20.1046 5,19L 5,6C 5,4.8954 5.89543,4 7,4 Z M 12,4.4141L 17.5859,10L 14,10C 12.8954,10 12,9.1046 12,8L 12,4.4141 Z M 7.5,10L 7.5,15L 8.5,15L 8.5,10L 7.5,10 Z M 7.5,17L 7.5,19L 8.5,19L 8.5,17L 7.5,17 Z "/>
</svg>
