<?xml version="1.0" encoding="utf-8"?>
<!DOCTYPE svg PUBLIC "-//W3C//DTD SVG 1.1//EN" "http://www.w3.org/Graphics/SVG/1.1/DTD/svg11.dtd">
<svg xmlns="http://www.w3.org/2000/svg" xmlns:xlink="http://www.w3.org/1999/xlink" version="1.1" baseProfile="full" width="24" height="24" viewBox="0 0 24.00 24.00" enable-background="new 0 0 24.00 24.00" xml:space="preserve">
	<path fill="#000000" fill-opacity="1" stroke-width="0.2" stroke-linejoin="round" d="M 4,4L 5,4L 5,6L 7,6L 7,4L 16,4L 16,6.00001L 18,6.00001L 18,4.00001L 19,4.00001L 19,21L 18,21L 18,19L 16,19L 16,21L 7,21L 7,19L 5,19L 5,21L 4,21L 4,4 Z M 7,7L 5,7L 5,10L 7,10L 7,7 Z M 7,11L 5,11L 5,14L 7,14L 7,11 Z M 7,15L 5,15L 5,18L 7,18L 7,15 Z M 16,18L 18,18L 18,15L 16,15L 16,18 Z M 16,14L 18,14L 18,11L 16,11L 16,14 Z M 16,10L 18,10L 18,7.00001L 16,7.00001L 16,10 Z M 8,5L 8,12L 15,12L 15,5L 8,5 Z M 8,13L 8,20L 15,20L 15,13L 8,13 Z "/>
</svg>
