<?xml version="1.0" encoding="utf-8"?>
<!DOCTYPE svg PUBLIC "-//W3C//DTD SVG 1.1//EN" "http://www.w3.org/Graphics/SVG/1.1/DTD/svg11.dtd">
<svg xmlns="http://www.w3.org/2000/svg" xmlns:xlink="http://www.w3.org/1999/xlink" version="1.1" baseProfile="full" width="24" height="24" viewBox="0 0 24.00 24.00" enable-background="new 0 0 24.00 24.00" xml:space="preserve">
	<path fill="#000000" fill-opacity="1" stroke-width="0.2" stroke-linejoin="round" d="M 20,18L 20,19L 7,19L 7,18L 20,18 Z M 3.5,17.5C 4.05228,17.5 4.5,17.9477 4.5,18.5C 4.5,19.0523 4.05228,19.5 3.5,19.5C 2.94771,19.5 2.5,19.0523 2.5,18.5C 2.5,17.9477 2.94771,17.5 3.5,17.5 Z M 20,12L 20,13L 7,13L 7,12L 20,12 Z M 3.5,11.5C 4.05229,11.5 4.5,11.9477 4.5,12.5C 4.5,13.0523 4.05229,13.5 3.5,13.5C 2.94772,13.5 2.5,13.0523 2.5,12.5C 2.5,11.9477 2.94772,11.5 3.5,11.5 Z M 20,6L 20,7L 7,7L 7,6L 20,6 Z M 3.5,5.5C 4.05228,5.5 4.5,5.94772 4.5,6.5C 4.5,7.05229 4.05228,7.5 3.5,7.5C 2.94771,7.5 2.5,7.05229 2.5,6.5C 2.5,5.94772 2.94771,5.5 3.5,5.5 Z "/>
</svg>
