<?xml version="1.0" encoding="utf-8"?>
<!DOCTYPE svg PUBLIC "-//W3C//DTD SVG 1.1//EN" "http://www.w3.org/Graphics/SVG/1.1/DTD/svg11.dtd">
<svg xmlns="http://www.w3.org/2000/svg" xmlns:xlink="http://www.w3.org/1999/xlink" version="1.1" baseProfile="full" width="24" height="24" viewBox="0 0 24.00 24.00" enable-background="new 0 0 24.00 24.00" xml:space="preserve">
	<path fill="#000000" fill-opacity="1" stroke-linejoin="round" d="M 7,8L 7,13L 13,13L 13,8L 7,8 Z M 2,3.00002L 5,3.00002L 5,4.00001L 18,4.00002L 18,3.00002L 21,3.00002L 21,6.00002L 20,6.00002L 20,19L 21,19L 21,22L 18,22L 18,21L 5,21L 5,22L 2,22L 2,19L 3,19L 3,6.00001L 2,6.00001L 2,3.00002 Z M 5,19L 5,20L 18,20L 18,19L 19,19L 19,6.00003L 18,6.00003L 18,5.00003L 4.99999,5.00002L 4.99999,6.00002L 4,6.00002L 4,19L 5,19 Z M 6,7.00001L 14,7.00001L 14,11L 17,11L 17,18L 7.99999,18L 7.99999,14L 5.99999,14L 6,7.00001 Z M 14,14L 8.99999,14L 9,17L 16,17L 16,12L 14,12L 14,14 Z M 3,4.00001L 3,5.00001L 4,5.00001L 4,4.00001L 3,4.00001 Z M 19,4L 19,5L 20,5L 20,4L 19,4 Z M 19,20L 19,21L 20,21L 20,20L 19,20 Z M 3,20L 3,21L 4,21L 4,20L 3,20 Z "/>
</svg>
