<?xml version="1.0" encoding="utf-8"?>
<!DOCTYPE svg PUBLIC "-//W3C//DTD SVG 1.1//EN" "http://www.w3.org/Graphics/SVG/1.1/DTD/svg11.dtd">
<svg xmlns="http://www.w3.org/2000/svg" xmlns:xlink="http://www.w3.org/1999/xlink" version="1.1" baseProfile="full" width="24" height="24" viewBox="0 0 24.00 24.00" enable-background="new 0 0 24.00 24.00" xml:space="preserve">
	<path fill="#000000" fill-opacity="1" stroke-width="0.2" stroke-linejoin="round" d="M 15,3L 9,3C 7.34315,3 6,4.34315 6,6L 6,10L 7,10L 7,6C 7,4.89543 7.89543,4 9,4L 15,4C 16.1046,4 17,4.89543 17,6L 17,19C 17,20.1046 16.1046,21 15,21L 9,21C 7.89543,21 7,20.1046 7,19L 7,15L 6,15L 6,19C 6,20.6569 7.34315,22 9,22L 15,22C 16.6569,22 18,20.6569 18,19L 18,6C 18,4.34315 16.6569,3 15,3 Z M 3,12L 13.25,12L 10,8.74995L 10.6643,8L 15.1642,12.5L 10.6642,17L 10,16.25L 13.25,13L 3,13L 3,12 Z "/>
</svg>
