<?xml version="1.0" encoding="utf-8"?>
<!DOCTYPE svg PUBLIC "-//W3C//DTD SVG 1.1//EN" "http://www.w3.org/Graphics/SVG/1.1/DTD/svg11.dtd">
<svg xmlns="http://www.w3.org/2000/svg" xmlns:xlink="http://www.w3.org/1999/xlink" version="1.1" baseProfile="full" width="24" height="24" viewBox="0 0 24.00 24.00" enable-background="new 0 0 24.00 24.00" xml:space="preserve">
	<path fill="#000000" fill-opacity="1" stroke-width="0.2" stroke-linejoin="round" d="M 2.79289,4.45711L 3.5,3.75L 15.2621,15.5121L 15.9695,16.2195L 20.25,20.5L 19.5429,21.2071L 15.1886,16.8528C 14.2693,17.4874 13.1786,17.8914 12,17.9811L 12,21L 11,21L 11,17.9811C 7.64378,17.7258 4.99999,14.9216 4.99999,11.5L 4.99999,11L 6,11L 6,11.5C 6,14.5376 8.46243,17 11.5,17C 12.5929,17 13.6113,16.6812 14.4674,16.1316L 12.2281,13.8923C 11.9977,13.9623 11.7533,14 11.5,14C 10.1193,14 9,12.8807 9,11.5L 8.99999,10.6642L 2.79289,4.45711 Z M 17,11.5L 17,11L 18,11L 18,11.5C 18,12.9982 17.4931,14.378 16.6415,15.4773L 15.9276,14.7634C 16.6016,13.8505 17,12.7218 17,11.5 Z M 11.5,3.00002C 12.8807,3.00002 14,4.11931 14,5.50002L 14,11.5C 14,11.8898 13.9108,12.2587 13.7517,12.5875L 12.969,11.8048L 13,11.5L 13,5.50002C 13,4.67159 12.3284,4.00002 11.5,4.00002C 10.6716,4.00002 9.99999,4.67159 9.99999,5.50002L 10,8.83578L 8.99999,7.83578L 8.99999,5.50002C 8.99999,4.11931 10.1193,3.00002 11.5,3.00002 Z M 10.01,11.6742C 10.0897,12.3634 10.6366,12.9103 11.3258,12.99L 10.01,11.6742 Z "/>
</svg>
