<?xml version="1.0" encoding="utf-8"?>
<!DOCTYPE svg PUBLIC "-//W3C//DTD SVG 1.1//EN" "http://www.w3.org/Graphics/SVG/1.1/DTD/svg11.dtd">
<svg xmlns="http://www.w3.org/2000/svg" xmlns:xlink="http://www.w3.org/1999/xlink" version="1.1" baseProfile="full" width="24" height="24" viewBox="0 0 24.00 24.00" enable-background="new 0 0 24.00 24.00" xml:space="preserve">
	<path fill="#000000" fill-opacity="1" stroke-width="0.2" stroke-linejoin="round" d="M 6,5L 19,5C 20.6569,5 22,6.34315 22,8L 22,15C 22,16.6569 20.6569,18 19,18L 14.4917,18L 15,21L 16,21L 16,22L 9,22L 9,21L 10,21L 10.5083,18L 6,18C 4.34315,18 3,16.6569 3,15L 3,8C 3,6.34315 4.34315,5 6,5 Z M 11.5083,18L 11,21L 14,21L 13.4917,18L 11.5083,18 Z M 6,6.00001C 4.89543,6.00001 4,6.89544 4,8.00001L 4,15C 4,16.1046 4.89543,17 6,17L 19,17C 20.1046,17 21,16.1046 21,15L 21,8.00001C 21,6.89544 20.1046,6.00001 19,6.00001L 6,6.00001 Z M 1.00001,8.00001C 1.00001,5.23859 3.23859,3.00001 6.00001,3.00001L 18,3L 18,4.00001L 6.00002,4.00003C 3.79089,4.00003 2.00002,5.79089 2.00002,8.00003L 2.00001,14L 1,14L 1.00001,8.00001 Z "/>
</svg>
