<?xml version="1.0" encoding="utf-8"?>
<!DOCTYPE svg PUBLIC "-//W3C//DTD SVG 1.1//EN" "http://www.w3.org/Graphics/SVG/1.1/DTD/svg11.dtd">
<svg xmlns="http://www.w3.org/2000/svg" xmlns:xlink="http://www.w3.org/1999/xlink" version="1.1" baseProfile="full" width="24" height="24" viewBox="0 0 24.00 24.00" enable-background="new 0 0 24.00 24.00" xml:space="preserve">
	<path fill="#000000" fill-opacity="1" stroke-width="0.2" stroke-linejoin="round" d="M 2.79289,4.45711L 3.5,3.75L 20.25,20.5L 19.5429,21.2071L 17.1198,18.784C 16.7738,18.9233 16.3959,19 16,19C 14.3431,19 13,17.6568 13,16C 13,15.6041 13.0767,15.2262 13.216,14.8802L 9,10.6642L 9,17C 9,18.6569 7.65685,20 6,20C 4.34315,20 3,18.6569 3,17C 3,15.3432 4.34315,14 6,14C 6.76835,14 7.46924,14.2888 8,14.7639L 8,9.66421L 2.79289,4.45711 Z M 7.99999,6.10434L 19,4.98701L 19,16C 19,16.5292 18.8629,17.0265 18.6224,17.4582L 17.8714,16.7072C 17.9545,16.4873 18,16.249 18,16C 18,14.8954 17.1046,14 16,14C 15.751,14 15.5127,14.0455 15.2928,14.1286L 14.5418,13.3776C 14.9735,13.137 15.4707,13 16,13C 16.7684,13 17.4692,13.2888 18,13.7639L 18,9.04362L 10.9826,9.81835L 10.0765,8.91231L 18,8.03755L 18,6.09373L 9,7.00792L 9,7.83578L 7.99999,6.83578L 7.99999,6.10434 Z M 14,16C 14,17.1046 14.8954,18 16,18C 16.106,18 16.2101,17.9917 16.3116,17.9759L 14.0241,15.6883C 14.0082,15.7899 14,15.894 14,16 Z M 8,17C 7.99999,15.8954 7.10457,15 5.99999,15C 4.89543,15 4,15.8954 4,17C 4,18.1046 4.89543,19 5.99999,19C 7.10456,19 8,18.1046 8,17 Z "/>
</svg>
