<?xml version="1.0" encoding="utf-8"?>
<!DOCTYPE svg PUBLIC "-//W3C//DTD SVG 1.1//EN" "http://www.w3.org/Graphics/SVG/1.1/DTD/svg11.dtd">
<svg xmlns="http://www.w3.org/2000/svg" xmlns:xlink="http://www.w3.org/1999/xlink" version="1.1" baseProfile="full" width="24" height="24" viewBox="0 0 24.00 24.00" enable-background="new 0 0 24.00 24.00" xml:space="preserve">
	<path fill="#000000" fill-opacity="1" stroke-width="0.2" stroke-linejoin="round" d="M 17,7.00001L 17,17.5C 17,20.54 14.54,23 11.5,23C 8.46,23 6,20.54 6,17.5L 6,6.00001C 6,3.79001 7.79,2.00001 10,2.00001C 12.21,2.00001 14,3.79001 14,6.00001L 14,16.5C 14,17.88 12.88,19 11.5,19C 10.12,19 9,17.88 9,16.5L 9,7.00001L 9.99999,7.00001L 9.99999,16.5C 9.99999,17.3284 10.6716,18 11.5,18C 12.3284,18 13,17.3284 13,16.5L 13,7.14847L 13,7.00001L 13,6.00001C 13,4.34315 11.6568,3.00001 9.99999,3.00001C 8.34314,3.00001 7,4.34315 7,6.00001L 7,16.4447L 7,17.5C 7,19.9853 9.01472,22 11.5,22C 13.9853,22 16,19.9853 16,17.5L 16,7.00001L 17,7.00001 Z "/>
</svg>
