<?xml version="1.0" encoding="utf-8"?>
<!DOCTYPE svg PUBLIC "-//W3C//DTD SVG 1.1//EN" "http://www.w3.org/Graphics/SVG/1.1/DTD/svg11.dtd">
<svg xmlns="http://www.w3.org/2000/svg" xmlns:xlink="http://www.w3.org/1999/xlink" version="1.1" baseProfile="full" width="24" height="24" viewBox="0 0 24.00 24.00" enable-background="new 0 0 24.00 24.00" xml:space="preserve">
	<path fill="#000000" fill-opacity="1" stroke-width="0.2" stroke-linejoin="round" d="M 5,3L 18,3C 19.6569,3 21,4.34315 21,6L 21,19C 21,20.6569 19.6569,22 18,22L 5,22C 3.34315,22 2,20.6569 2,19L 2,6C 2,4.34315 3.34315,3 5,3 Z M 5,4.00001C 3.89543,4.00001 3,4.89544 3,6.00001L 3,17.5858L 7.29289,13.2929L 9.79289,15.7929L 14.7929,10.7929L 20,16L 20,6.00001C 20,4.89544 19.1046,4.00001 18,4.00001L 5,4.00001 Z M 9.79289,17.2071L 7.29289,14.7071L 3,19C 3,20.1046 3.89543,21 5,21L 18,21C 19.1046,21 20,20.1046 20,19L 20,17.4142L 14.7929,12.2071L 9.79289,17.2071 Z M 7.5,6.00001C 8.88071,6.00001 10,7.1193 10,8.50001C 10,9.88072 8.88071,11 7.5,11C 6.11928,11 5,9.88072 5,8.50001C 5,7.1193 6.11928,6.00001 7.5,6.00001 Z M 7.5,7.00001C 6.67157,7.00001 6,7.67159 6,8.50001C 6,9.32843 6.67157,10 7.5,10C 8.32842,10 9,9.32843 9,8.50001C 9,7.67159 8.32842,7.00001 7.5,7.00001 Z "/>
</svg>
