<?xml version="1.0" encoding="utf-8"?>
<!DOCTYPE svg PUBLIC "-//W3C//DTD SVG 1.1//EN" "http://www.w3.org/Graphics/SVG/1.1/DTD/svg11.dtd">
<svg xmlns="http://www.w3.org/2000/svg" xmlns:xlink="http://www.w3.org/1999/xlink" version="1.1" baseProfile="full" width="24" height="24" viewBox="0 0 24.00 24.00" enable-background="new 0 0 24.00 24.00" xml:space="preserve">
	<path fill="#000000" fill-opacity="1" stroke-width="0.2" stroke-linejoin="round" d="M 14.0006,12.4148L 14.0001,5L 15,5L 15,4L 8,4L 8,5L 9.00007,5L 9.00057,12.4136L 7,14.4142L 7,15L 16,15L 16,14.4142L 14.0006,12.4148 Z M 16.9991,13.9981L 16.9991,13.9991L 17,14L 16.9991,14.0009L 16.9991,15.9981L 12,16L 11.9999,20.5L 11.4999,22L 10.9999,20.5L 11,16L 5.99939,15.9981L 5.99939,13.9981L 6.00193,13.9981L 7.99991,12.0001L 7.99926,5.99811L 6.99926,5.99811L 6.99927,2.9981L 15.9989,2.99813L 15.9989,5.99814L 14.9991,5.99814L 14.9998,11.9998L 16.9981,13.9981L 16.9991,13.9981 Z "/>
</svg>
