<?xml version="1.0" encoding="utf-8"?>
<!DOCTYPE svg PUBLIC "-//W3C//DTD SVG 1.1//EN" "http://www.w3.org/Graphics/SVG/1.1/DTD/svg11.dtd">
<svg xmlns="http://www.w3.org/2000/svg" xmlns:xlink="http://www.w3.org/1999/xlink" version="1.1" baseProfile="full" width="24" height="24" viewBox="0 0 24.00 24.00" enable-background="new 0 0 24.00 24.00" xml:space="preserve">
	<path fill="#000000" fill-opacity="1" stroke-width="0.2" stroke-linejoin="round" d="M 2,21L 2,16L 6,16L 6,21L 2,21 Z M 3,17L 3,20L 5,20L 5,17L 3,17 Z M 7,21L 7,12L 11,12L 11,21L 7,21 Z M 8,13L 8,20L 10,20L 10,13L 8,13 Z M 12,21L 12,8L 16,8L 16,21L 12,21 Z M 13,9L 13,20L 15,20L 15,9L 13,9 Z M 17,21L 17,4L 21,4L 21,21L 17,21 Z M 18,5L 18,20L 20,20L 20,5L 18,5 Z "/>
</svg>
