<?xml version="1.0" encoding="utf-8"?>
<!DOCTYPE svg PUBLIC "-//W3C//DTD SVG 1.1//EN" "http://www.w3.org/Graphics/SVG/1.1/DTD/svg11.dtd">
<svg xmlns="http://www.w3.org/2000/svg" xmlns:xlink="http://www.w3.org/1999/xlink" version="1.1" baseProfile="full" width="24" height="24" viewBox="0 0 24.00 24.00" enable-background="new 0 0 24.00 24.00" xml:space="preserve">
	<path fill="#000000" fill-opacity="1" stroke-width="1.33333" stroke-linejoin="miter" d="M 11,3L 4,10L 4,19C 4,20.6569 5.3432,22 7,22L 16,22C 17.6569,22 19,20.6569 19,19L 19,6C 19,4.3431 17.6569,3 16,3L 11,3 Z M 11.4141,4L 16,4C 17.1046,4 18,4.8954 18,6L 18,19C 18,20.1046 17.1046,21 16,21L 7,21C 5.8954,21 5,20.1046 5,19L 5,10.4141L 11.4141,4 Z M 11,9L 11,14L 12,14L 12,9L 11,9 Z M 11,16L 11,18L 12,18L 12,16L 11,16 Z "/>
</svg>
