<?xml version="1.0" encoding="utf-8"?>
<!DOCTYPE svg PUBLIC "-//W3C//DTD SVG 1.1//EN" "http://www.w3.org/Graphics/SVG/1.1/DTD/svg11.dtd">
<svg xmlns="http://www.w3.org/2000/svg" xmlns:xlink="http://www.w3.org/1999/xlink" version="1.1" baseProfile="full" width="24" height="24" viewBox="0 0 24.00 24.00" enable-background="new 0 0 24.00 24.00" xml:space="preserve">
	<path fill="#000000" fill-opacity="1" stroke-width="0.2" stroke-linejoin="round" d="M 2.79289,4.45711L 3.5,3.75L 20.25,20.5L 19.5429,21.2071L 14,15.6642L 14,16L 8.99999,16L 8.99999,15L 10.8582,12.5224L 2.79289,4.45711 Z M 2,13L 7,13L 7,14L 3.25953,19L 7,19L 7,20L 2,20L 2,19L 5.75001,14L 2,14L 2,13 Z M 14,9.00001L 14,10L 12.7864,11.6222L 12.0704,10.9062L 12.75,10L 11.1642,10L 10.1642,9.00001L 14,9.00001 Z M 10.2595,15L 13.3358,15L 11.576,13.2402L 10.2595,15 Z M 16,5.00001L 21,5.00001L 21,6.00001L 17.2595,11L 21,11L 21,12L 16,12L 16,11L 19.75,6.00001L 16,6.00001L 16,5.00001 Z "/>
</svg>
