<?xml version="1.0" encoding="utf-8"?>
<!DOCTYPE svg PUBLIC "-//W3C//DTD SVG 1.1//EN" "http://www.w3.org/Graphics/SVG/1.1/DTD/svg11.dtd">
<svg xmlns="http://www.w3.org/2000/svg" xmlns:xlink="http://www.w3.org/1999/xlink" version="1.1" baseProfile="full" width="24" height="24" viewBox="0 0 24.00 24.00" enable-background="new 0 0 24.00 24.00" xml:space="preserve">
	<path fill="#000000" fill-opacity="1" stroke-width="0.2" stroke-linejoin="round" d="M 21,15L 18,15C 17.4477,15 17,14.5523 17,14L 17,5C 17,4.44772 17.4477,4 18,4L 21,4C 21.5523,4 22,4.44772 22,5L 22,14C 22,14.5523 21.5523,15 21,15 Z M 21,14L 21,5L 18,5L 18,14L 21,14 Z M 5.28374,5.97493L 2.28267,10.9743C 2.10317,11.2742 1.99999,11.6251 1.99999,12L 1.99999,13C 1.99999,14.1046 2.89543,15 4,15L 9.60994,15L 8.15248,20.4393L 8.14758,20.4576C 8.05837,20.7912 8.1447,21.1618 8.4064,21.4235L 14.415,15.415L 14.4142,15.4142C 14.7761,15.0523 15,14.5523 15,14L 15,6.99999C 15,5.89543 14.1046,5 13,5L 6.99999,5C 6.27037,5 5.632,5.3907 5.28374,5.97493 Z M 0.999995,12C 0.999995,11.4065 1.17234,10.8533 1.46971,10.3876L 4.37571,5.5452C 4.88769,4.62363 5.87101,4 6.99999,4L 13,4C 14.6568,4 16,5.34315 16,7L 16,14C 16,14.8275 15.665,15.5767 15.1232,16.1195L 8.40641,22.8378L 7.6993,22.1306C 7.16623,21.5976 6.99698,20.8385 7.19155,20.1619L 8.30672,16L 3.99999,16C 2.34314,16 0.999995,14.6569 0.999995,13L 0.999995,12 Z "/>
</svg>
