<?xml version="1.0" encoding="utf-8"?>
<!DOCTYPE svg PUBLIC "-//W3C//DTD SVG 1.1//EN" "http://www.w3.org/Graphics/SVG/1.1/DTD/svg11.dtd">
<svg xmlns="http://www.w3.org/2000/svg" xmlns:xlink="http://www.w3.org/1999/xlink" version="1.1" baseProfile="full" width="24" height="24" viewBox="0 0 24.00 24.00" enable-background="new 0 0 24.00 24.00" xml:space="preserve">
	<path fill="#000000" fill-opacity="1" stroke-width="0.2" stroke-linejoin="round" d="M 2.79289,4.45711L 3.5,3.75L 20.25,20.5L 19.5429,21.2071L 17.302,18.9662C 16.3222,19.5436 15.1996,19.9046 14,19.9836L 14,18.9811C 14.9232,18.9108 15.7925,18.6477 16.5678,18.232L 15.0586,16.7228C 14.7227,16.8468 14.3681,16.9319 14,16.9725L 14,15.9646C 14.0858,15.9523 14.1706,15.9369 14.2543,15.9185L 12,13.6642L 12,20L 10,20L 6,16L 2,16L 2,9L 6,9L 6.6679,8.33211L 2.79289,4.45711 Z M 21,12.5C 21,14.5293 20.194,16.3704 18.8848,17.7206L 18.1776,17.0134C 19.3059,15.8442 20,14.2532 20,12.5C 20,9.07839 17.3562,6.27427 14,6.01895L 14,5.01641C 17.909,5.2737 21,8.52588 21,12.5 Z M 18,12.5C 18,13.7009 17.5296,14.7919 16.763,15.5988L 16.0556,14.8914C 16.6414,14.2657 17,13.4247 17,12.5C 17,10.7368 15.6961,9.27807 14,9.03546L 14,8.02747C 16.25,8.2762 18,10.1837 18,12.5 Z M 15,12.5C 15,12.8724 14.8643,13.2131 14.6396,13.4754L 14,12.8358L 14,11.0854C 14.5826,11.2913 15,11.8469 15,12.5 Z M 6.41421,10L 3,10L 3,15L 6.41421,15L 10.4142,19L 11,19L 11,12.6642L 7.375,9.03922L 6.41421,10 Z M 10,5.00001L 12,5.00001L 12,10.8358L 11,9.83578L 11,6.00001L 10.4142,6.00001L 8.78921,7.625L 8.08211,6.9179L 10,5.00001 Z "/>
</svg>
