<?xml version="1.0" encoding="utf-8"?>
<!DOCTYPE svg PUBLIC "-//W3C//DTD SVG 1.1//EN" "http://www.w3.org/Graphics/SVG/1.1/DTD/svg11.dtd">
<svg xmlns="http://www.w3.org/2000/svg" xmlns:xlink="http://www.w3.org/1999/xlink" version="1.1" baseProfile="full" width="24" height="24" viewBox="0 0 24.00 24.00" enable-background="new 0 0 24.00 24.00" xml:space="preserve">
	<path fill="#000000" fill-opacity="1" stroke-width="0.2" stroke-linejoin="round" d="M 2,9L 6,9L 10,5L 12,5L 12,20L 10,20L 6,16L 2,16L 2,9 Z M 3,15L 6.41421,15L 10.4142,19L 11,19L 11,6.00001L 10.4142,6.00001L 6.41421,10L 3,10L 3,15 Z M 13.9645,15.3284L 16.7929,12.5L 13.9645,9.67158L 14.6716,8.96447L 17.5,11.7929L 20.3284,8.96447L 21.0355,9.67157L 18.2071,12.5L 21.0355,15.3284L 20.3284,16.0355L 17.5,13.2071L 14.6716,16.0355L 13.9645,15.3284 Z "/>
</svg>
