<?xml version="1.0" encoding="utf-8"?>
<!DOCTYPE svg PUBLIC "-//W3C//DTD SVG 1.1//EN" "http://www.w3.org/Graphics/SVG/1.1/DTD/svg11.dtd">
<svg xmlns="http://www.w3.org/2000/svg" xmlns:xlink="http://www.w3.org/1999/xlink" version="1.1" baseProfile="full" width="24" height="24" viewBox="0 0 24.00 24.00" enable-background="new 0 0 24.00 24.00" xml:space="preserve">
	<path fill="#000000" fill-opacity="1" stroke-width="0.2" stroke-linejoin="round" d="M 2,9L 6,9L 10,5L 12,5L 12,20L 10,20L 6,16L 2,16L 2,9 Z M 3,15L 6.41421,15L 10.4142,19L 11,19L 11,6.00001L 10.4142,6.00001L 6.41421,10L 3,10L 3,15 Z M 17,16L 17,13L 14,13L 14,12L 17,12L 17,9.00001L 18,9.00001L 18,12L 21,12L 21,13L 18,13L 18,16L 17,16 Z "/>
</svg>
