<?xml version="1.0" encoding="utf-8"?>
<!DOCTYPE svg PUBLIC "-//W3C//DTD SVG 1.1//EN" "http://www.w3.org/Graphics/SVG/1.1/DTD/svg11.dtd">
<svg xmlns="http://www.w3.org/2000/svg" xmlns:xlink="http://www.w3.org/1999/xlink" version="1.1" baseProfile="full" width="24" height="24" viewBox="0 0 24.00 24.00" enable-background="new 0 0 24.00 24.00" xml:space="preserve">
	<path fill="#000000" fill-opacity="1" stroke-width="1.33333" stroke-linejoin="miter" d="M 4,3C 2.34315,3 1,4.3431 1,6L 1,19C 1,20.6568 2.34315,22 4,22L 17,22C 18.6569,22 20,20.6568 20,19L 20,17.2305C 20.6348,16.6626 20.9984,15.8517 21,15L 21,10C 20.9984,9.1483 20.6348,8.3374 20,7.7695L 20,6C 20,4.3431 18.6569,3 17,3L 4,3 Z M 4,4L 17,4C 18.1046,4 19,4.8954 19,6L 19,7.1738C 18.679,7.0595 18.3408,7.0007 18,7L 12,7C 10.3431,7 9,8.3431 9,10L 9,15C 9,16.6568 10.3431,18 12,18L 18,18C 18.3408,17.9993 18.679,17.9405 19,17.8262L 19,19C 19,20.1046 18.1046,21 17,21L 4,21C 2.89543,21 2,20.1046 2,19L 2,6C 2,4.8954 2.89543,4 4,4 Z M 12,8L 18,8C 19.1046,8 20,8.8954 20,10L 20,15C 20,16.1046 19.1046,17 18,17L 12,17C 10.8954,17 10,16.1046 10,15L 10,10C 10,8.8954 10.8954,8 12,8 Z M 14.5,10C 13.1193,10 12,11.1193 12,12.5C 12,13.8807 13.1193,15 14.5,15C 15.8807,15 17,13.8807 17,12.5C 17,11.1193 15.8807,10 14.5,10 Z M 14.5,11C 15.3284,11 16,11.6716 16,12.5C 16,13.3284 15.3284,14 14.5,14C 13.6716,14 13,13.3284 13,12.5C 13,11.6716 13.6716,11 14.5,11 Z "/>
</svg>
